<svg width="28" height="22" viewBox="0 0 28 22" fill="none" xmlns="http://www.w3.org/2000/svg">
<g clip-path="url(#clip0_3488_1563)">
<path d="M0 0H9.33187V22H0V0Z" fill="#007A5E"/>
<path d="M9.33203 0H18.6683V22H9.33203V0Z" fill="#CE1126"/>
<path d="M18.668 0H27.9998V22H18.668V0Z" fill="#FCD116"/>
<path d="M14.0004 8.39258L13.2227 10.8696L14.4049 11.2933L14.0004 8.39258Z" fill="#FCD116"/>
<path d="M14.0005 8.39258L14.7783 10.8696L13.5961 11.2933L14.0005 8.39258Z" fill="#FCD116"/>
<path d="M16.3512 10.1063L13.8713 10.2989L13.9056 11.4936L16.3512 10.1063Z" fill="#FCD116"/>
<path d="M16.3363 10.1485L14.3986 11.715L13.6087 10.8213L16.3363 10.1485Z" fill="#FCD116"/>
<path d="M15.461 13.105L14.7063 10.6246L13.5088 11.0242L15.461 13.105Z" fill="#FCD116"/>
<path d="M15.4619 13.101L13.4436 11.5951L14.1668 10.5135L15.4619 13.101Z" fill="#FCD116"/>
<path d="M12.5391 13.101L14.5573 11.5951L13.8342 10.5135L12.5391 13.101Z" fill="#FCD116"/>
<path d="M12.54 13.105L13.2947 10.6246L14.4921 11.0242L12.54 13.105Z" fill="#FCD116"/>
<path d="M11.6637 10.1486L13.6014 11.7152L14.3913 10.8214L11.6637 10.1486Z" fill="#FCD116"/>
<path d="M11.6488 10.1063L14.1287 10.2989L14.0944 11.4936L11.6488 10.1063Z" fill="#FCD116"/>
</g>
<defs>
<clipPath id="clip0_3488_1563">
<rect width="28" height="22" rx="3" fill="white"/>
</clipPath>
</defs>
</svg>
