<svg width="28" height="22" viewBox="0 0 28 22" fill="none" xmlns="http://www.w3.org/2000/svg">
<g clip-path="url(#clip0_3488_1506)">
<path d="M0 14.6666H28V22H0V14.6666Z" fill="black"/>
<path d="M0 7.33337H28V14.6667H0V7.33337Z" fill="white"/>
<path d="M0 0H28V7.33333H0V0Z" fill="#CE1126"/>
<path d="M14.0277 11.088L16.4252 13.42L16.2537 9.185C16.2292 8.54333 15.6972 8.69 15.3087 8.921C14.9202 9.185 14.4687 9.185 13.9997 9.01267C13.5272 9.185 13.0792 9.185 12.6907 8.921C12.3057 8.69 11.7702 8.54333 11.7457 9.185L11.5742 13.42L14.0277 11.088Z" fill="white" stroke="#C09300" stroke-width="0.13" stroke-linejoin="round"/>
<path d="M12.0222 9.03833L11.8542 13.156L11.5742 13.42L11.7457 9.185C11.8284 9.11856 11.9222 9.06883 12.0222 9.03833ZM12.3582 9.33166L12.2182 12.7783L11.9382 13.079L12.1062 9.10066C12.1622 9.15933 12.3267 9.30233 12.3582 9.33166ZM12.6627 9.59566L12.5542 12.4703L12.3267 12.7013L12.4667 9.42333C12.5227 9.47833 12.6347 9.56266 12.6627 9.59566ZM12.9952 9.74233L12.8867 12.1917L12.6662 12.3787L12.7747 9.65433C12.8307 9.68 12.9392 9.74233 12.9952 9.74233ZM13.3032 9.74233L13.2227 11.7847L12.9952 12.0157L13.0827 9.768C13.1352 9.768 13.2787 9.768 13.3032 9.74233Z" fill="#C09300"/>
<path d="M15.9768 9.03833L16.1448 13.156L16.4248 13.42L16.2533 9.185C16.1706 9.11856 16.0769 9.06883 15.9768 9.03833ZM15.6408 9.33166L15.7808 12.7783L16.0608 13.079L15.8928 9.10066C15.8368 9.15933 15.6723 9.30233 15.6408 9.33166ZM15.3363 9.59566L15.4448 12.4703L15.6723 12.7013L15.5323 9.42333C15.4763 9.47833 15.3643 9.56266 15.3363 9.59566ZM15.0038 9.74233L15.1123 12.1917L15.3328 12.3787L15.2243 9.65433C15.1683 9.68 15.0598 9.74233 15.0038 9.74233ZM14.6958 9.74233L14.7763 11.7847L15.0038 12.0157L14.9163 9.768C14.8638 9.768 14.7203 9.768 14.6958 9.74233Z" fill="#C09300"/>
<path d="M14.1118 11.55L14.4478 13.156L14.3358 13.2734L14.2203 13.1817L14.0313 11.7517L14.1118 13.1817L13.9998 13.3284L13.8913 13.1817L13.9718 11.7517L13.7793 13.1817L13.6638 13.2734L13.5518 13.156L13.8878 11.5537H14.1118V11.55Z" fill="#C09300" stroke="#C09300" stroke-width="0.11"/>
<path d="M13.2476 10.8461L12.5791 13.3284L13.4996 13.4751L13.8881 11.6087L13.2476 10.8461Z" fill="white" stroke="#C09300" stroke-width="0.12" stroke-linejoin="round"/>
<path d="M13.0273 11.6967L13.1078 11.8984L13.5418 11.4657" stroke="#C09300" stroke-width="0.13" stroke-linejoin="round"/>
<path d="M13.3278 11.1833L13.4188 12.0743L13.6953 11.693M13.5833 11.8397L13.7338 12.3897M13.7933 12.188L13.4888 12.672M13.5833 13.156L13.4853 12.672M13.4853 12.672L13.4013 12.1807L13.1948 12.4703L13.1073 12.1367L12.8203 12.4447L12.9638 13.002L13.1668 12.6573L13.2753 13.0093L13.4853 12.672Z" stroke="#C09300" stroke-width="0.13" stroke-linejoin="round"/>
<path d="M12.7754 13.2734L12.9609 12.9984L13.0799 13.4201L13.2479 13.1267L13.3564 13.4787" stroke="#C09300" stroke-width="0.13" stroke-linejoin="round"/>
<path d="M14.7524 10.8461L15.4209 13.3284L14.5004 13.4751L14.1119 11.6087L14.7524 10.8461Z" fill="white" stroke="#C09300" stroke-width="0.12" stroke-linejoin="round"/>
<path d="M14.9727 11.6967L14.8922 11.8984L14.4582 11.4657" stroke="#C09300" stroke-width="0.13" stroke-linejoin="round"/>
<path d="M14.6722 11.1833L14.5812 12.0743L14.3047 11.693M14.4167 11.8397L14.2662 12.3897M14.2067 12.188L14.5112 12.672M14.4167 13.156L14.5147 12.672M14.5147 12.672L14.5987 12.1807L14.8052 12.4703L14.8927 12.1367L15.1797 12.4447L15.0362 13.002L14.8332 12.6573L14.7247 13.0093L14.5147 12.672Z" stroke="#C09300" stroke-width="0.13" stroke-linejoin="round"/>
<path d="M15.2246 13.2734L15.0391 12.9984L14.9201 13.4201L14.7521 13.1267L14.6436 13.4787" stroke="#C09300" stroke-width="0.13" stroke-linejoin="round"/>
<path d="M13.9993 14.4394C14.6993 14.4394 15.3643 14.3808 15.7563 14.2671C15.9208 14.2341 15.9208 14.1461 15.9208 14.0288C16.0888 13.9701 16.0048 13.7648 16.1203 13.7648C16.0013 13.8014 15.9803 13.5631 15.8403 13.5924C15.8403 13.3871 15.6408 13.3614 15.4763 13.4201C15.1438 13.5338 14.5558 13.5631 13.9993 13.5631C13.4393 13.5338 12.8583 13.5338 12.5223 13.4164C12.3578 13.3614 12.1618 13.3871 12.1618 13.5924C12.0218 13.5631 11.9973 13.7978 11.8818 13.7648C11.9973 13.7648 11.9098 13.9738 12.0778 14.0288C12.0778 14.1461 12.0778 14.2341 12.2458 14.2671C12.6308 14.3808 13.3028 14.4394 13.9993 14.4394Z" fill="white" stroke="#C09300" stroke-width="0.24" stroke-linecap="round" stroke-linejoin="round"/>
<path d="M13.0507 13.3284C13.2747 13.3614 13.5267 13.3871 13.7227 13.3614C13.8347 13.3614 13.9152 13.5631 13.6912 13.5924C13.4987 13.6181 13.1907 13.5924 13.0262 13.5631C12.8097 13.5234 12.5949 13.4745 12.3822 13.4164C12.1862 13.3284 12.3262 13.1598 12.4382 13.1818C12.638 13.2488 12.8429 13.2979 13.0507 13.3284ZM14.9477 13.3284C14.7237 13.3614 14.4717 13.3871 14.2827 13.3614C14.1637 13.3614 14.0832 13.5631 14.3072 13.5924C14.5032 13.6181 14.8077 13.5924 14.9722 13.5631C15.1122 13.5338 15.4202 13.4788 15.6162 13.4164C15.8122 13.3284 15.6722 13.1598 15.5602 13.1818C15.3604 13.2489 15.1555 13.2979 14.9477 13.3284Z" fill="white" stroke="#C09300" stroke-width="0.13" stroke-linecap="round" stroke-linejoin="round"/>
<path d="M12.3543 13.2147C12.1863 13.1817 12.1093 13.3871 12.1618 13.5044C12.1863 13.4457 12.3018 13.4457 12.3263 13.3871C12.3578 13.2991 12.3018 13.2991 12.3578 13.2147H12.3543ZM13.0263 13.7537C13.0263 13.6364 13.1348 13.6511 13.1348 13.5337C13.1348 13.4787 13.1068 13.3871 13.0508 13.3871C13.0216 13.3888 12.9941 13.4017 12.9735 13.4234C12.9528 13.445 12.9405 13.4738 12.9388 13.5044C12.9143 13.6181 13.0263 13.6364 13.0263 13.7537ZM13.8208 13.4201C13.9853 13.4201 13.9678 13.6511 13.8908 13.7684C13.8908 13.6841 13.7508 13.6511 13.7508 13.5924C13.7508 13.5044 13.8768 13.5044 13.8208 13.4201ZM15.6408 13.2147C15.8123 13.1817 15.8928 13.3871 15.8368 13.5044C15.8123 13.4457 15.6968 13.4457 15.6723 13.3871C15.6408 13.2991 15.6968 13.2991 15.6408 13.2147ZM14.9793 13.7501C14.9793 13.6327 14.8673 13.6474 14.8673 13.5301C14.8673 13.4751 14.8953 13.3834 14.9513 13.3834C14.9805 13.3851 15.008 13.3981 15.0286 13.4197C15.0493 13.4413 15.0616 13.4702 15.0633 13.5007C15.0878 13.6144 14.9758 13.6327 14.9758 13.7501H14.9793ZM14.1743 13.4201C14.0098 13.4201 14.0273 13.6511 14.1043 13.7684C14.1043 13.6841 14.2443 13.6511 14.2443 13.5924C14.2443 13.5044 14.1183 13.5044 14.1743 13.4201Z" fill="white" stroke="#C09300" stroke-width="0.13" stroke-linecap="round" stroke-linejoin="round"/>
<path d="M12.4141 13.2734C12.4701 13.2734 12.5541 13.2991 12.5786 13.3321L12.4141 13.2734ZM12.6906 13.3614C12.7186 13.3614 12.8306 13.3871 12.8831 13.4201L12.6906 13.3614ZM13.6916 13.4788C13.6391 13.4788 13.5271 13.4788 13.4991 13.5044L13.6916 13.4751V13.4788ZM13.3871 13.4788C13.3556 13.4458 13.2471 13.4458 13.1911 13.4788H13.3871ZM15.5851 13.2734C15.5257 13.2742 15.4681 13.2948 15.4206 13.3321L15.5851 13.2734ZM15.3121 13.3614C15.2771 13.3614 15.1721 13.3871 15.1161 13.4201L15.3121 13.3614ZM14.3076 13.4788C14.3601 13.4788 14.4721 13.4788 14.5036 13.5044L14.3076 13.4751V13.4788ZM14.6121 13.4788C14.6436 13.4458 14.7521 13.4458 14.8081 13.4788H14.6121Z" fill="white" stroke="#C09300" stroke-width="0.09" stroke-linecap="round" stroke-linejoin="round"/>
<path d="M12.365 13.7355C12.3475 13.7318 12.337 13.7135 12.344 13.6988C12.3475 13.6731 12.365 13.6621 12.379 13.6695C12.393 13.6695 12.4105 13.6915 12.4105 13.6988L12.3965 13.7245L12.3895 13.7281C12.3895 13.7355 12.3755 13.7355 12.365 13.7355ZM14.29 13.8785C14.283 13.8785 14.269 13.8601 14.269 13.8528C14.269 13.8381 14.29 13.8161 14.304 13.8161L14.332 13.8308C14.3425 13.8418 14.3425 13.8638 14.3285 13.8748C14.3215 13.8821 14.3005 13.8821 14.29 13.8748V13.8785ZM14.3005 13.9701C14.2865 13.9628 14.283 13.9555 14.2795 13.9408C14.2795 13.9225 14.2795 13.9188 14.297 13.9078L14.311 13.9005L14.325 13.9078C14.339 13.9151 14.3495 13.9225 14.3495 13.9371C14.3495 13.9481 14.339 13.9591 14.325 13.9665C14.3145 13.9738 14.311 13.9738 14.3005 13.9665V13.9701Z" fill="#C09300"/>
<path d="M12.522 13.5668C12.508 13.5668 12.4905 13.5814 12.48 13.5888C12.459 13.5924 12.431 13.6071 12.41 13.5888C12.389 13.5851 12.361 13.5888 12.3575 13.6181C12.361 13.6438 12.3925 13.6548 12.4135 13.6401C12.4275 13.6218 12.466 13.6071 12.473 13.6401C12.4555 13.6694 12.459 13.7024 12.445 13.7281C12.445 13.7464 12.4345 13.7611 12.4275 13.7758C12.41 13.7758 12.3925 13.7758 12.3785 13.7868C12.3676 13.7868 12.3569 13.7894 12.3472 13.7945C12.3375 13.7996 12.329 13.807 12.3225 13.8161C12.3085 13.8381 12.2945 13.8601 12.291 13.8894C12.2945 13.9114 12.326 13.9188 12.347 13.9224L12.417 13.9444L12.529 13.9774C12.585 13.9958 12.641 14.0031 12.697 14.0178L12.7145 14.0214C12.739 14.0288 12.7495 14.0031 12.7495 13.9848L12.7845 13.8528C12.7915 13.8344 12.802 13.7978 12.7705 13.8051C12.753 13.8161 12.7355 13.8344 12.7145 13.8344C12.683 13.8344 12.7005 13.8711 12.7145 13.8821C12.7145 13.9041 12.7075 13.9298 12.697 13.9481C12.676 13.9591 12.655 13.9481 12.634 13.9408C12.6165 13.9408 12.5745 13.9298 12.592 13.9041L12.6095 13.8381C12.62 13.8161 12.62 13.7904 12.627 13.7648C12.613 13.7391 12.592 13.7758 12.5745 13.7794C12.5605 13.7868 12.5185 13.7904 12.5395 13.8161C12.5605 13.8308 12.5465 13.8564 12.5395 13.8784C12.5395 13.9041 12.5115 13.9151 12.4905 13.9041C12.4695 13.9041 12.438 13.8858 12.4555 13.8638L12.473 13.7978L12.4975 13.7244C12.4975 13.6988 12.508 13.6804 12.5185 13.6584C12.5185 13.6328 12.536 13.6108 12.536 13.5851C12.536 13.5741 12.529 13.5704 12.522 13.5704V13.5668ZM12.3925 13.8344C12.3941 13.8335 12.3959 13.833 12.3978 13.833C12.3996 13.833 12.4014 13.8335 12.403 13.8344C12.41 13.8418 12.41 13.8491 12.403 13.8564L12.3925 13.8638C12.375 13.8638 12.3715 13.8601 12.3715 13.8528C12.3715 13.8491 12.3715 13.8454 12.382 13.8418C12.3863 13.8386 12.391 13.8361 12.396 13.8344H12.3925ZM12.3575 14.0178C12.34 14.0031 12.3435 13.9921 12.368 13.9701C12.382 13.9628 12.3855 13.9628 12.3995 13.9738C12.4205 13.9921 12.4205 14.0031 12.3995 14.0214C12.3925 14.0288 12.389 14.0288 12.382 14.0288C12.3715 14.0288 12.368 14.0288 12.3575 14.0214V14.0178ZM12.4625 14.0544C12.4547 14.0519 12.4481 14.0463 12.4442 14.0387C12.4403 14.0312 12.4393 14.0224 12.4415 14.0141C12.4485 13.9994 12.452 13.9958 12.473 13.9958C12.4975 13.9958 12.501 13.9994 12.5045 14.0214C12.5045 14.0361 12.5045 14.0398 12.494 14.0471C12.4901 14.0503 12.4856 14.0527 12.4808 14.0539C12.4759 14.0552 12.4709 14.0554 12.466 14.0544H12.4625ZM15.5845 14.0544C15.5775 14.0508 15.574 14.0471 15.574 14.0361C15.574 14.0214 15.581 14.0104 15.602 14.0031C15.623 13.9921 15.637 13.9921 15.644 14.0104C15.6545 14.0324 15.6545 14.0398 15.6405 14.0544C15.6335 14.0654 15.63 14.0654 15.6125 14.0654C15.595 14.0654 15.5915 14.0654 15.5845 14.0581V14.0544ZM12.6095 14.0984C12.5955 14.0984 12.5885 14.0838 12.5885 14.0691C12.5885 14.0581 12.5885 14.0544 12.5955 14.0471L12.6165 14.0398L12.6375 14.0434C12.655 14.0581 12.6585 14.0728 12.648 14.0874C12.6375 14.1021 12.627 14.1021 12.606 14.0984H12.6095ZM13.3725 14.1351L13.3655 14.1241C13.3655 14.1021 13.3655 14.0838 13.3725 14.0618C13.376 14.0434 13.3725 14.0251 13.3795 14.0068L13.3935 13.9041C13.3935 13.8858 13.3935 13.8674 13.4005 13.8528C13.404 13.8234 13.4005 13.7978 13.4075 13.7721C13.4075 13.7611 13.418 13.7354 13.4285 13.7501C13.4425 13.7721 13.46 13.7868 13.4775 13.8051C13.4915 13.8161 13.4775 13.8308 13.467 13.8344C13.453 13.8381 13.4495 13.8564 13.4495 13.8711L13.4425 13.9151C13.4425 13.9408 13.4425 13.9628 13.4355 13.9884L13.432 14.0544L13.425 14.0984C13.425 14.1131 13.425 14.1314 13.411 14.1388C13.4005 14.1461 13.383 14.1461 13.376 14.1351H13.3725ZM14.412 13.7758L14.3665 13.8198C14.3455 13.8381 14.384 13.8454 14.3875 13.8601C14.3945 13.8821 14.3945 13.9041 14.3945 13.9261C14.4015 13.9481 14.405 13.9664 14.4015 13.9884C14.4015 14.0141 14.3735 14.0068 14.3595 14.0214C14.342 14.0288 14.335 14.0471 14.3245 14.0581C14.3162 14.0765 14.3114 14.0964 14.3105 14.1168C14.3105 14.1351 14.3 14.1534 14.3105 14.1681L14.314 14.1754H14.3315L14.384 14.1718C14.426 14.1644 14.4715 14.1644 14.5135 14.1608L14.5905 14.1534C14.6115 14.1571 14.622 14.1351 14.622 14.1168C14.608 14.0911 14.6185 14.0654 14.608 14.0434C14.601 14.0141 14.6045 13.9884 14.601 13.9628C14.601 13.9408 14.5765 13.9334 14.566 13.9481C14.552 13.9628 14.531 13.9664 14.524 13.9811C14.5135 14.0031 14.545 14.0031 14.552 14.0178L14.5555 14.0728C14.559 14.0948 14.538 14.0948 14.5205 14.0984C14.503 14.1058 14.4785 14.1094 14.468 14.0874C14.461 14.0691 14.461 14.0508 14.461 14.0324C14.461 13.9958 14.4505 13.9664 14.4505 13.9334C14.4505 13.8968 14.44 13.8564 14.44 13.8161C14.44 13.7978 14.4365 13.7721 14.412 13.7758ZM14.391 14.0764H14.4015V14.1058L14.391 14.1094C14.3864 14.111 14.3817 14.1122 14.377 14.1131C14.3747 14.1132 14.3723 14.1132 14.37 14.1131C14.363 14.1058 14.363 14.0948 14.3735 14.0838L14.391 14.0764ZM13.341 13.7391C13.3305 13.7391 13.313 13.7648 13.299 13.7611C13.2675 13.7648 13.271 13.7978 13.2955 13.8088V13.8381C13.299 13.8674 13.2815 13.8931 13.285 13.9224C13.285 13.9518 13.2745 13.9848 13.2745 14.0178C13.264 14.0508 13.264 14.0838 13.2605 14.1168C13.257 14.1461 13.236 14.1351 13.2185 14.1278V14.0911C13.222 14.0581 13.201 14.0508 13.1765 14.0471C13.152 14.0471 13.1415 14.0288 13.1485 14.0068C13.159 13.9921 13.1835 13.9958 13.201 13.9958C13.236 14.0031 13.2325 13.9554 13.215 13.9371C13.201 13.9151 13.173 13.9004 13.166 13.8784C13.166 13.8491 13.1485 13.8161 13.124 13.8014C13.0855 13.7978 13.054 13.8308 13.0435 13.8674C13.026 13.8674 13.0085 13.8748 12.9945 13.8821C12.97 13.8894 12.935 13.9334 12.97 13.9518C12.9875 13.9554 13.047 13.9701 13.019 13.9958C13.005 14.0251 12.977 14.0251 12.9525 14.0178C12.928 14.0178 12.9 14.0031 12.9 13.9738C12.8965 13.9444 12.8965 13.9151 12.886 13.8894C12.879 13.8601 12.8475 13.8674 12.844 13.8968C12.8195 13.9151 12.823 13.9481 12.8405 13.9701C12.851 13.9958 12.8405 14.0288 12.83 14.0508C12.823 14.0874 12.788 14.0874 12.7635 14.0948C12.753 14.1021 12.7075 14.0948 12.725 14.1204C12.7513 14.1331 12.7806 14.1369 12.809 14.1314C12.837 14.1314 12.8615 14.1058 12.879 14.0801C12.8965 14.0618 12.928 14.0728 12.956 14.0728C12.9805 14.0728 13.0085 14.0911 13.0365 14.0764C13.0435 14.0581 13.0785 14.0214 13.089 14.0581C13.089 14.0911 13.1135 14.1058 13.1415 14.1021C13.173 14.1021 13.159 14.1241 13.159 14.1461C13.159 14.1791 13.1835 14.1974 13.2115 14.2121H13.2395C13.264 14.2011 13.292 14.1901 13.3025 14.1608C13.313 14.1351 13.313 14.1058 13.32 14.0801C13.327 14.0398 13.334 13.9958 13.334 13.9554C13.3445 13.9188 13.341 13.8784 13.348 13.8381L13.3585 13.7538C13.3585 13.7354 13.3515 13.7354 13.341 13.7391ZM13.1065 13.8894C13.11 13.8894 13.1135 13.8968 13.1135 13.9078C13.1135 13.9224 13.1205 13.9334 13.131 13.9371V13.9481L13.103 13.9554C13.0855 13.9554 13.0715 13.9481 13.061 13.9371L13.054 13.9298L13.0645 13.9224L13.082 13.9041C13.0925 13.8931 13.0995 13.8894 13.1065 13.8894ZM15.4165 13.5998C15.3964 13.6013 15.3764 13.605 15.357 13.6108C15.322 13.6108 15.3045 13.6474 15.3395 13.6694C15.3605 13.7244 15.392 13.6548 15.427 13.6621C15.476 13.6694 15.4795 13.7281 15.49 13.7721C15.49 13.8124 15.504 13.8528 15.5145 13.8931C15.5495 13.9334 15.49 13.9591 15.4655 13.9298C15.4445 13.9041 15.3955 13.8748 15.371 13.9078C15.3395 13.9224 15.336 13.9664 15.3115 13.9811C15.2695 13.9921 15.266 13.9371 15.2415 13.9151C15.2205 13.8821 15.182 13.8784 15.1505 13.8711C15.1365 13.8381 15.1435 13.7831 15.1155 13.7611C15.0875 13.7721 15.0385 13.8234 15.0805 13.8491C15.1155 13.8858 15.063 13.9004 15.0455 13.9224C15.0175 13.9554 15.0105 13.9958 15.0105 14.0324C14.965 14.0581 14.958 14.0031 14.951 13.9701C14.951 13.9298 14.916 13.9408 14.8915 13.9554C14.8565 13.9701 14.8425 14.0031 14.8215 14.0288V14.1021C14.8285 14.1351 14.8635 14.1204 14.8845 14.1168C14.9195 14.1021 14.9335 14.1424 14.9055 14.1644C14.8845 14.1864 14.8285 14.1754 14.8355 14.2158H14.8915C14.9265 14.2048 14.9685 14.1754 14.972 14.1314C14.979 14.0948 15.0315 14.0984 15.0595 14.0911C15.0945 14.0801 15.14 14.0764 15.1505 14.1278C15.175 14.1534 15.2275 14.1828 15.2555 14.1461C15.2688 14.1373 15.2795 14.1247 15.2863 14.1097C15.2931 14.0948 15.2958 14.0782 15.294 14.0618C15.2905 14.0324 15.3395 14.0324 15.3535 14.0508C15.371 14.0801 15.427 14.0728 15.455 14.0508C15.483 14.0324 15.49 13.9921 15.532 13.9921L15.721 13.9371C15.77 13.9261 15.714 13.8931 15.7 13.8711C15.665 13.8528 15.63 13.9334 15.588 13.8931C15.553 13.8674 15.5565 13.8198 15.546 13.7794C15.5355 13.7281 15.539 13.6694 15.504 13.6328C15.483 13.6071 15.448 13.5998 15.4165 13.5998ZM15.1785 13.9481C15.182 13.9481 15.189 13.9481 15.196 13.9554C15.21 13.9628 15.2205 13.9774 15.2205 13.9921C15.2205 13.9994 15.2205 13.9994 15.21 14.0031L15.1925 14.0104C15.1855 14.0104 15.168 13.9994 15.168 13.9921V13.9774C15.161 13.9628 15.161 13.9628 15.168 13.9554L15.1785 13.9481ZM15.406 13.9628C15.42 13.9628 15.427 13.9628 15.434 13.9738C15.4375 13.9884 15.434 13.9958 15.42 14.0031L15.4025 14.0104L15.3885 13.9994C15.3815 13.9958 15.378 13.9921 15.378 13.9848C15.378 13.9738 15.392 13.9628 15.406 13.9591V13.9628ZM15.091 13.9628C15.098 13.9628 15.1015 13.9628 15.105 13.9701C15.112 13.9774 15.1155 13.9811 15.1155 13.9921V14.0141C15.1155 14.0251 15.1155 14.0214 15.0945 14.0214C15.0735 14.0214 15.07 14.0214 15.07 13.9994C15.07 13.9848 15.07 13.9811 15.0805 13.9738C15.084 13.9664 15.091 13.9664 15.0945 13.9664L15.091 13.9628ZM14.902 14.0178C14.9053 14.0188 14.9083 14.0207 14.9108 14.0233C14.9132 14.0258 14.915 14.029 14.916 14.0324C14.916 14.0434 14.916 14.0508 14.909 14.0544C14.8985 14.0581 14.881 14.0618 14.874 14.0544C14.8739 14.0532 14.8739 14.052 14.874 14.0508C14.867 14.0471 14.867 14.0434 14.874 14.0398V14.0361L14.881 14.0251C14.8832 14.0215 14.8864 14.0189 14.8903 14.0175C14.8941 14.0162 14.8982 14.0163 14.902 14.0178ZM15.224 14.0618L15.2415 14.0654V14.0874H15.1995L15.196 14.0801C15.196 14.0728 15.196 14.0691 15.203 14.0654L15.224 14.0618ZM14.6255 14.2378C14.622 14.2378 14.615 14.2341 14.622 14.2304C14.6255 14.2194 14.6395 14.2158 14.65 14.2084C14.6691 14.2008 14.686 14.1882 14.699 14.1718C14.699 14.1571 14.713 14.1498 14.713 14.1351L14.7095 14.0838C14.7048 14.0684 14.6948 14.0553 14.6815 14.0471C14.671 14.0434 14.657 14.0398 14.6535 14.0251C14.6535 14.0141 14.664 14.0031 14.6675 13.9921L14.6885 13.9481C14.699 13.9371 14.713 13.9481 14.7165 13.9554L14.734 13.9921C14.7445 14.0031 14.7515 14.0141 14.755 14.0288C14.762 14.0434 14.769 14.0544 14.769 14.0654L14.776 14.1131C14.776 14.1314 14.776 14.1534 14.769 14.1718L14.748 14.2011C14.7375 14.2121 14.727 14.2231 14.713 14.2268C14.7025 14.2304 14.6955 14.2414 14.6815 14.2414H14.629L14.6255 14.2378ZM14.384 14.2524C14.377 14.2451 14.3735 14.2414 14.3735 14.2304C14.3735 14.2194 14.3735 14.2194 14.384 14.2084C14.398 14.1938 14.405 14.1938 14.433 14.2084C14.4575 14.2231 14.468 14.2231 14.468 14.2121C14.4715 14.2048 14.4855 14.1938 14.503 14.1938C14.5095 14.194 14.5157 14.1966 14.5205 14.2011C14.5275 14.2084 14.531 14.2121 14.531 14.2268C14.531 14.2451 14.531 14.2451 14.5205 14.2561C14.51 14.2634 14.51 14.2634 14.496 14.2634C14.4898 14.2631 14.4838 14.2608 14.4788 14.2569C14.4738 14.253 14.4701 14.2476 14.468 14.2414C14.468 14.2341 14.468 14.2304 14.461 14.2378L14.454 14.2414C14.447 14.2414 14.433 14.2524 14.426 14.2598L14.4085 14.2634C14.3945 14.2634 14.3945 14.2634 14.384 14.2524ZM13.691 13.9261C13.6665 13.9261 13.642 13.9481 13.6385 13.9738C13.6455 13.9994 13.6665 14.0288 13.6525 14.0544C13.663 14.0911 13.6245 14.1058 13.6 14.0874C13.586 14.0508 13.579 14.0141 13.5545 13.9774C13.5265 13.9701 13.516 14.0178 13.495 14.0361C13.5055 14.0618 13.5335 14.0874 13.537 14.1204C13.544 14.1571 13.523 14.1938 13.4985 14.2084C13.474 14.2341 13.439 14.2268 13.411 14.2304C13.376 14.2524 13.4355 14.2598 13.453 14.2598C13.488 14.2634 13.5265 14.2598 13.558 14.2304C13.5825 14.2194 13.579 14.1681 13.6105 14.1644L13.7785 14.1754C13.8065 14.1828 13.852 14.1718 13.873 14.1938C13.873 14.2304 13.908 14.2598 13.9395 14.2744C13.957 14.2818 13.9745 14.2561 13.992 14.2524C14.027 14.2414 14.0165 14.1974 14.0375 14.1791H14.2125C14.2195 14.1791 14.223 14.1608 14.2335 14.1534L14.2265 14.0838C14.216 14.0544 14.2265 14.0178 14.209 13.9921C14.1775 13.9848 14.153 14.0104 14.125 14.0141C14.09 14.0288 14.0655 14.0618 14.062 14.0984C14.0445 14.1314 14.013 14.0911 14.027 14.0618L14.0235 14.0251C14.006 14.0068 13.9745 14.0141 13.95 14.0104L13.845 14.0031C13.81 14.0031 13.7785 14.0068 13.7505 13.9994C13.7155 13.9994 13.7155 13.9628 13.7155 13.9334C13.7085 13.9279 13.6998 13.9252 13.691 13.9261ZM13.761 14.0618L13.796 14.0654H13.8415C13.8765 14.0728 13.9115 14.0728 13.9465 14.0728C13.9535 14.0728 13.9605 14.0801 13.9675 14.0874V14.1608C13.9675 14.1718 13.9675 14.1864 13.9605 14.1901C13.9587 14.193 13.9563 14.1955 13.9535 14.1974C13.9484 14.1965 13.9435 14.1943 13.9393 14.1912C13.935 14.188 13.9315 14.1839 13.929 14.1791V14.1278C13.9221 14.1216 13.9135 14.1178 13.9045 14.1168L13.8135 14.1131L13.7435 14.1094C13.733 14.1058 13.719 14.1094 13.712 14.0948C13.705 14.0874 13.7155 14.0728 13.726 14.0691C13.737 14.0639 13.749 14.0614 13.761 14.0618ZM14.1565 14.0728C14.16 14.0728 14.1635 14.0728 14.1635 14.0838L14.1705 14.1021C14.1705 14.1058 14.1705 14.1094 14.1635 14.1094C14.146 14.1168 14.1285 14.1168 14.1215 14.1094C14.1215 14.1058 14.1215 14.0911 14.1285 14.0874L14.1565 14.0728Z" fill="#C09300"/>
<path d="M13.9994 11.9974C15.1404 11.0807 15.0424 9.73135 15.0424 9.73135L14.9549 9.73869C14.7134 9.73869 14.1429 9.59202 14.0099 9.41235C13.8699 9.57735 13.2819 9.74235 13.0439 9.74235L12.9564 9.73135C12.9564 9.73135 12.8549 11.077 13.9994 11.9974Z" fill="white" stroke="#C09300" stroke-width="0.11"/>
<path d="M14.9519 9.82665H14.9239C14.7069 9.82665 14.2029 9.71299 14.0069 9.53699C13.8039 9.69832 13.2894 9.83032 13.0759 9.83032C13.0664 9.82994 13.0571 9.82871 13.0479 9.82665C13.0498 10.0584 13.0804 10.2888 13.1389 10.5123C13.2792 11.0507 13.5811 11.5276 13.9999 11.8727C14.4189 11.5263 14.7207 11.0482 14.8609 10.5087C14.9191 10.2864 14.9496 10.0571 14.9519 9.82665Z" fill="white" stroke="#C09300" stroke-width="0.09"/>
<path d="M13.6289 9.71668C13.4409 9.78082 13.2454 9.81782 13.0479 9.82668L13.0514 9.97701C13.0633 10.1569 13.0926 10.335 13.1389 10.5087C13.2329 10.8693 13.4001 11.2044 13.6289 11.4913V9.71668ZM14.3499 9.71668V11.5207C14.5897 11.2272 14.7642 10.8815 14.8609 10.5087C14.907 10.335 14.9364 10.1569 14.9484 9.97701L14.9519 9.83035H14.9239C14.7909 9.83035 14.5599 9.78635 14.3499 9.71301V9.71668Z" fill="#C09300"/>
<path d="M14.4297 9.27671C14.4542 9.28038 14.3982 9.14838 14.3982 9.14838C14.4612 9.21438 14.6922 9.23271 14.6922 9.23271C14.5522 9.16671 14.4122 8.67905 14.4297 8.28671C14.4437 7.89805 14.3772 7.74405 14.3247 7.68538C14.2547 7.61205 14.0272 7.54605 13.8802 7.53871C13.7927 7.53505 13.8102 7.60471 13.8102 7.60471C13.6527 7.56438 13.4952 7.54605 13.4252 7.59738C13.3622 7.64138 13.3482 7.87238 13.3972 7.83205C13.5127 7.73305 13.6142 7.82471 13.6842 7.93105C13.7472 8.02271 13.7437 8.28671 13.6527 8.59838C13.5722 8.834 13.4538 9.05348 13.3027 9.24738C13.4427 9.24738 13.6387 9.11905 13.6387 9.11905L13.5932 9.32071C13.7402 9.24738 13.8557 9.13371 13.8557 9.13371L13.9957 9.28771C14.0412 9.22171 14.1357 9.13371 14.1357 9.13371C14.1357 9.13371 14.2512 9.26205 14.4297 9.28038V9.27671Z" fill="white" stroke="#C09300" stroke-width="0.12"/>
<path d="M13.8627 8.34536C13.8627 8.34536 13.7857 8.94669 13.6387 9.11536M13.9887 8.32703C13.9887 8.32703 13.9537 8.93936 13.8557 9.13369M14.0972 8.35269C14.0972 8.35269 14.0972 9.02003 14.1322 9.13369M14.2372 8.38569C14.2372 8.38569 14.2652 8.94669 14.3982 9.14836" stroke="#C09300" stroke-width="0.13"/>
<path d="M13.7195 8.052C13.7163 8.00948 13.7044 7.96819 13.6845 7.931C13.6145 7.821 13.513 7.733 13.3975 7.832C13.3975 7.832 13.436 7.70366 13.5235 7.7C13.5865 7.69633 13.737 7.75133 13.87 7.986C13.87 7.986 13.772 7.964 13.7475 7.986C13.7055 8.02266 13.723 8.052 13.723 8.052H13.7195Z" fill="#C09300" stroke="#C09300" stroke-width="0.03"/>
<path d="M13.3828 7.67438C13.3933 7.63771 13.4073 7.60838 13.4283 7.59738C13.4983 7.54605 13.6523 7.56071 13.8098 7.60471C13.8098 7.60471 13.7958 7.53505 13.8798 7.53871C14.0268 7.54605 14.2508 7.61205 14.3208 7.68538C14.3432 7.71116 14.361 7.74098 14.3733 7.77338C14.3383 7.72205 14.2403 7.72571 14.2158 7.72938C14.1808 7.73305 14.1563 7.72938 14.1073 7.74405C14.0828 7.75138 14.0478 7.75871 14.0268 7.77338C14.0128 7.78805 13.9988 7.83205 13.9778 7.83205C13.9428 7.83205 13.9428 7.82471 13.9323 7.81371C13.9218 7.79538 13.9148 7.77338 13.9008 7.77705C13.8658 7.78071 13.8028 7.75138 13.7258 7.68538C13.6453 7.61938 13.6138 7.60471 13.5158 7.61205C13.4108 7.61938 13.3828 7.68171 13.3828 7.68171V7.67438Z" fill="#C09300" stroke="#C09300" stroke-width="0.03"/>
<path d="M13.957 7.76976C13.9802 7.76976 13.999 7.75006 13.999 7.72576C13.999 7.70146 13.9802 7.68176 13.957 7.68176C13.9338 7.68176 13.915 7.70146 13.915 7.72576C13.915 7.75006 13.9338 7.76976 13.957 7.76976Z" fill="white"/>
</g>
<defs>
<clipPath id="clip0_3488_1506">
<rect width="28" height="22" rx="3" fill="white"/>
</clipPath>
</defs>
</svg>
