<svg width="28" height="22" viewBox="0 0 28 22" fill="none" xmlns="http://www.w3.org/2000/svg">
<g clip-path="url(#clip0_3488_1437)">
<path d="M0 0H28V22H0V0Z" fill="white"/>
<path d="M0 0H28V6.6H0V0Z" fill="black"/>
<path d="M0 15.4H28V22H0V15.4Z" fill="#006600"/>
<path d="M10.2461 17.5312L10.4823 17.6687L16.6117 6.53124C16.9661 6.44874 17.163 6.09124 17.3598 5.73374C17.4911 5.48624 18.0161 4.53749 18.2392 3.29999C17.6165 3.87967 17.0889 4.5625 16.6773 5.32124C16.4805 5.67874 16.2836 6.03624 16.3755 6.40749L10.2461 17.5312Z" fill="black" stroke="black" stroke-width="0.375"/>
<path d="M10.2461 17.5312L10.4823 17.6687L16.6117 6.53124C16.9661 6.44874 17.163 6.09124 17.3598 5.73374C17.4911 5.48624 18.0161 4.53749 18.2392 3.29999C17.6165 3.87967 17.0889 4.5625 16.6773 5.32124C16.4805 5.67874 16.2836 6.03624 16.3755 6.40749L10.2461 17.5312Z" fill="white"/>
<path d="M17.7539 17.5312L17.5177 17.6687L11.3883 6.53124C11.0339 6.44874 10.837 6.09124 10.6402 5.73374C10.5089 5.48624 9.98391 4.53749 9.76078 3.29999C10.3835 3.87967 10.9111 4.5625 11.3227 5.32124C11.5195 5.67874 11.7164 6.03624 11.6245 6.40749L17.7539 17.5312Z" fill="black" stroke="black" stroke-width="0.375"/>
<path d="M17.7539 17.5312L17.5177 17.6687L11.3883 6.53124C11.0339 6.44874 10.837 6.09124 10.6402 5.73374C10.5089 5.48624 9.98391 4.53749 9.76078 3.29999C10.3835 3.87967 10.9111 4.5625 11.3227 5.32124C11.5195 5.67874 11.7164 6.03624 11.6245 6.40749L17.7539 17.5312Z" fill="white"/>
<path d="M28.0218 7.70002H16.4937C16.1 6.60002 14.7875 4.40002 14 4.40002C13.2125 4.40002 11.9 6.60002 11.5062 7.70002H-0.00878906V14.3H11.5062C11.9 15.4 13.2125 17.6 14 17.6C14.7875 17.6 16.1 15.4 16.4937 14.3H28.0218V7.70002Z" fill="#BB0000"/>
<path d="M16.4941 14.3C16.8879 13.2 17.1504 12.1 17.1504 11C17.1504 9.90001 16.8879 8.80001 16.4941 7.70001C16.1004 8.80001 15.8379 9.90001 15.8379 11C15.8379 12.1 16.1004 13.2 16.4941 14.3Z" fill="black"/>
<path d="M11.5059 14.3C11.1121 13.2 10.8496 12.1 10.8496 11C10.8496 9.90001 11.1121 8.80001 11.5059 7.70001C11.8996 8.80001 12.1621 9.90001 12.1621 11C12.1621 12.1 11.8996 13.2 11.5059 14.3Z" fill="black"/>
<path d="M13.9996 11.825C14.2896 11.825 14.5246 11.4556 14.5246 11C14.5246 10.5444 14.2896 10.175 13.9996 10.175C13.7097 10.175 13.4746 10.5444 13.4746 11C13.4746 11.4556 13.7097 11.825 13.9996 11.825Z" fill="white"/>
<path d="M14.1309 11.7975C14.1309 11.7975 14.6559 12.8975 14.6559 14.685C14.6559 16.4725 14.1309 17.5725 14.1309 17.5725V11.7975Z" fill="white"/>
<path d="M13.8691 10.2025C13.8691 10.2025 13.3441 9.10251 13.3441 7.31501C13.3441 5.52751 13.8691 4.42751 13.8691 4.42751V10.2025Z" fill="white"/>
<path d="M13.8691 11.7975C13.8691 11.7975 13.3441 12.8975 13.3441 14.685C13.3441 16.4725 13.8691 17.5725 13.8691 17.5725V11.7975Z" fill="white"/>
<path d="M14.1309 10.2025C14.1309 10.2025 14.6559 9.10251 14.6559 7.31501C14.6559 5.52751 14.1309 4.42751 14.1309 4.42751V10.2025Z" fill="white"/>
</g>
<defs>
<clipPath id="clip0_3488_1437">
<rect width="28" height="22" rx="3" fill="white"/>
</clipPath>
</defs>
</svg>
