<svg width="28" height="22" viewBox="0 0 28 22" fill="none" xmlns="http://www.w3.org/2000/svg">
<g clip-path="url(#clip0_3495_2082)">
<mask id="mask0_3495_2082" style="mask-type:luminance" maskUnits="userSpaceOnUse" x="-1" y="0" width="29" height="22">
<path d="M-0.000976562 0H27.9963V22H-0.000976562V0Z" fill="white"/>
</mask>
<g mask="url(#mask0_3495_2082)">
<path fill-rule="evenodd" clip-rule="evenodd" d="M-1.75195 0H29.748V22H-1.75195V0Z" fill="#0C590B"/>
<path fill-rule="evenodd" clip-rule="evenodd" d="M-1.75195 0H6.14355V22H-1.75195V0Z" fill="white"/>
<path fill-rule="evenodd" clip-rule="evenodd" d="M18.7031 9.68513L17.4234 9.40154L16.7508 10.5746L16.6113 9.21677L15.3398 8.9074L16.5293 8.3488L16.4186 6.98669L17.2963 8.00076L18.498 7.46794L17.8459 8.65388L18.7072 9.68513H18.7031Z" fill="white"/>
<path fill-rule="evenodd" clip-rule="evenodd" d="M19.1828 13.1484C18.9098 13.7724 18.5218 14.3337 18.0411 14.8001C17.5603 15.2664 16.9963 15.6286 16.3815 15.8658C15.7667 16.103 15.1131 16.2105 14.4585 16.1822C13.8039 16.1539 13.161 15.9903 12.567 15.7008C11.3617 15.1162 10.4275 14.0539 9.96979 12.7477C9.51212 11.4414 9.56851 9.99823 10.1265 8.73555C10.4037 8.08647 10.8074 7.50533 11.3118 7.02949C11.8161 6.55366 12.4099 6.19367 13.0551 5.97266C12.8862 6.11998 12.7246 6.2763 12.5711 6.44102C11.7709 7.36943 11.3461 8.58712 11.3863 9.8373C11.4264 11.0875 11.9285 12.2725 12.7865 13.1424C13.6445 14.0123 14.7915 14.4991 15.9855 14.5003C17.1796 14.5014 18.3274 14.0167 19.1869 13.1484H19.1828Z" fill="white"/>
</g>
</g>
<defs>
<clipPath id="clip0_3495_2082">
<rect width="28" height="22" rx="3" fill="white"/>
</clipPath>
</defs>
</svg>
