<svg width="28" height="22" viewBox="0 0 28 22" fill="none" xmlns="http://www.w3.org/2000/svg">
<g clip-path="url(#clip0_3488_1297)">
<mask id="mask0_3488_1297" style="mask-type:luminance" maskUnits="userSpaceOnUse" x="0" y="0" width="28" height="22">
<path d="M0.000976562 0H27.9982V22H0.000976562V0Z" fill="white"/>
</mask>
<g mask="url(#mask0_3488_1297)">
<path fill-rule="evenodd" clip-rule="evenodd" d="M-1.75 14.6695H29.75V18.3348H-1.75V14.6695Z" fill="#FFE700"/>
<path fill-rule="evenodd" clip-rule="evenodd" d="M-1.75 11H29.75V14.6652H-1.75V11Z" fill="black"/>
<path fill-rule="evenodd" clip-rule="evenodd" d="M-1.75 7.33478H29.75V11H-1.75V7.33478Z" fill="#DE3908"/>
<path fill-rule="evenodd" clip-rule="evenodd" d="M-1.75 3.66953H29.75V7.33476H-1.75V3.66953Z" fill="#FFE700"/>
<path fill-rule="evenodd" clip-rule="evenodd" d="M-1.75 0H29.75V3.66523H-1.75V0Z" fill="black"/>
<path fill-rule="evenodd" clip-rule="evenodd" d="M17.2693 11C17.2693 11.9083 16.9249 12.7793 16.3119 13.4216C15.6988 14.0638 14.8674 14.4246 14.0004 14.4246C13.1334 14.4246 12.3019 14.0638 11.6889 13.4216C11.0759 12.7793 10.7314 11.9083 10.7314 11C10.7314 10.0917 11.0759 9.22066 11.6889 8.57842C12.3019 7.93618 13.1334 7.57538 14.0004 7.57538C14.8674 7.57538 15.6988 7.93618 16.3119 8.57842C16.9249 9.22066 17.2693 10.0917 17.2693 11Z" fill="#FFFDFF" stroke="black" stroke-width="0.117188"/>
<path fill-rule="evenodd" clip-rule="evenodd" d="M13.4262 8.3746L13.2129 7.96639C13.2949 7.88046 13.4303 7.81171 13.6518 7.81171L13.6271 8.26288L13.4221 8.3746H13.4262Z" fill="#DE3108" stroke="black" stroke-width="0.117188"/>
<path fill-rule="evenodd" clip-rule="evenodd" d="M13.6311 8.26288L13.6598 7.81171C13.6598 7.81171 14.0986 7.78593 14.3365 8.08671L14.1027 8.43905L13.627 8.26718L13.6311 8.26288Z" fill="#FFE700" stroke="black" stroke-width="0.117188"/>
<path fill-rule="evenodd" clip-rule="evenodd" d="M14.1064 8.43477L14.3238 8.08243C14.4674 8.24141 14.5289 8.35313 14.5494 8.52501C14.5535 8.5293 14.209 8.61524 14.209 8.61094L14.1064 8.43477Z" fill="#DE3108" stroke="black" stroke-width="0.117188"/>
<path fill-rule="evenodd" clip-rule="evenodd" d="M13.5324 14.227C13.5324 14.227 13.9385 13.7414 14.726 13.8445C14.6071 13.6426 14.2215 13.6684 14.2215 13.6684C14.2215 13.6684 14.1067 12.7231 14.1969 12.6715C14.2871 12.6199 14.6891 12.6758 14.6891 12.6758C14.7383 12.6758 14.8285 12.5297 14.7547 12.4352C14.685 12.3406 14.4758 11.984 14.5619 11.911C14.6481 11.8422 15.1115 11.9539 15.1115 11.9539L13.799 10.1922C13.799 10.1922 13.6637 9.52618 13.9344 9.20392C14.2584 8.92462 14.2215 8.61954 14.2133 8.62384C14.1682 8.31447 13.7211 8.09533 13.4176 8.37892C13.2412 8.60236 13.3602 8.77423 13.3602 8.77423C13.3602 8.77423 12.8885 8.90743 12.8721 8.99337C12.8516 9.07931 13.4012 8.98048 13.4012 8.98048L13.3479 9.3715C13.3479 9.3715 12.2815 10.3856 13.1018 11.2621L13.1264 11.2277C13.1264 11.2277 13.4135 11.5973 13.7129 11.6789C14 11.9797 13.9713 11.9367 13.9713 11.9367C13.9713 11.9367 14.0246 12.4137 13.9713 12.5082C13.9016 12.4867 13.1797 12.4567 13.0731 12.4996C12.9746 12.534 12.6055 12.5125 12.6957 13.1485L12.8311 12.8262C12.8311 12.8262 12.8188 13.0539 12.909 13.1356C12.8926 12.8949 12.9951 12.7317 12.9951 12.7317C12.9951 12.7317 13.0115 12.9981 13.069 13.0324C13.1264 13.0754 13.1264 12.6027 13.4381 12.6457C13.7416 12.6844 13.9672 12.6715 13.9672 12.6715C13.9672 12.6715 14.0697 13.591 14.0369 13.677C13.8154 13.6211 13.2822 13.6985 13.2494 13.8402C13.5612 13.8188 13.7047 13.8574 13.7047 13.8574C13.7047 13.8574 13.4545 14.0938 13.5324 14.227Z" fill="black" stroke="black" stroke-width="0.105469" stroke-linecap="round" stroke-linejoin="round"/>
<path fill-rule="evenodd" clip-rule="evenodd" d="M13.6553 9.2297C13.6553 9.2297 12.8801 10.1234 13.2164 10.8067C13.2328 10.7121 13.2246 10.652 13.2369 10.6563C13.2164 10.6434 13.3313 10.7379 13.3231 10.7207C13.3231 10.6692 13.2903 10.5617 13.2903 10.5617L13.3928 10.5918L13.3313 10.4715L13.483 10.4887C13.483 10.4887 13.4297 10.3426 13.4461 10.3426L13.5692 10.3512C13.3477 9.93868 13.5569 9.59493 13.6553 9.2254V9.2297Z" fill="#9CA69C" stroke="#9CA69C" stroke-width="0.105469" stroke-linecap="round" stroke-linejoin="round"/>
<path fill-rule="evenodd" clip-rule="evenodd" d="M13.9258 8.46054C13.9258 8.46054 13.9668 8.76992 13.8027 8.85585C13.7822 8.87734 13.6797 8.91171 13.6961 8.97617C13.7125 9.0621 13.7576 9.04492 13.8192 9.02773C13.9873 8.99765 14.1842 8.62382 13.9258 8.46054Z" fill="#9CA69C" stroke="#9CA69C" stroke-width="0.117188"/>
<path fill-rule="evenodd" clip-rule="evenodd" d="M13.6387 8.72266C13.6387 8.73975 13.6322 8.75614 13.6207 8.76823C13.6091 8.78032 13.5935 8.78711 13.5771 8.78711C13.5608 8.78711 13.5452 8.78032 13.5336 8.76823C13.5221 8.75614 13.5156 8.73975 13.5156 8.72266C13.5156 8.70556 13.5221 8.68917 13.5336 8.67708C13.5452 8.66499 13.5608 8.6582 13.5771 8.6582C13.5935 8.6582 13.6091 8.66499 13.6207 8.67708C13.6322 8.68917 13.6387 8.70556 13.6387 8.72266Z" fill="white"/>
<path fill-rule="evenodd" clip-rule="evenodd" d="M13.3892 8.98047C13.3482 9.01914 13.1349 9.25117 13.3482 9.33711C13.5656 9.27695 13.5041 9.23398 13.5533 9.18242C13.5533 9.075 13.4467 9.04922 13.3892 8.98477V8.98047Z" fill="#DE3108" stroke="black" stroke-width="0.117188"/>
<path fill-rule="evenodd" clip-rule="evenodd" d="M13.8603 11.1934C13.848 11.2449 13.7988 11.434 13.8644 11.5801C14.0531 11.4941 14.1392 11.5199 14.2008 11.5629C14.049 11.434 13.9875 11.3781 13.8603 11.1934Z" fill="#9CA69C" stroke="#9CA69C" stroke-width="0.105469" stroke-linecap="round" stroke-linejoin="round"/>
<path fill-rule="evenodd" clip-rule="evenodd" d="M14.1807 12.0785L14.1889 12.5168C14.1889 12.5168 14.3365 12.5426 14.4021 12.5168C14.4678 12.491 14.4021 12.216 14.1807 12.0785Z" fill="white" stroke="white" stroke-width="0.105469" stroke-linecap="round" stroke-linejoin="round"/>
<path fill-rule="evenodd" clip-rule="evenodd" d="M15.2302 12.1344C15.2302 12.1344 14.9636 11.4555 14.2786 11.2836C13.5937 11.1117 13.6839 10.3469 13.7372 10.2996C13.77 10.2352 13.7905 10.132 13.9874 10.2309C14.1843 10.3297 15.0948 10.8066 15.2261 10.8324C15.3573 10.8582 15.2425 12.1516 15.2343 12.1344H15.2302Z" fill="#9CA69C" stroke="black" stroke-width="0.117188"/>
<path fill-rule="evenodd" clip-rule="evenodd" d="M14.5822 11.2793C14.5699 11.2879 15.4969 11.8551 15.218 12.3406C15.4805 12.1558 15.3984 11.8379 15.3984 11.8379C15.3984 11.8379 15.6117 12.4265 15.0867 12.7144C15.1441 12.766 15.1811 12.7574 15.1811 12.7574L15.0908 12.8476C15.0908 12.8476 15.0498 12.9207 15.4025 12.7402C15.3082 12.8219 15.3 12.882 15.3 12.882C15.3 12.882 15.3246 12.9594 15.5543 12.7488C15.3697 12.9594 15.3287 13.0668 15.3287 13.0625C15.8332 13.0195 16.9283 11.3008 14.9842 10.798L15.0703 10.8926L14.5781 11.2793H14.5822Z" fill="#DE3108" stroke="black" stroke-width="0.105469" stroke-linejoin="round"/>
<path fill-rule="evenodd" clip-rule="evenodd" d="M14.6238 11.1117C14.7468 11.2063 14.7919 11.2406 14.8083 11.2836C14.6935 11.2578 14.5909 11.2664 14.5909 11.2664C14.5909 11.2664 14.3408 11.0172 14.2956 10.9957C14.2628 10.9957 14.0659 10.8668 14.0659 10.8668C13.9716 10.8152 13.8814 10.4672 14.2382 10.566C14.3751 10.6408 14.5162 10.7068 14.6607 10.7637L15.0995 10.9098L15.3538 11.2063C15.3538 11.2063 14.9027 10.9742 14.8452 10.9699C14.9683 11.0731 15.038 11.2192 15.038 11.2192C14.8945 11.1762 14.7714 11.1332 14.6238 11.1117Z" fill="white" stroke="black" stroke-width="0.105469" stroke-linecap="round" stroke-linejoin="round"/>
<path d="M12.8682 9.01915C12.8682 9.01915 13.2988 8.90743 13.3521 8.92462" stroke="white" stroke-width="0.105469" stroke-linecap="round"/>
<path fill-rule="evenodd" clip-rule="evenodd" d="M-1.75 18.3348H29.75V22H-1.75V18.3348Z" fill="#DE3908"/>
</g>
</g>
<defs>
<clipPath id="clip0_3488_1297">
<rect width="28" height="22" rx="3" fill="white"/>
</clipPath>
</defs>
</svg>
