<svg width="28" height="22" viewBox="0 0 28 22" fill="none" xmlns="http://www.w3.org/2000/svg">
<g clip-path="url(#clip0_3576_1396)">
<path d="M0 0H28V22H0V0Z" fill="#74ACDF"/>
<path d="M0 7.33331H28V14.6666H0V7.33331Z" fill="white"/>
<path d="M13.8652 11.0572L15.0622 13.7852C15.0622 13.7852 15.0832 13.838 15.1168 13.8248C15.1504 13.8072 15.1294 13.7544 15.1294 13.7544L14.134 10.9384M14.1046 12.0032C14.0878 12.4168 14.3314 12.6456 14.302 13.0152C14.2684 13.3892 14.4616 13.596 14.512 13.7412C14.554 13.8864 14.4616 13.97 14.4994 13.992C14.5414 14.014 14.6254 13.8996 14.6002 13.6928C14.5708 13.4904 14.4238 13.4288 14.4574 12.9756C14.491 12.5224 14.281 12.4168 14.3314 12.0076" fill="#F6B40E"/>
<path d="M13.8652 11.0572L15.0622 13.7852C15.0622 13.7852 15.0832 13.838 15.1168 13.8248C15.1504 13.8072 15.1294 13.7544 15.1294 13.7544L14.134 10.9384M14.1046 12.0032C14.0878 12.4168 14.3314 12.6456 14.302 13.0152C14.2684 13.3892 14.4616 13.596 14.512 13.7412C14.554 13.8864 14.4616 13.97 14.4994 13.992C14.5414 14.014 14.6254 13.8996 14.6002 13.6928C14.5708 13.4904 14.4238 13.4288 14.4574 12.9756C14.491 12.5224 14.281 12.4168 14.3314 12.0076" stroke="#85340A" stroke-width="0.132"/>
<path d="M13.855 10.9989L13.9644 13.9991C13.9644 13.9991 13.9645 14.0563 14.0004 14.0576C14.0379 14.0548 14.0378 13.9976 14.0378 13.9976L14.1468 10.9969M13.7307 11.9689C13.5641 12.3443 13.7055 12.6533 13.5434 12.983C13.3757 13.315 13.4786 13.5836 13.4722 13.7379C13.4579 13.8889 13.342 13.9291 13.3689 13.9646C13.3997 14.0017 13.5191 13.9297 13.5713 13.7286C13.6181 13.5298 13.5048 13.4139 13.7014 13.0087C13.898 12.6035 13.7425 12.4217 13.9386 12.0639" fill="#F6B40E"/>
<path d="M13.855 10.9989L13.9644 13.9991C13.9644 13.9991 13.9645 14.0563 14.0004 14.0576C14.0379 14.0548 14.0378 13.9976 14.0378 13.9976L14.1468 10.9969M13.7307 11.9689C13.5641 12.3443 13.7055 12.6533 13.5434 12.983C13.3757 13.315 13.4786 13.5836 13.4722 13.7379C13.4579 13.8889 13.342 13.9291 13.3689 13.9646C13.3997 14.0017 13.5191 13.9297 13.5713 13.7286C13.6181 13.5298 13.5048 13.4139 13.7014 13.0087C13.898 12.6035 13.7425 12.4217 13.9386 12.0639" stroke="#85340A" stroke-width="0.132"/>
<path d="M13.8661 10.9409L12.8712 13.7566C12.8712 13.7566 12.8504 13.8095 12.8831 13.825C12.9187 13.8375 12.9395 13.7846 12.9395 13.7846L14.1364 11.056M13.3969 11.7871C13.1058 12.0672 13.1236 12.4094 12.8534 12.649C12.5772 12.8885 12.5742 13.1779 12.5119 13.3179C12.4435 13.4517 12.3218 13.4423 12.3337 13.4859C12.3485 13.5326 12.4851 13.5139 12.6069 13.349C12.7227 13.1841 12.6603 13.0316 12.99 12.7361C13.3197 12.4405 13.2424 12.2103 13.5543 11.9583" fill="#F6B40E"/>
<path d="M13.8661 10.9409L12.8712 13.7566C12.8712 13.7566 12.8504 13.8095 12.8831 13.825C12.9187 13.8375 12.9395 13.7846 12.9395 13.7846L14.1364 11.056M13.3969 11.7871C13.1058 12.0672 13.1236 12.4094 12.8534 12.649C12.5772 12.8885 12.5742 13.1779 12.5119 13.3179C12.4435 13.4517 12.3218 13.4423 12.3337 13.4859C12.3485 13.5326 12.4851 13.5139 12.6069 13.349C12.7227 13.1841 12.6603 13.0316 12.99 12.7361C13.3197 12.4405 13.2424 12.2103 13.5543 11.9583" stroke="#85340A" stroke-width="0.132"/>
<path d="M13.8982 10.8918L11.9505 13.0943C11.9505 13.0943 11.9119 13.1348 11.9364 13.1623C11.9648 13.1881 12.0033 13.1475 12.0033 13.1475L14.1058 11.1065M13.1555 11.4855C12.7843 11.6275 12.6758 11.9509 12.3386 12.0638C11.9959 12.1744 11.8875 12.4406 11.7787 12.5449C11.6667 12.6411 11.5576 12.5837 11.5527 12.6287C11.5494 12.6778 11.6824 12.7153 11.8551 12.6118C12.0224 12.5059 12.0205 12.34 12.433 12.1991C12.8455 12.0582 12.8583 11.8145 13.2384 11.7067" fill="#F6B40E"/>
<path d="M13.8982 10.8918L11.9505 13.0943C11.9505 13.0943 11.9119 13.1348 11.9364 13.1623C11.9648 13.1881 12.0033 13.1475 12.0033 13.1475L14.1058 11.1065M13.1555 11.4855C12.7843 11.6275 12.6758 11.9509 12.3386 12.0638C11.9959 12.1744 11.8875 12.4406 11.7787 12.5449C11.6667 12.6411 11.5576 12.5837 11.5527 12.6287C11.5494 12.6778 11.6824 12.7153 11.8551 12.6118C12.0224 12.5059 12.0205 12.34 12.433 12.1991C12.8455 12.0582 12.8583 11.8145 13.2384 11.7067" stroke="#85340A" stroke-width="0.132"/>
<path d="M14.1804 12.0736C14.2014 12.4696 14.4156 12.6456 14.3736 13.0108C14.466 12.7248 14.2434 12.5004 14.256 12.078M13.9326 11.0308L14.7516 12.9052L14.067 10.9736" fill="#85340A"/>
<path d="M13.7744 12.0642C13.6491 12.4385 13.7827 12.687 13.6105 13.0075C13.8004 12.7804 13.6767 12.4838 13.8426 12.0986M13.9264 11.0015L13.9983 13.0615L14.0714 11.0025" fill="#85340A"/>
<path d="M13.4035 11.8929C13.151 12.1885 13.1837 12.4716 12.9075 12.6987C13.1659 12.5649 13.1599 12.2414 13.4539 11.952M13.9321 10.972L13.2461 12.9041L14.0657 11.0311" fill="#85340A"/>
<path d="M13.1228 11.5856C12.7816 11.7575 12.7084 12.0321 12.3702 12.1312C12.6578 12.1112 12.7705 11.8099 13.1479 11.6605M13.9476 10.9467L12.608 12.4567L14.0495 11.0549" fill="#85340A"/>
<path d="M13.9452 10.8592L11.3412 12.1132C11.3412 12.1132 11.2908 12.1352 11.3034 12.1704C11.3202 12.2056 11.3706 12.1836 11.3706 12.1836L14.0586 11.1408M13.0422 11.11C12.6474 11.0924 12.429 11.3476 12.0762 11.3168C11.7192 11.2816 11.5218 11.484 11.3832 11.5368C11.2446 11.5808 11.1648 11.484 11.1438 11.5236C11.1228 11.5676 11.232 11.6556 11.4294 11.6292C11.6226 11.5984 11.6814 11.4444 12.114 11.4796C12.5466 11.5148 12.6474 11.2948 13.038 11.3476" fill="#F6B40E"/>
<path d="M13.9452 10.8592L11.3412 12.1132C11.3412 12.1132 11.2908 12.1352 11.3034 12.1704C11.3202 12.2056 11.3706 12.1836 11.3706 12.1836L14.0586 11.1408M13.0422 11.11C12.6474 11.0924 12.429 11.3476 12.0762 11.3168C11.7192 11.2816 11.5218 11.484 11.3832 11.5368C11.2446 11.5808 11.1648 11.484 11.1438 11.5236C11.1228 11.5676 11.232 11.6556 11.4294 11.6292C11.6226 11.5984 11.6814 11.4444 12.114 11.4796C12.5466 11.5148 12.6474 11.2948 13.038 11.3476" stroke="#85340A" stroke-width="0.132"/>
<path d="M14.0007 10.848L11.1368 10.9626C11.1368 10.9626 11.0822 10.9627 11.081 11.0003C11.0837 11.0396 11.1383 11.0394 11.1383 11.0394L14.0026 11.1537M13.0748 10.7177C12.7165 10.5432 12.4215 10.6914 12.1068 10.5215C11.7898 10.3459 11.5335 10.4537 11.3862 10.4469C11.2421 10.432 11.2037 10.3106 11.1698 10.3388C11.1344 10.371 11.2031 10.4961 11.3951 10.5508C11.5849 10.5998 11.6955 10.4811 12.0823 10.6871C12.4691 10.893 12.6426 10.7302 12.9842 10.9356" fill="#F6B40E"/>
<path d="M14.0007 10.848L11.1368 10.9626C11.1368 10.9626 11.0822 10.9627 11.081 11.0003C11.0837 11.0396 11.1383 11.0394 11.1383 11.0394L14.0026 11.1537M13.0748 10.7177C12.7165 10.5432 12.4215 10.6914 12.1068 10.5215C11.7898 10.3459 11.5335 10.4537 11.3862 10.4469C11.2421 10.432 11.2037 10.3106 11.1698 10.3388C11.1344 10.371 11.2031 10.4961 11.3951 10.5508C11.5849 10.5998 11.6955 10.4811 12.0823 10.6871C12.4691 10.893 12.6426 10.7302 12.9842 10.9356" stroke="#85340A" stroke-width="0.132"/>
<path d="M14.0565 10.86L11.3688 9.81769C11.3688 9.81769 11.3183 9.79591 11.3035 9.83014C11.2916 9.86747 11.3421 9.88925 11.3421 9.88925L13.9466 11.1431M13.2487 10.3684C12.9814 10.0635 12.6548 10.0821 12.4261 9.79902C12.1974 9.50968 11.9212 9.50656 11.7876 9.44123C11.6599 9.36967 11.6688 9.24211 11.6272 9.25455C11.5826 9.27011 11.6005 9.41322 11.7579 9.54079C11.9153 9.66213 12.0608 9.59679 12.3429 9.94214C12.6251 10.2875 12.8448 10.2066 13.0854 10.5333" fill="#F6B40E"/>
<path d="M14.0565 10.86L11.3688 9.81769C11.3688 9.81769 11.3183 9.79591 11.3035 9.83014C11.2916 9.86747 11.3421 9.88925 11.3421 9.88925L13.9466 11.1431M13.2487 10.3684C12.9814 10.0635 12.6548 10.0821 12.4261 9.79902C12.1974 9.50968 11.9212 9.50656 11.7876 9.44123C11.6599 9.36967 11.6688 9.24211 11.6272 9.25455C11.5826 9.27011 11.6005 9.41322 11.7579 9.54079C11.9153 9.66213 12.0608 9.59679 12.3429 9.94214C12.6251 10.2875 12.8448 10.2066 13.0854 10.5333" stroke="#85340A" stroke-width="0.132"/>
<path d="M14.1031 10.8932L12.0007 8.85278C12.0007 8.85278 11.962 8.81241 11.9358 8.83808C11.9112 8.86781 11.9499 8.90817 11.9499 8.90817L13.8981 11.1108M13.5363 10.1152C13.4008 9.72637 13.0922 9.61265 12.9843 9.25939C12.8787 8.90039 12.6247 8.78679 12.5251 8.67285C12.4332 8.55554 12.4881 8.44126 12.4451 8.43609C12.3983 8.4326 12.3625 8.57197 12.4613 8.75292C12.5624 8.92813 12.7207 8.92611 12.8552 9.35828C12.9897 9.79045 13.2223 9.80382 13.3252 10.2021" fill="#F6B40E"/>
<path d="M14.1031 10.8932L12.0007 8.85278C12.0007 8.85278 11.962 8.81241 11.9358 8.83808C11.9112 8.86781 11.9499 8.90817 11.9499 8.90817L13.8981 11.1108M13.5363 10.1152C13.4008 9.72637 13.0922 9.61265 12.9843 9.25939C12.8787 8.90039 12.6247 8.78679 12.5251 8.67285C12.4332 8.55554 12.4881 8.44126 12.4451 8.43609C12.3983 8.4326 12.3625 8.57197 12.4613 8.75292C12.5624 8.92813 12.7207 8.92611 12.8552 9.35828C12.9897 9.79045 13.2223 9.80382 13.3252 10.2021" stroke="#85340A" stroke-width="0.132"/>
<path d="M12.9754 11.1892C12.5974 11.2112 12.4294 11.4356 12.0808 11.3916C12.3538 11.4884 12.568 11.2552 12.9712 11.2684M13.9708 10.9296L12.1816 11.7876L14.0254 11.0704" fill="#85340A"/>
<path d="M12.9839 10.764C12.6267 10.6327 12.3895 10.7727 12.0835 10.5923C12.3003 10.7912 12.5834 10.6616 12.9511 10.8354M13.9984 10.9232L12.032 10.9986L13.9974 11.0752" fill="#85340A"/>
<path d="M13.1477 10.3746C12.8656 10.1102 12.5954 10.1444 12.3786 9.85504C12.5063 10.1257 12.8151 10.1195 13.0913 10.4275M14.0268 10.9284L12.1825 10.2097L13.9704 11.0684" fill="#85340A"/>
<path d="M13.4405 10.0805C13.2765 9.72308 13.0143 9.64635 12.9197 9.29211C12.9388 9.59338 13.2264 9.71146 13.3691 10.1068M14.0504 10.9446L12.609 9.54121L13.9471 11.0513" fill="#85340A"/>
<path d="M14.1348 10.9428L12.9378 8.21485C12.9378 8.21485 12.9168 8.16205 12.8832 8.17525C12.8496 8.19285 12.8706 8.24565 12.8706 8.24565L13.866 11.0616M13.8954 9.99685C13.9122 9.58325 13.6686 9.35445 13.698 8.98485C13.7316 8.61085 13.5384 8.40405 13.488 8.25885C13.446 8.11365 13.5384 8.03005 13.5006 8.00805C13.4586 7.98605 13.3746 8.10045 13.3998 8.30725C13.4292 8.50965 13.5762 8.57125 13.5426 9.02445C13.509 9.47765 13.719 9.58325 13.6686 9.99245" fill="#F6B40E"/>
<path d="M14.1348 10.9428L12.9378 8.21485C12.9378 8.21485 12.9168 8.16205 12.8832 8.17525C12.8496 8.19285 12.8706 8.24565 12.8706 8.24565L13.866 11.0616M13.8954 9.99685C13.9122 9.58325 13.6686 9.35445 13.698 8.98485C13.7316 8.61085 13.5384 8.40405 13.488 8.25885C13.446 8.11365 13.5384 8.03005 13.5006 8.00805C13.4586 7.98605 13.3746 8.10045 13.3998 8.30725C13.4292 8.50965 13.5762 8.57125 13.5426 9.02445C13.509 9.47765 13.719 9.58325 13.6686 9.99245" stroke="#85340A" stroke-width="0.132"/>
<path d="M14.145 11.0011L14.0356 8.00086C14.0356 8.00086 14.0355 7.94365 13.9996 7.94238C13.9621 7.94517 13.9622 8.00237 13.9622 8.00237L13.8532 11.0031M14.2693 10.0311C14.4359 9.65574 14.2945 9.34669 14.4566 9.01701C14.6243 8.68495 14.5214 8.41644 14.5278 8.26208C14.5421 8.1111 14.658 8.07091 14.6311 8.03543C14.6003 7.99826 14.4809 8.07028 14.4287 8.27144C14.3819 8.47022 14.4952 8.58606 14.2986 8.9913C14.102 9.39653 14.2575 9.57828 14.0614 9.93613" fill="#F6B40E"/>
<path d="M14.145 11.0011L14.0356 8.00086C14.0356 8.00086 14.0355 7.94365 13.9996 7.94238C13.9621 7.94517 13.9622 8.00237 13.9622 8.00237L13.8532 11.0031M14.2693 10.0311C14.4359 9.65574 14.2945 9.34669 14.4566 9.01701C14.6243 8.68495 14.5214 8.41644 14.5278 8.26208C14.5421 8.1111 14.658 8.07091 14.6311 8.03543C14.6003 7.99826 14.4809 8.07028 14.4287 8.27144C14.3819 8.47022 14.4952 8.58606 14.2986 8.9913C14.102 9.39653 14.2575 9.57828 14.0614 9.93613" stroke="#85340A" stroke-width="0.132"/>
<path d="M14.1339 11.0591L15.1288 8.24342C15.1288 8.24342 15.1496 8.19053 15.1169 8.17498C15.0813 8.16253 15.0605 8.21542 15.0605 8.21542L13.8636 10.944M14.6031 10.2129C14.8942 9.93284 14.8764 9.5906 15.1466 9.35104C15.4228 9.11147 15.4258 8.82212 15.4881 8.68211C15.5565 8.54833 15.6782 8.55766 15.6663 8.5141C15.6515 8.46744 15.5149 8.4861 15.3931 8.651C15.2773 8.8159 15.3397 8.96835 15.01 9.26392C14.6803 9.55949 14.7576 9.78973 14.4457 10.0417" fill="#F6B40E"/>
<path d="M14.1339 11.0591L15.1288 8.24342C15.1288 8.24342 15.1496 8.19053 15.1169 8.17498C15.0813 8.16253 15.0605 8.21542 15.0605 8.21542L13.8636 10.944M14.6031 10.2129C14.8942 9.93284 14.8764 9.5906 15.1466 9.35104C15.4228 9.11147 15.4258 8.82212 15.4881 8.68211C15.5565 8.54833 15.6782 8.55766 15.6663 8.5141C15.6515 8.46744 15.5149 8.4861 15.3931 8.651C15.2773 8.8159 15.3397 8.96835 15.01 9.26392C14.6803 9.55949 14.7576 9.78973 14.4457 10.0417" stroke="#85340A" stroke-width="0.132"/>
<path d="M14.1018 11.1082L16.0495 8.90572C16.0495 8.90572 16.0881 8.86519 16.0636 8.83772C16.0352 8.81193 15.9967 8.85246 15.9967 8.85246L13.8942 10.8935M14.8445 10.5145C15.2157 10.3725 15.3242 10.0491 15.6614 9.93616C16.0041 9.82556 16.1125 9.55943 16.2213 9.45508C16.3333 9.35886 16.4424 9.4163 16.4473 9.3713C16.4506 9.32223 16.3176 9.28471 16.1449 9.38824C15.9776 9.49415 15.9795 9.66 15.567 9.80091C15.1545 9.94182 15.1417 10.1855 14.7616 10.2933" fill="#F6B40E"/>
<path d="M14.1018 11.1082L16.0495 8.90572C16.0495 8.90572 16.0881 8.86519 16.0636 8.83772C16.0352 8.81193 15.9967 8.85246 15.9967 8.85246L13.8942 10.8935M14.8445 10.5145C15.2157 10.3725 15.3242 10.0491 15.6614 9.93616C16.0041 9.82556 16.1125 9.55943 16.2213 9.45508C16.3333 9.35886 16.4424 9.4163 16.4473 9.3713C16.4506 9.32223 16.3176 9.28471 16.1449 9.38824C15.9776 9.49415 15.9795 9.66 15.567 9.80091C15.1545 9.94182 15.1417 10.1855 14.7616 10.2933" stroke="#85340A" stroke-width="0.132"/>
<path d="M13.8196 9.92643C13.7986 9.53043 13.5844 9.35443 13.6264 8.98923C13.534 9.27523 13.7566 9.49963 13.744 9.92203M14.0674 10.9692L13.2484 9.09483L13.933 11.0264" fill="#85340A"/>
<path d="M14.2256 9.93578C14.3509 9.5615 14.2173 9.31303 14.3895 8.99246C14.1996 9.21965 14.3233 9.51621 14.1574 9.90141M14.0736 10.9985L14.0017 8.93848L13.9286 10.9975" fill="#85340A"/>
<path d="M14.5965 10.1071C14.849 9.81153 14.8163 9.5284 15.0925 9.30128C14.8341 9.43506 14.8401 9.75864 14.5461 10.048M14.0679 11.028L14.7539 9.09594L13.9343 10.9689" fill="#85340A"/>
<path d="M14.8772 10.4144C15.2184 10.2425 15.2916 9.96787 15.6298 9.86876C15.3422 9.88878 15.2295 10.1901 14.8521 10.3395M14.0524 11.0533L15.392 9.54332L13.9505 10.9451" fill="#85340A"/>
<path d="M14.0548 11.1408L16.6588 9.88681C16.6588 9.88681 16.7092 9.86481 16.6966 9.82961C16.6798 9.79441 16.6294 9.81641 16.6294 9.81641L13.9414 10.8592M14.9578 10.89C15.3526 10.9076 15.571 10.6524 15.9238 10.6832C16.2808 10.7184 16.4782 10.516 16.6168 10.4632C16.7554 10.4192 16.8352 10.516 16.8562 10.4764C16.8772 10.4324 16.768 10.3444 16.5706 10.3708C16.3774 10.4016 16.3186 10.5556 15.886 10.5204C15.4534 10.4852 15.3526 10.7052 14.962 10.6524" fill="#F6B40E"/>
<path d="M14.0548 11.1408L16.6588 9.88681C16.6588 9.88681 16.7092 9.86481 16.6966 9.82961C16.6798 9.79441 16.6294 9.81641 16.6294 9.81641L13.9414 10.8592M14.9578 10.89C15.3526 10.9076 15.571 10.6524 15.9238 10.6832C16.2808 10.7184 16.4782 10.516 16.6168 10.4632C16.7554 10.4192 16.8352 10.516 16.8562 10.4764C16.8772 10.4324 16.768 10.3444 16.5706 10.3708C16.3774 10.4016 16.3186 10.5556 15.886 10.5204C15.4534 10.4852 15.3526 10.7052 14.962 10.6524" stroke="#85340A" stroke-width="0.132"/>
<path d="M13.9993 11.152L16.8632 11.0374C16.8632 11.0374 16.9178 11.0373 16.919 10.9997C16.9163 10.9604 16.8617 10.9606 16.8617 10.9606L13.9974 10.8463M14.9252 11.2823C15.2835 11.4568 15.5785 11.3086 15.8932 11.4785C16.2102 11.6541 16.4665 11.5463 16.6138 11.5531C16.7579 11.568 16.7963 11.6894 16.8302 11.6612C16.8656 11.629 16.7969 11.5039 16.6049 11.4492C16.4151 11.4002 16.3045 11.5189 15.9177 11.3129C15.5309 11.107 15.3574 11.2698 15.0158 11.0644" fill="#F6B40E"/>
<path d="M13.9993 11.152L16.8632 11.0374C16.8632 11.0374 16.9178 11.0373 16.919 10.9997C16.9163 10.9604 16.8617 10.9606 16.8617 10.9606L13.9974 10.8463M14.9252 11.2823C15.2835 11.4568 15.5785 11.3086 15.8932 11.4785C16.2102 11.6541 16.4665 11.5463 16.6138 11.5531C16.7579 11.568 16.7963 11.6894 16.8302 11.6612C16.8656 11.629 16.7969 11.5039 16.6049 11.4492C16.4151 11.4002 16.3045 11.5189 15.9177 11.3129C15.5309 11.107 15.3574 11.2698 15.0158 11.0644" stroke="#85340A" stroke-width="0.132"/>
<path d="M13.9435 11.14L16.6312 12.1823C16.6312 12.1823 16.6817 12.2041 16.6965 12.1699C16.7084 12.1325 16.6579 12.1108 16.6579 12.1108L14.0534 10.8569M14.7513 11.6316C15.0186 11.9365 15.3452 11.9179 15.5739 12.201C15.8026 12.4903 16.0788 12.4934 16.2124 12.5588C16.3401 12.6303 16.3312 12.7579 16.3728 12.7454C16.4174 12.7299 16.3995 12.5868 16.2421 12.4592C16.0847 12.3379 15.9392 12.4032 15.6571 12.0579C15.3749 11.7125 15.1552 11.7934 14.9146 11.4667" fill="#F6B40E"/>
<path d="M13.9435 11.14L16.6312 12.1823C16.6312 12.1823 16.6817 12.2041 16.6965 12.1699C16.7084 12.1325 16.6579 12.1108 16.6579 12.1108L14.0534 10.8569M14.7513 11.6316C15.0186 11.9365 15.3452 11.9179 15.5739 12.201C15.8026 12.4903 16.0788 12.4934 16.2124 12.5588C16.3401 12.6303 16.3312 12.7579 16.3728 12.7454C16.4174 12.7299 16.3995 12.5868 16.2421 12.4592C16.0847 12.3379 15.9392 12.4032 15.6571 12.0579C15.3749 11.7125 15.1552 11.7934 14.9146 11.4667" stroke="#85340A" stroke-width="0.132"/>
<path d="M13.8969 11.1068L15.9993 13.1472C15.9993 13.1472 16.038 13.1876 16.0642 13.1619C16.0888 13.1322 16.0501 13.0918 16.0501 13.0918L14.1019 10.8892M14.4637 11.8848C14.5992 12.2736 14.9078 12.3874 15.0157 12.7406C15.1213 13.0996 15.3753 13.2132 15.4749 13.3272C15.5668 13.4445 15.5119 13.5587 15.5549 13.5639C15.6017 13.5674 15.6375 13.428 15.5387 13.2471C15.4376 13.0719 15.2793 13.0739 15.1448 12.6417C15.0103 12.2095 14.7777 12.1962 14.6748 11.7979" fill="#F6B40E"/>
<path d="M13.8969 11.1068L15.9993 13.1472C15.9993 13.1472 16.038 13.1876 16.0642 13.1619C16.0888 13.1322 16.0501 13.0918 16.0501 13.0918L14.1019 10.8892M14.4637 11.8848C14.5992 12.2736 14.9078 12.3874 15.0157 12.7406C15.1213 13.0996 15.3753 13.2132 15.4749 13.3272C15.5668 13.4445 15.5119 13.5587 15.5549 13.5639C15.6017 13.5674 15.6375 13.428 15.5387 13.2471C15.4376 13.0719 15.2793 13.0739 15.1448 12.6417C15.0103 12.2095 14.7777 12.1962 14.6748 11.7979" stroke="#85340A" stroke-width="0.132"/>
<path d="M15.0246 10.8108C15.4026 10.7888 15.5706 10.5644 15.9192 10.6084C15.6462 10.5116 15.432 10.7448 15.0288 10.7316M14.0292 11.0704L15.8184 10.2124L13.9746 10.9296" fill="#85340A"/>
<path d="M15.0161 11.236C15.3733 11.3673 15.6105 11.2273 15.9165 11.4077C15.6997 11.2088 15.4166 11.3384 15.0489 11.1646M14.0016 11.0768L15.968 11.0014L14.0026 10.9248" fill="#85340A"/>
<path d="M14.8523 11.6254C15.1344 11.8898 15.4046 11.8556 15.6214 12.145C15.4937 11.8743 15.1849 11.8805 14.9087 11.5725M13.9732 11.0716L15.8175 11.7903L14.0296 10.9316" fill="#85340A"/>
<path d="M14.5595 11.9195C14.7235 12.2769 14.9857 12.3537 15.0803 12.7079C15.0612 12.4066 14.7736 12.2885 14.6309 11.8932M13.9496 11.0554L15.391 12.4588L14.0529 10.9487" fill="#85340A"/>
<path d="M14.0002 12.2237C14.6453 12.2237 15.1683 11.6759 15.1683 11C15.1683 10.3241 14.6453 9.77625 14.0002 9.77625C13.355 9.77625 12.832 10.3241 12.832 11C12.832 11.6759 13.355 12.2237 14.0002 12.2237Z" fill="#F6B40E" stroke="#85340A" stroke-width="0.175"/>
<path d="M14.3941 10.7388C14.3198 10.7388 14.241 10.7754 14.1973 10.8488C14.2848 10.9359 14.486 10.9404 14.6216 10.8396C14.593 10.8077 14.5584 10.7824 14.52 10.765C14.4817 10.7477 14.4403 10.7387 14.3985 10.7388H14.3941ZM14.3941 10.7571C14.4729 10.7571 14.5473 10.7938 14.556 10.8304C14.4685 10.9359 14.3241 10.9221 14.2323 10.8488C14.276 10.7846 14.3373 10.7571 14.3985 10.7571H14.3941Z" fill="#843511"/>
<path d="M14.411 10.6791C14.2929 10.6791 14.2666 10.7066 14.2141 10.7571C14.1616 10.8029 14.131 10.7937 14.1266 10.8029C14.1135 10.8121 14.1266 10.8396 14.1398 10.8304C14.1616 10.8212 14.1966 10.8029 14.2491 10.7571C14.3016 10.7112 14.3585 10.7112 14.411 10.7112C14.5729 10.7112 14.6604 10.8487 14.6779 10.8396C14.6998 10.8304 14.5904 10.6791 14.411 10.6791Z" fill="#85340A"/>
<path d="M14.7354 10.7388C14.5297 10.5508 14.2672 10.5188 14.1229 10.6608C14.0896 10.7067 14.0671 10.76 14.0572 10.8167C14.0397 10.9267 14.0704 11.0413 14.1491 11.1604L14.1141 11.1788C14.0441 11.0367 14.0179 10.89 14.0441 10.7479L14.0704 10.6425C14.2672 10.4729 14.5385 10.4592 14.7354 10.7342V10.7388Z" fill="#85340A"/>
<path d="M14.3942 10.9129C14.4377 10.9129 14.4729 10.876 14.4729 10.8304C14.4729 10.7849 14.4377 10.7479 14.3942 10.7479C14.3507 10.7479 14.3154 10.7849 14.3154 10.8304C14.3154 10.876 14.3507 10.9129 14.3942 10.9129Z" fill="#85340A"/>
<path d="M14.626 10.8854C14.4729 11.0091 14.3197 11 14.2322 10.945C14.1447 10.8854 14.1447 10.8671 14.1622 10.8671C14.1797 10.8671 14.1972 10.8854 14.2672 10.9266C14.3416 10.9633 14.4466 10.9633 14.626 10.8854Z" fill="#85340A"/>
<path d="M13.8246 11.1696C13.8125 11.1726 13.8012 11.1786 13.7917 11.187C13.7822 11.1955 13.7747 11.2063 13.77 11.2184C13.7652 11.2304 13.7632 11.2436 13.7643 11.2566C13.7653 11.2696 13.7693 11.2822 13.7758 11.2934C13.7824 11.3045 13.7914 11.3138 13.8021 11.3205C13.8128 11.3273 13.8249 11.3313 13.8374 11.3322C13.8499 11.333 13.8623 11.3308 13.8738 11.3257C13.8853 11.3205 13.8954 11.3125 13.9034 11.3025C13.9323 11.3212 13.9657 11.3308 13.9996 11.33H14.0084C14.0346 11.33 14.0784 11.3254 14.109 11.3025C14.1221 11.3254 14.1484 11.3346 14.1746 11.3346C14.1955 11.3364 14.2163 11.3294 14.2323 11.3153C14.2483 11.3011 14.2582 11.2808 14.26 11.2589C14.2617 11.2371 14.2551 11.2153 14.2415 11.1986C14.228 11.1818 14.2087 11.1714 14.1878 11.1696C14.2096 11.1787 14.2228 11.1971 14.2228 11.2246C14.2228 11.2391 14.2172 11.2531 14.2074 11.2634C14.1976 11.2738 14.1842 11.2796 14.1703 11.2796C14.1563 11.2796 14.143 11.2738 14.1332 11.2634C14.1233 11.2531 14.1178 11.2391 14.1178 11.2246C14.1074 11.2472 14.0913 11.2664 14.0713 11.2801C14.0512 11.2939 14.028 11.3016 14.004 11.3025C13.9808 11.3008 13.9585 11.2927 13.9393 11.279C13.9201 11.2653 13.9047 11.2465 13.8946 11.2246C13.8946 11.2566 13.8684 11.2796 13.8378 11.2796C13.8115 11.2796 13.7853 11.2521 13.7853 11.2246C13.7853 11.1971 13.7984 11.1787 13.8203 11.1696H13.8246ZM13.9121 11.4171C13.8203 11.4171 13.7809 11.5087 13.7021 11.5591C13.7459 11.5408 13.7809 11.5041 13.8465 11.4675C13.9078 11.4308 13.9603 11.4766 13.9996 11.4766C14.0346 11.4766 14.0871 11.4308 14.1528 11.4675C14.214 11.5041 14.2534 11.5408 14.2971 11.5591C14.214 11.5041 14.179 11.4216 14.0871 11.4216C14.0696 11.4216 14.0346 11.4308 13.9996 11.4491L13.9121 11.4171Z" fill="#85340A"/>
<path d="M13.8773 11.5317C13.8423 11.5317 13.7985 11.5408 13.7285 11.5592C13.8904 11.5225 13.9254 11.5821 13.9998 11.5821C14.0698 11.5821 14.1091 11.5225 14.2666 11.5592C14.0916 11.5042 14.0523 11.5408 13.9998 11.5408C13.9648 11.5408 13.9385 11.5271 13.8773 11.5317Z" fill="#85340A"/>
<path d="M13.7371 11.5592H13.7021C13.8903 11.5821 13.8028 11.6967 13.9996 11.6967C14.1965 11.6967 14.109 11.5821 14.2971 11.5592C14.1003 11.5408 14.1615 11.6646 13.9996 11.6646C13.8465 11.6646 13.8946 11.5592 13.7371 11.5592Z" fill="#85340A"/>
<path d="M14.1616 11.8662C14.1616 11.8213 14.1446 11.7781 14.1142 11.7463C14.0839 11.7145 14.0427 11.6967 13.9998 11.6967C13.9568 11.6967 13.9157 11.7145 13.8853 11.7463C13.8549 11.7781 13.8379 11.8213 13.8379 11.8662C13.8464 11.828 13.8671 11.7939 13.8965 11.7695C13.9259 11.7451 13.9623 11.7318 13.9998 11.7318C14.0373 11.7318 14.0737 11.7451 14.1031 11.7695C14.1324 11.7939 14.1531 11.828 14.1616 11.8662Z" fill="#85340A"/>
<path d="M13.2734 10.7388C13.4791 10.5508 13.7416 10.5188 13.8859 10.6608C13.9192 10.7067 13.9417 10.76 13.9516 10.8167C13.9691 10.9267 13.9384 11.0413 13.8597 11.1604L13.8947 11.1788C13.9647 11.0367 13.9909 10.89 13.9647 10.7479L13.9384 10.6425C13.7416 10.4729 13.4703 10.4592 13.2734 10.7342V10.7388Z" fill="#85340A"/>
<path d="M13.5978 10.6791C13.7159 10.6791 13.7421 10.7066 13.7946 10.7571C13.8471 10.8029 13.8778 10.7937 13.8821 10.8029C13.8953 10.8121 13.8821 10.8396 13.869 10.8304C13.8471 10.8212 13.8121 10.8029 13.7596 10.7571C13.7071 10.7112 13.6503 10.7112 13.5978 10.7112C13.4359 10.7112 13.3484 10.8487 13.3309 10.8396C13.309 10.8304 13.4184 10.6791 13.5978 10.6791Z" fill="#85340A"/>
<path d="M13.5885 10.7388C13.5141 10.7388 13.4354 10.7754 13.3916 10.8488C13.4791 10.9359 13.6804 10.9404 13.816 10.8396C13.7873 10.8077 13.7527 10.7824 13.7144 10.765C13.676 10.7477 13.6346 10.7387 13.5929 10.7388H13.5885ZM13.5885 10.7571C13.6672 10.7571 13.7416 10.7938 13.7504 10.8304C13.6629 10.9359 13.5185 10.9221 13.4266 10.8488C13.4704 10.7846 13.5316 10.7571 13.5929 10.7571H13.5885Z" fill="#843511"/>
<path d="M13.6022 10.9129C13.6457 10.9129 13.6809 10.876 13.6809 10.8304C13.6809 10.7849 13.6457 10.7479 13.6022 10.7479C13.5587 10.7479 13.5234 10.7849 13.5234 10.8304C13.5234 10.876 13.5587 10.9129 13.6022 10.9129Z" fill="#85340A"/>
<path d="M13.3828 10.8854C13.5359 11.0091 13.6891 11 13.7766 10.945C13.8641 10.8854 13.8641 10.8671 13.8466 10.8671C13.8291 10.8671 13.8116 10.8854 13.7416 10.9266C13.6672 10.9633 13.5622 10.9633 13.3828 10.8854Z" fill="#85340A"/>
</g>
<defs>
<clipPath id="clip0_3576_1396">
<rect width="28" height="22" rx="3" fill="white"/>
</clipPath>
</defs>
</svg>
