<?xml version="1.0" encoding="UTF-8"?>
<svg id="Layer_1" data-name="Layer 1" xmlns="http://www.w3.org/2000/svg" viewBox="0 0 368.44 154.68">
  <defs>
    <style>
      .cls-1, .cls-2 {
        stroke-width: 0px;
      }

      .cls-2 {
        fill: #fff;
      }
    </style>
  </defs>
  <path class="cls-1" d="M88.26,88.58h-44.07v21.89h44.2v-22.03l-.13.13ZM0,0v154.68h97.72l34.87-34.79V0H0ZM110.5,66.34l-22.03,22.03h22.03v21.97l-22.24,22.24H22.09v-44.2h22.1v-21.89h44.2v-22.31h-44.2v22.1h-22.1V22.07h66.17l22.24,22.24v22.04ZM88.39,88.44l.07-.07h-.07v.07ZM44.19,88.58v21.89h44.2v-22.03l-.13.13h-44.07Z"/>
  <polygon class="cls-2" points="88.46 88.37 88.39 88.44 88.39 88.37 88.46 88.37"/>
  <polygon class="cls-2" points="88.46 88.37 88.39 88.44 88.39 88.37 88.46 88.37"/>
  <g>
    <path class="cls-2" d="M104.53,12.79v1.25h1.91v5.39h1.41v-5.39h1.91v-1.25h-5.23Z"/>
    <path class="cls-2" d="M116.07,12.79l-1.83,4.9-1.83-4.9h-1.83v6.64h1.33v-4.48l1.74,4.48h1.16l1.74-4.48v4.48h1.33v-6.64h-1.83Z"/>
  </g>
  <g>
    <path class="cls-1" d="M209.07,51.5c-1.99-1.87-4.8-3.04-8.44-3.5,3.08-.56,5.46-1.78,7.14-3.64,1.68-1.87,2.52-4.32,2.52-7.35,0-4.11-1.57-7.28-4.69-9.52-3.12-2.24-7.53-3.36-13.23-3.36h-18.62v49h19.53c5.97,0,10.59-1.23,13.86-3.68,3.27-2.45,4.9-5.82,4.9-10.11,0-3.36-.99-5.98-2.97-7.84ZM184.26,32.39h8.4c2.24,0,3.99.54,5.25,1.61s1.89,2.52,1.89,4.34-.63,3.27-1.89,4.34c-1.26,1.08-3.01,1.61-5.25,1.61h-8.4v-11.9ZM199.2,63.19c-1.38,1.07-3.33,1.61-5.85,1.61h-9.1v-12.39h9.1c2.47,0,4.41.55,5.81,1.64,1.4,1.1,2.1,2.65,2.1,4.66s-.69,3.41-2.06,4.48Z"/>
    <rect class="cls-1" x="218.21" y="37.15" width="9.87" height="35.98"/>
    <path class="cls-1" d="M265.95,40.65c-2.71-2.61-6.16-3.92-10.36-3.92-2.61,0-4.8.43-6.58,1.29-1.77.87-3.29,2.07-4.55,3.61l-.91-4.48h-8.61v35.98h9.87v-18.41c0-3.12.7-5.55,2.1-7.28,1.4-1.73,3.38-2.59,5.95-2.59,4.85,0,7.28,3.1,7.28,9.31v18.97h9.87v-19.53c0-6.02-1.36-10.34-4.06-12.95Z"/>
    <path class="cls-1" d="M310.54,64.8c-.79,0-1.37-.16-1.75-.49-.37-.33-.56-.93-.56-1.82v-12.67c0-4.25-1.39-7.49-4.17-9.73-2.78-2.24-6.71-3.36-11.8-3.36s-8.75,1.02-11.69,3.04c-2.94,2.03-4.57,4.89-4.9,8.58h9.52c.23-1.35.93-2.43,2.1-3.22,1.17-.79,2.66-1.19,4.48-1.19,2.05,0,3.69.48,4.9,1.44,1.21.96,1.82,2.25,1.82,3.88v1.75h-7.14c-5.37,0-9.46,1.04-12.29,3.11-2.82,2.08-4.24,5.03-4.24,8.86,0,3.36,1.23,5.96,3.68,7.8,2.45,1.84,5.68,2.77,9.7,2.77,2.71,0,5.02-.54,6.93-1.61,1.91-1.07,3.53-2.63,4.83-4.69-.1,3.92,2.12,5.88,6.65,5.88h5.04v-8.33h-1.12ZM298.51,58.29c-.05,2.47-.82,4.45-2.31,5.92s-3.52,2.21-6.09,2.21c-1.63,0-2.93-.37-3.88-1.12-.96-.75-1.43-1.75-1.43-3.01,0-1.49.57-2.65,1.72-3.47,1.14-.82,2.74-1.23,4.79-1.23h7.21v.7Z"/>
    <path class="cls-1" d="M335.75,37.15c-2.66,0-4.78.45-6.37,1.36-1.59.91-2.92,2.25-3.99,4.03l-.91-5.39h-8.96v35.98h9.87v-17.64c0-2.89.65-5.18,1.96-6.86,1.31-1.68,3.36-2.52,6.16-2.52h3.92v-8.96h-1.68Z"/>
    <rect class="cls-1" x="341.84" y="37.15" width="9.87" height="35.98"/>
    <rect class="cls-1" x="358.57" y="37.15" width="9.87" height="35.98"/>
    <g>
      <path class="cls-1" d="M172.99,84.91v49h9.87v-49h-9.87Z"/>
      <path class="cls-1" d="M224.02,125.58c-.8,0-1.38-.16-1.75-.49-.37-.33-.56-.93-.56-1.82v-12.67c0-4.25-1.39-7.49-4.17-9.73-2.78-2.24-6.71-3.36-11.8-3.36s-8.75,1.01-11.69,3.04c-2.94,2.03-4.57,4.89-4.9,8.58h9.52c.23-1.35.93-2.43,2.1-3.22,1.17-.79,2.66-1.19,4.48-1.19,2.05,0,3.69.48,4.9,1.43,1.21.96,1.82,2.25,1.82,3.88v1.75h-7.14c-5.37,0-9.46,1.04-12.29,3.12-2.82,2.07-4.24,5.03-4.24,8.86,0,3.36,1.22,5.96,3.67,7.8,2.45,1.84,5.68,2.77,9.7,2.77,2.71,0,5.01-.54,6.93-1.61,1.91-1.07,3.52-2.64,4.83-4.69-.1,3.92,2.12,5.88,6.65,5.88h5.04v-8.33h-1.12ZM211.98,119.07c-.05,2.47-.82,4.44-2.31,5.91-1.49,1.47-3.52,2.21-6.09,2.21-1.63,0-2.93-.38-3.88-1.12-.96-.75-1.44-1.75-1.44-3.01,0-1.49.58-2.65,1.72-3.46,1.15-.82,2.74-1.23,4.8-1.23h7.21v.7Z"/>
      <path class="cls-1" d="M264.24,106.08c-1.42-2.78-3.39-4.9-5.92-6.37-2.52-1.47-5.39-2.21-8.61-2.21-4.48,0-8.1,1.65-10.85,4.97v-17.57h-9.87v49h8.61l.98-4.9c1.21,1.63,2.76,2.93,4.62,3.88,1.86.96,4.06,1.44,6.58,1.44,3.17,0,6.02-.77,8.54-2.31,2.52-1.54,4.49-3.71,5.92-6.51,1.42-2.8,2.13-6.02,2.13-9.66s-.71-6.99-2.13-9.77ZM253.91,123.41c-1.63,1.91-3.78,2.87-6.44,2.87s-4.78-.96-6.37-2.87c-1.59-1.91-2.38-4.44-2.38-7.56s.79-5.57,2.38-7.46c1.59-1.89,3.71-2.83,6.37-2.83s4.81.96,6.44,2.87c1.63,1.91,2.45,4.41,2.45,7.49s-.82,5.57-2.45,7.49Z"/>
      <path class="cls-1" d="M299.8,114.83c-2.59-1.52-6.31-2.56-11.16-3.11-2.29-.23-3.92-.44-4.9-.63-.98-.18-1.78-.49-2.38-.91-.6-.42-.91-1.05-.91-1.89,0-1.17.57-2.1,1.72-2.8s2.65-1.05,4.52-1.05c2.01,0,3.65.43,4.94,1.3,1.28.86,2,1.97,2.13,3.32h9.38c-.23-3.64-1.86-6.48-4.86-8.54-3.01-2.05-6.97-3.1-11.87-3.15-3.03,0-5.72.49-8.05,1.47-2.33.98-4.14,2.37-5.43,4.17s-1.92,3.86-1.92,6.2.63,4.2,1.89,5.6c1.26,1.4,2.94,2.43,5.04,3.08,2.1.65,4.74,1.19,7.91,1.61,2.33.28,4.01.53,5.04.74,1.03.21,1.82.55,2.38,1.02.56.47.84,1.16.84,2.1,0,1.26-.61,2.23-1.82,2.9-1.21.68-2.87,1.02-4.97,1.02s-3.99-.49-5.39-1.47-2.17-2.26-2.31-3.85h-9.38c.18,3.83,1.84,6.85,4.97,9.07,3.12,2.22,7.19,3.33,12.18,3.33,3.22,0,6.05-.48,8.5-1.44,2.45-.96,4.36-2.32,5.74-4.09,1.38-1.77,2.06-3.83,2.06-6.16,0-3.69-1.29-6.29-3.88-7.8Z"/>
    </g>
    <rect class="cls-1" x="218.21" y="23.43" width="9.87" height="9.87"/>
    <rect class="cls-1" x="341.84" y="23.43" width="9.87" height="9.87"/>
    <rect class="cls-1" x="358.57" y="23.43" width="9.87" height="9.87"/>
  </g>
</svg>