<svg width="30" height="22" viewBox="0 0 30 22" fill="none" xmlns="http://www.w3.org/2000/svg">
<g clip-path="url(#clip0_4049_1329)">
<path d="M0 0H29.3333V7.33333H0V0Z" fill="#FF9933"/>
<path d="M0 7.33398H29.3333V14.6673H0V7.33398Z" fill="white"/>
<path d="M0 14.666H29.3333V21.9993H0V14.666Z" fill="#128807"/>
<path d="M14.6677 13.9331C16.2877 13.9331 17.601 12.6198 17.601 10.9997C17.601 9.3797 16.2877 8.06641 14.6677 8.06641C13.0477 8.06641 11.7344 9.3797 11.7344 10.9997C11.7344 12.6198 13.0477 13.9331 14.6677 13.9331Z" fill="#000088"/>
<path d="M14.6682 13.565C16.0858 13.565 17.2349 12.4158 17.2349 10.9983C17.2349 9.58078 16.0858 8.43164 14.6682 8.43164C13.2507 8.43164 12.1016 9.58078 12.1016 10.9983C12.1016 12.4158 13.2507 13.565 14.6682 13.565Z" fill="white"/>
<path d="M14.6657 11.513C14.9492 11.513 15.179 11.2832 15.179 10.9997C15.179 10.7162 14.9492 10.4863 14.6657 10.4863C14.3822 10.4863 14.1523 10.7162 14.1523 10.9997C14.1523 11.2832 14.3822 11.513 14.6657 11.513Z" fill="#000088"/>
<path d="M17.1941 11.4665C17.2663 11.476 17.3327 11.4251 17.3422 11.3528C17.3517 11.2806 17.3008 11.2142 17.2285 11.2047C17.1562 11.1952 17.0899 11.2461 17.0804 11.3184C17.0709 11.3906 17.1218 11.457 17.1941 11.4665Z" fill="#000088"/>
<path d="M14.6661 13.5663L14.7541 12.0263L14.6661 11.293L14.5781 12.0263L14.6661 13.5663Z" fill="#000088"/>
<path d="M16.9897 12.105C17.057 12.1329 17.1342 12.1009 17.1621 12.0335C17.19 11.9662 17.1581 11.889 17.0907 11.8611C17.0233 11.8332 16.9461 11.8651 16.9182 11.9325C16.8903 11.9999 16.9223 12.0771 16.9897 12.105Z" fill="#000088"/>
<path d="M14.0044 13.4784L14.488 12.0137L14.5928 11.2825L14.318 11.9681L14.0044 13.4784Z" fill="#000088"/>
<path d="M16.6198 12.6668C16.6776 12.7111 16.7605 12.7002 16.8049 12.6424C16.8492 12.5846 16.8383 12.5017 16.7805 12.4573C16.7227 12.4129 16.6398 12.4238 16.5954 12.4817C16.551 12.5395 16.562 12.6224 16.6198 12.6668Z" fill="#000088"/>
<path d="M13.3849 13.2217L14.2311 11.9321L14.5215 11.253L14.0786 11.8441L13.3849 13.2217Z" fill="#000088"/>
<path d="M16.1209 13.117C16.1653 13.1748 16.2482 13.1857 16.306 13.1414C16.3638 13.097 16.3747 13.0141 16.3304 12.9563C16.286 12.8984 16.2031 12.8875 16.1453 12.9319C16.0874 12.9763 16.0765 13.0592 16.1209 13.117Z" fill="#000088"/>
<path d="M12.8493 12.8142L14.0004 11.7875L14.4568 11.2068L13.876 11.6631L12.8493 12.8142Z" fill="#000088"/>
<path d="M15.5254 13.4222C15.5533 13.4896 15.6305 13.5215 15.6978 13.4936C15.7652 13.4657 15.7972 13.3885 15.7693 13.3212C15.7414 13.2538 15.6642 13.2218 15.5968 13.2497C15.5294 13.2776 15.4975 13.3548 15.5254 13.4222Z" fill="#000088"/>
<path d="M12.4463 12.2832L13.824 11.5894L14.4151 11.1465L13.736 11.437L12.4463 12.2832Z" fill="#000088"/>
<path d="M14.8727 13.5618C14.8822 13.6341 14.9485 13.685 15.0208 13.6755C15.0931 13.6659 15.1439 13.5996 15.1344 13.5274C15.1249 13.4551 15.0586 13.4042 14.9863 13.4137C14.914 13.4232 14.8632 13.4895 14.8727 13.5618Z" fill="#000088"/>
<path d="M12.1902 11.6636L13.7005 11.35L14.3861 11.0752L13.6549 11.18L12.1902 11.6636Z" fill="#000088"/>
<path d="M14.2015 13.5281C14.192 13.6003 14.2429 13.6666 14.3151 13.6762C14.3874 13.6857 14.4537 13.6348 14.4632 13.5625C14.4728 13.4902 14.4219 13.4239 14.3496 13.4144C14.2773 13.4049 14.211 13.4558 14.2015 13.5281Z" fill="#000088"/>
<path d="M12.1017 11.0001L13.6417 11.0881L14.375 11.0001L13.6417 10.9121L12.1017 11.0001Z" fill="#000088"/>
<path d="M13.5611 13.3198C13.5332 13.3871 13.5651 13.4643 13.6325 13.4922C13.6998 13.5201 13.7771 13.4881 13.805 13.4208C13.8329 13.3534 13.8009 13.2762 13.7335 13.2483C13.6662 13.2204 13.5889 13.2524 13.5611 13.3198Z" fill="#000088"/>
<path d="M12.1876 10.3345L13.6524 10.8181L14.3835 10.9229L13.6979 10.6481L12.1876 10.3345Z" fill="#000088"/>
<path d="M13.0032 12.9557C12.9588 13.0136 12.9697 13.0964 13.0275 13.1408C13.0854 13.1852 13.1682 13.1743 13.2126 13.1164C13.257 13.0586 13.2461 12.9757 13.1882 12.9314C13.1304 12.887 13.0475 12.8979 13.0032 12.9557Z" fill="#000088"/>
<path d="M12.4482 9.71689L13.7379 10.5631L14.4169 10.8536L13.8259 10.4107L12.4482 9.71689Z" fill="#000088"/>
<path d="M12.551 12.4568C12.4931 12.5012 12.4822 12.5841 12.5266 12.6419C12.571 12.6998 12.6538 12.7107 12.7117 12.6663C12.7695 12.6219 12.7804 12.5391 12.736 12.4812C12.6917 12.4234 12.6088 12.4125 12.551 12.4568Z" fill="#000088"/>
<path d="M12.8537 9.1852L13.8804 10.3364L14.4612 10.7927L14.0049 10.2119L12.8537 9.1852Z" fill="#000088"/>
<path d="M12.2497 11.8593C12.1823 11.8872 12.1503 11.9645 12.1782 12.0318C12.2061 12.0992 12.2834 12.1311 12.3507 12.1032C12.4181 12.0754 12.45 11.9981 12.4221 11.9308C12.3942 11.8634 12.317 11.8314 12.2497 11.8593Z" fill="#000088"/>
<path d="M13.3887 8.77641L14.0825 10.1541L14.5254 10.7452L14.2349 10.0661L13.3887 8.77641Z" fill="#000088"/>
<path d="M12.1081 11.2047C12.0358 11.2142 11.985 11.2805 11.9945 11.3528C12.004 11.4251 12.0703 11.476 12.1426 11.4664C12.2148 11.4569 12.2657 11.3906 12.2562 11.3183C12.2467 11.2461 12.1804 11.1952 12.1081 11.2047Z" fill="#000088"/>
<path d="M14.0063 8.52222L14.3199 10.0325L14.5947 10.7181L14.4899 9.98697L14.0063 8.52222Z" fill="#000088"/>
<path d="M12.1419 10.5316C12.0696 10.5221 12.0033 10.5729 11.9938 10.6452C11.9843 10.7175 12.0351 10.7838 12.1074 10.7933C12.1797 10.8028 12.246 10.752 12.2555 10.6797C12.265 10.6074 12.2141 10.5411 12.1419 10.5316Z" fill="#000088"/>
<path d="M14.6698 8.43175L14.5818 9.97174L14.6698 10.7051L14.7578 9.97174L14.6698 8.43175Z" fill="#000088"/>
<path d="M12.3463 9.89308C12.2789 9.86518 12.2017 9.89717 12.1738 9.96452C12.1459 10.0319 12.1779 10.1091 12.2452 10.137C12.3126 10.1649 12.3898 10.1329 12.4177 10.0655C12.4456 9.9982 12.4136 9.92098 12.3463 9.89308Z" fill="#000088"/>
<path d="M15.3315 8.51963L14.8479 9.98438L14.7431 10.7155L15.0179 10.0299L15.3315 8.51963Z" fill="#000088"/>
<path d="M12.7161 9.33129C12.6583 9.28691 12.5754 9.29782 12.5311 9.35566C12.4867 9.41349 12.4976 9.49636 12.5554 9.54074C12.6133 9.58512 12.6961 9.57421 12.7405 9.51637C12.7849 9.45853 12.774 9.37567 12.7161 9.33129Z" fill="#000088"/>
<path d="M15.9511 8.7763L15.1049 10.066L14.8144 10.7451L15.2573 10.154L15.9511 8.7763Z" fill="#000088"/>
<path d="M13.215 8.88105C13.1706 8.82321 13.0878 8.8123 13.0299 8.85668C12.9721 8.90106 12.9612 8.98393 13.0056 9.04176C13.05 9.0996 13.1328 9.11051 13.1907 9.06613C13.2485 9.02175 13.2594 8.93889 13.215 8.88105Z" fill="#000088"/>
<path d="M16.4867 9.1838L15.3355 10.2105L14.8792 10.7913L15.46 10.335L16.4867 9.1838Z" fill="#000088"/>
<path d="M13.8067 8.57585C13.7788 8.5085 13.7016 8.47651 13.6342 8.50441C13.5669 8.53231 13.5349 8.60952 13.5628 8.67688C13.5907 8.74423 13.6679 8.77621 13.7352 8.74831C13.8026 8.72042 13.8346 8.6432 13.8067 8.57585Z" fill="#000088"/>
<path d="M16.8857 9.71486L15.508 10.4086L14.9169 10.8515L15.596 10.5611L16.8857 9.71486Z" fill="#000088"/>
<path d="M14.4594 8.43623C14.4498 8.36395 14.3835 8.31308 14.3113 8.32259C14.239 8.33211 14.1881 8.39841 14.1976 8.47069C14.2071 8.54297 14.2734 8.59385 14.3457 8.58433C14.418 8.57482 14.4689 8.50851 14.4594 8.43623Z" fill="#000088"/>
<path d="M17.1418 10.3344L15.6315 10.648L14.946 10.9228L15.6771 10.818L17.1418 10.3344Z" fill="#000088"/>
<path d="M15.1305 8.46999C15.14 8.39772 15.0892 8.33141 15.0169 8.32189C14.9446 8.31238 14.8783 8.36326 14.8688 8.43554C14.8593 8.50781 14.9102 8.57412 14.9824 8.58364C15.0547 8.59315 15.121 8.54227 15.1305 8.46999Z" fill="#000088"/>
<path d="M17.2304 10.9979L15.6904 10.9099L14.957 10.9979L15.6904 11.0859L17.2304 10.9979Z" fill="#000088"/>
<path d="M15.771 8.6783C15.7989 8.61094 15.7669 8.53373 15.6995 8.50583C15.6322 8.47793 15.555 8.50991 15.5271 8.57727C15.4992 8.64462 15.5312 8.72183 15.5985 8.74973C15.6659 8.77763 15.7431 8.74565 15.771 8.6783Z" fill="#000088"/>
<path d="M17.1444 11.6635L15.6797 11.18L14.9486 11.0752L15.6341 11.35L17.1444 11.6635Z" fill="#000088"/>
<path d="M16.3328 9.04427C16.3772 8.98643 16.3662 8.90357 16.3084 8.85919C16.2506 8.81481 16.1677 8.82572 16.1233 8.88356C16.0789 8.9414 16.0899 9.02426 16.1477 9.06864C16.2055 9.11302 16.2884 9.10211 16.3328 9.04427Z" fill="#000088"/>
<path d="M16.8878 12.2831L15.5981 11.4369L14.919 11.1464L15.5101 11.5893L16.8878 12.2831Z" fill="#000088"/>
<path d="M16.785 9.54315C16.8428 9.49877 16.8537 9.41591 16.8093 9.35807C16.765 9.30024 16.6821 9.28933 16.6243 9.33371C16.5664 9.37809 16.5555 9.46095 16.5999 9.51879C16.6443 9.57662 16.7271 9.58753 16.785 9.54315Z" fill="#000088"/>
<path d="M16.4822 12.8148L15.4555 11.6636L14.8747 11.2073L15.331 11.7881L16.4822 12.8148Z" fill="#000088"/>
<path d="M17.0863 10.1407C17.1536 10.1128 17.1856 10.0355 17.1577 9.96819C17.1298 9.90084 17.0526 9.86885 16.9852 9.89675C16.9179 9.92465 16.8859 10.0019 16.9138 10.0692C16.9417 10.1366 17.0189 10.1686 17.0863 10.1407Z" fill="#000088"/>
<path d="M15.9473 13.2236L15.2535 11.8459L14.8106 11.2548L15.101 11.9339L15.9473 13.2236Z" fill="#000088"/>
<path d="M17.2278 10.7953C17.3001 10.7858 17.351 10.7195 17.3415 10.6472C17.332 10.5749 17.2656 10.524 17.1934 10.5336C17.1211 10.5431 17.0702 10.6094 17.0797 10.6817C17.0892 10.7539 17.1556 10.8048 17.2278 10.7953Z" fill="#000088"/>
<path d="M15.3296 13.4778L15.0161 11.9675L14.7413 11.2819L14.8461 12.013L15.3296 13.4778Z" fill="#000088"/>
</g>
<defs>
<clipPath id="clip0_4049_1329">
<rect width="29.3333" height="22" rx="3" fill="white"/>
</clipPath>
</defs>
</svg>
