<svg width="28" height="22" viewBox="0 0 28 22" fill="none" xmlns="http://www.w3.org/2000/svg">
<g clip-path="url(#clip0_3488_1427)">
<mask id="mask0_3488_1427" style="mask-type:luminance" maskUnits="userSpaceOnUse" x="0" y="0" width="28" height="22">
<path d="M0.000976562 0H27.9982V22H0.000976562V0Z" fill="white"/>
</mask>
<g mask="url(#mask0_3488_1427)">
<path fill-rule="evenodd" clip-rule="evenodd" d="M-1.75 16.5H29.75V22H-1.75V16.5ZM-1.75 0H29.75V5.5H-1.75V0Z" fill="#EE161F"/>
<path fill-rule="evenodd" clip-rule="evenodd" d="M-1.75 5.5H29.75V16.5H-1.75V5.5Z" fill="white"/>
<path d="M13.8402 5.58596C13.5202 6.25198 13.307 6.25198 12.7738 6.70315C12.5605 6.92229 12.2406 7.03401 12.6671 7.26174C12.2365 7.48088 12.0232 7.5926 11.8099 8.03948L11.9165 8.1512C11.9165 8.1512 12.3267 7.94495 12.3431 8.03948C12.4169 8.12971 11.8099 8.46917 11.732 8.52502L11.2808 8.82581C10.7435 9.26838 10.4195 9.15667 10.1036 9.82698L11.1701 9.71526C11.3833 10.4973 10.6368 10.609 10.1036 10.9442L9.24642 11.5028C9.4638 12.2848 10.1036 11.8379 10.6368 11.6145L10.7435 11.7262V11.9496L9.67708 12.5082C9.67708 12.5082 8.4138 13.2645 8.39329 13.2903C8.38509 13.3332 8.39329 13.5137 8.39329 13.5137C8.81986 13.6254 9.4597 13.7371 9.89036 13.5137C10.4236 13.2903 10.5302 13.0668 11.1701 13.0668C10.5542 13.5702 9.8146 13.8802 9.03724 13.9606V14.4074C9.67708 14.4074 10.1036 14.4074 10.6368 14.2957L12.0232 13.8489C12.3431 13.8489 12.6671 14.184 12.5564 14.5192C12.2406 15.7481 10.9568 15.5246 10.5302 16.5301L12.2365 15.8555C12.663 15.6321 13.0896 15.4129 13.6228 15.5246C14.2626 15.7481 14.2626 16.1949 15.1158 16.4184L14.9025 15.8598C15.1158 15.9715 15.329 15.9715 15.5464 16.0832C16.0796 16.3067 16.1863 16.5301 16.8261 16.4184C16.2929 15.7481 16.1863 15.8598 15.7597 15.4129C15.3331 14.7426 15.1158 13.7371 15.7597 13.6254L16.5062 13.8489C17.2527 13.9606 17.2527 13.7371 18.3191 14.184C18.963 14.4074 19.1763 14.7426 19.9187 14.5192C19.6029 13.7371 18.4298 13.1785 17.6792 12.9551C18.5365 12.3965 18.3191 13.1785 19.4962 12.8434V12.6199C18.6472 11.9453 18.3232 11.3867 17.1501 11.3867L18.9671 11.1633V10.9399C18.9671 10.9399 17.1747 10.45 17.1337 10.4285C17.146 10.3727 17.1911 10.2867 17.3101 10.2352C17.6505 10.4672 18.6759 10.4414 18.7374 10.4371C18.7046 10.1621 18.2165 9.9344 17.7941 9.71096C17.7941 9.71096 15.9607 8.52932 15.9525 8.4262C15.9894 8.12542 16.7031 8.47346 17.4701 8.70549C17.2568 8.25862 16.8302 8.03518 16.4036 7.92346L17.0435 7.81174C16.6169 6.80627 15.5505 6.91799 14.9107 6.47112C14.48 6.13596 14.48 5.91252 13.8402 5.58167V5.58596Z" fill="#00A850"/>
<path fill-rule="evenodd" clip-rule="evenodd" d="M12.6879 13.0195C12.7658 12.7574 12.8684 12.5211 12.3926 12.2933C11.9168 12.0656 12.6305 13.2 12.6879 13.0238V13.0195ZM13.2498 12.491C13.1555 12.5039 13.1021 12.8691 13.2949 12.9722C13.5082 13.0066 13.3359 12.4953 13.2498 12.491ZM13.8035 12.448C13.7051 12.4824 13.701 12.998 14.0496 12.9035C14.4023 12.8133 14.0496 12.4094 13.8035 12.4523V12.448ZM14.4516 11.1289C14.5254 11 14.4475 10.4844 14.148 10.6992C13.8445 10.9183 14.3531 11.1633 14.4516 11.1289ZM13.7953 10.6992C13.8896 10.6605 13.8979 10.3426 13.6312 10.4285C13.3729 10.5101 13.7256 10.7637 13.7953 10.6992ZM13.2047 10.8238C13.2047 10.8238 13.0201 10.5574 12.8766 10.6133C12.7002 10.7937 13.217 10.8281 13.2047 10.8238ZM11.1703 11.6746C11.2482 11.6832 11.8266 11.5758 12.0275 11.3394C12.2285 11.1031 10.998 11.4383 10.998 11.4426C10.998 11.4469 11.1129 11.6531 11.1703 11.6746ZM16.9576 10.1707C16.9863 10.1148 16.65 9.86561 16.449 9.96444C16.3957 10.1492 16.9576 10.2094 16.9576 10.1707ZM15.8174 9.56912C15.883 9.47459 15.6738 9.08358 15.2555 9.30272C14.8371 9.51756 15.6943 9.72381 15.8174 9.57342V9.56912ZM14.5008 9.34139C14.5008 9.34139 14.6033 8.98905 14.8535 9.0578C15.1406 9.28553 14.5131 9.35428 14.5008 9.34139ZM14.2547 9.07498C14.2137 8.97616 13.9553 9.03202 13.6559 9.24256C13.3523 9.44452 14.3449 9.30272 14.2547 9.07069V9.07498ZM15.0217 8.12537C15.0217 8.12537 15.2883 7.99647 15.3703 8.12537C15.4811 8.31014 15.0176 8.12537 15.0217 8.12537ZM14.7961 8.00076C14.7428 7.88905 14.4475 7.87616 14.4557 8.04373C14.4064 8.17264 14.8412 8.14686 14.7961 8.00076ZM14.0906 8.00076C14.0619 7.93631 13.6395 8.00076 13.5164 8.26717C13.7215 8.3703 14.185 8.16834 14.0906 8.00076ZM13.1883 8.27147C13.1883 8.27147 12.6387 8.62811 12.6018 8.88592C12.6182 9.10936 13.2908 8.48201 13.2908 8.48201C13.2908 8.48201 13.3482 8.2328 13.1924 8.27147H13.1883ZM12.5771 7.9492C12.5936 7.87616 12.852 7.70858 12.8725 7.72147C12.893 7.79451 12.6633 7.99217 12.5771 7.9492ZM12.7535 9.30702C12.7658 9.19959 12.0973 9.20819 12.3475 9.53045C12.5607 9.80116 12.7986 9.35428 12.7535 9.30702ZM12.1383 9.76678C12.1055 9.69803 12.0562 9.50897 11.966 9.49178C11.8881 9.49178 11.4861 9.57772 11.4533 9.64647C11.4369 9.70233 11.6215 10.0504 11.683 10.059C11.7568 10.089 12.1301 9.80116 12.1424 9.76678H12.1383ZM15.7641 12.1387C15.7846 12.0613 16.4736 11.8164 16.7074 12.0527C16.9863 12.4523 15.7477 12.2676 15.7641 12.1387ZM17.6508 12.607C17.8025 12.3406 17.1873 12.0226 16.9289 12.3277C17.0191 12.693 17.5277 12.8262 17.6508 12.607Z" fill="white" stroke="white" stroke-width="0.375" stroke-linecap="round" stroke-linejoin="round"/>
</g>
</g>
<defs>
<clipPath id="clip0_3488_1427">
<rect width="28" height="22" rx="3" fill="white"/>
</clipPath>
</defs>
</svg>
