<svg width="28" height="22" viewBox="0 0 28 22" fill="none" xmlns="http://www.w3.org/2000/svg">
<g clip-path="url(#clip0_3488_1420)">
<path d="M0 0H28V22H0V0Z" fill="white"/>
<path d="M0 15.4H28V22H0V15.4Z" fill="#009543"/>
<path d="M0 0H28V6.6H0V0Z" fill="#00209F"/>
<path d="M13.9822 7.01251C13.8641 7.01251 13.746 7.15001 13.746 7.15001L13.7591 8.63501L13.3085 9.12543H13.6716V9.97334L11.5279 12.9983L11.2129 12.8792L10.6572 14.1167C10.6572 14.1167 12.0266 15.015 14.0129 14.9875C16.1916 14.9646 17.3772 14.0754 17.3772 14.0754L16.8085 12.8563L16.5241 12.9846L14.3541 9.97792V9.10251H14.7129L14.2229 8.61667V7.14084C14.2229 7.14084 14.1047 7.00334 13.9822 7.00792V7.01251Z" fill="black" stroke="black" stroke-width="0.2"/>
<path d="M14.7306 10.56H13.2475C13.2475 10.56 12.7138 9.37293 12.7969 8.54334C12.8844 7.70001 13.3481 7.30126 13.9606 7.29209C14.6869 7.28751 15.0631 7.66334 15.1769 8.51126C15.2906 9.35001 14.7306 10.56 14.7306 10.56Z" stroke="black"/>
<path d="M11.397 13.3879C11.3708 13.42 11.1914 13.7958 11.1914 13.7958L11.4977 13.7271L11.397 13.3879ZM11.572 13.8692L11.2483 13.9792L11.6377 14.1396L11.572 13.8692ZM11.7164 13.3971L11.8783 13.8967L12.272 13.7775L12.1714 13.5392L11.7164 13.3971ZM11.9702 14.0754L12.0227 14.2771L12.5477 14.4146L12.3377 13.9471L11.9702 14.0754ZM12.5477 13.6492L12.7358 14.1167L13.1295 13.9562L12.9983 13.75L12.5477 13.6492ZM12.8102 14.2862L12.8714 14.4604L13.4839 14.5521L13.2258 14.1304L12.8058 14.2862H12.8102ZM13.3964 13.7821L13.6239 14.1992L14.1927 13.9792L14.1314 13.8187L13.3964 13.7867V13.7821ZM13.7289 14.3504L13.847 14.5704L14.5558 14.5475L14.2933 14.135L13.7245 14.3504H13.7289ZM14.477 13.8004L14.6695 14.1487L15.1245 13.9196L15.002 13.7362L14.477 13.8004ZM15.2208 14.0662L14.7702 14.3L14.8883 14.5062L15.492 14.4054L15.2208 14.0662ZM15.3652 13.6996L15.597 14.0067L15.9777 13.6904L15.8464 13.5529L15.3652 13.6996ZM16.0608 13.86L15.6977 14.1487L15.7939 14.3275L16.2927 14.19L16.0608 13.86ZM16.5595 13.2642L16.647 13.3971L16.3977 13.7867L16.1395 13.4383L16.5595 13.2642ZM16.7302 13.5987L16.8833 13.9196L16.577 14.0296L16.5508 13.8783L16.7258 13.6033L16.7302 13.5987Z" fill="white"/>
</g>
<defs>
<clipPath id="clip0_3488_1420">
<rect width="28" height="22" rx="3" fill="white"/>
</clipPath>
</defs>
</svg>
