<svg width="141" height="48" viewBox="0 0 141 48" fill="none" xmlns="http://www.w3.org/2000/svg">
<path d="M79.552 32.248C79.552 36.504 76.416 39 71.36 39H62.368V16.024H71.008C75.84 16.024 78.816 18.2 78.816 22.136C78.816 24.248 77.632 25.944 75.584 27C78.144 27.896 79.552 29.72 79.552 32.248ZM70.624 19.864H66.784V25.208H70.624C72.992 25.208 74.208 24.184 74.208 22.52C74.208 20.888 72.992 19.864 70.624 19.864ZM70.976 29.08H66.784V35.16H70.976C73.6 35.16 74.976 34.008 74.976 32.056C74.976 30.232 73.6 29.08 70.976 29.08ZM90.1267 39.288C85.0068 39.288 81.5828 35.736 81.5828 30.392C81.5828 25.304 85.1348 21.592 90.0628 21.592C95.4708 21.592 99.0548 25.976 98.2548 31.544H86.1268C86.4148 34.328 87.7588 35.864 90.0308 35.864C91.9828 35.864 93.2948 34.904 93.8068 33.208H98.2228C97.2628 37.08 94.2868 39.288 90.1267 39.288ZM89.9668 24.856C87.8868 24.856 86.5748 26.2 86.1908 28.728H93.5508C93.4228 26.36 92.0788 24.856 89.9668 24.856ZM108.122 39.32C103.194 39.32 99.8015 35.672 99.8015 30.456C99.8015 25.336 103.322 21.592 108.122 21.592C112.57 21.592 115.866 24.6 116.41 29.208H111.738C111.514 26.936 110.138 25.528 108.122 25.528C105.818 25.528 104.346 27.416 104.346 30.456C104.346 33.528 105.786 35.384 108.122 35.384C110.17 35.384 111.482 34.04 111.738 31.704H116.41C115.898 36.408 112.698 39.32 108.122 39.32ZM126.755 39.32C121.795 39.32 118.083 35.416 118.083 30.456C118.083 25.464 121.795 21.592 126.755 21.592C131.715 21.592 135.427 25.464 135.427 30.456C135.427 35.416 131.715 39.32 126.755 39.32ZM126.755 35.384C128.963 35.384 130.851 33.624 130.851 30.456C130.851 27.288 128.963 25.56 126.755 25.56C124.547 25.56 122.659 27.288 122.659 30.456C122.659 33.624 124.547 35.384 126.755 35.384Z" fill="white"/>
<path d="M19.8452 20.5818C20.5177 17.3312 23.3807 15 26.7 15H48.8596C52.0284 15 54.3979 17.91 53.7559 21.013L50.3198 37.6208C49.5512 41.3357 46.2793 44 42.4857 44H15L19.8452 20.5818Z" fill="#F7E4D6"/>
<path d="M8.84519 9.58175C9.51771 6.33125 12.3807 4 15.7 4H37.8596C41.0284 4 43.3979 6.90999 42.7559 10.013L39.3198 26.6208C38.5512 30.3357 35.2793 33 31.4857 33H4L8.84519 9.58175Z" fill="black"/>
</svg>
