<svg width="28" height="22" viewBox="0 0 28 22" fill="none" xmlns="http://www.w3.org/2000/svg">
<g clip-path="url(#clip0_3576_1258)">
<path d="M11.2002 0H28.0002V22H11.2002V0Z" fill="#FF0000"/>
<path d="M0 0H11.2V22H0V0Z" fill="#006600"/>
<path fill-rule="evenodd" clip-rule="evenodd" d="M14.8533 14.0341C13.4402 13.9883 6.97832 9.76248 6.93457 9.08414L7.28895 8.46539C7.93207 9.44164 14.5383 13.5529 15.1902 13.4062L14.8533 14.0341Z" fill="#FFFF00" stroke="black" stroke-width="0.075" stroke-linecap="round" stroke-linejoin="round"/>
<path fill-rule="evenodd" clip-rule="evenodd" d="M7.21446 8.37832C7.08758 8.73582 8.90321 9.90915 11.082 11.3025C13.2651 12.6912 15.1463 13.5483 15.282 13.4291L15.3476 13.3008C15.3213 13.3466 15.2601 13.3604 15.1595 13.3283C14.5688 13.1496 13.0332 12.4116 11.1301 11.2016C9.22258 9.99165 7.56883 8.8779 7.31071 8.40582C7.29059 8.36156 7.28155 8.31266 7.28446 8.26373H7.27571L7.22321 8.36457L7.21446 8.37832ZM14.8838 14.0525C14.862 14.0983 14.8138 14.0983 14.7307 14.0891C14.2057 14.0296 12.6045 13.2137 10.7101 12.0266C8.50508 10.6425 6.68508 9.38665 6.88633 9.05665L6.93883 8.95582L6.94758 8.9604C6.77258 9.51957 10.5395 11.7746 10.7626 11.9212C12.9413 13.3329 14.7788 14.1625 14.9407 13.9471L14.8838 14.0525Z" fill="#FFFF00" stroke="black" stroke-width="0.075" stroke-linecap="round" stroke-linejoin="round"/>
<path fill-rule="evenodd" clip-rule="evenodd" d="M11.2081 9.49668C12.6169 9.48293 14.3581 9.29502 15.3644 8.87335L15.1456 8.50668C14.555 8.85043 12.805 9.0796 11.195 9.11168C9.29625 9.09335 7.95312 8.90543 7.27937 8.43335L7.07812 8.82752C8.31187 9.37752 9.58063 9.4921 11.2081 9.49668Z" fill="#FFFF00" stroke="black" stroke-width="0.075" stroke-linecap="round" stroke-linejoin="round"/>
<path fill-rule="evenodd" clip-rule="evenodd" d="M15.4219 8.88251C15.3869 8.94209 14.7307 9.17584 13.7682 9.35001C12.9197 9.4847 12.0626 9.55059 11.2044 9.54709C10.3822 9.55032 9.56075 9.4952 8.74566 9.38209C7.73504 9.21709 7.21441 8.98792 7.01754 8.90542L7.06566 8.80459C7.62129 9.03376 8.14629 9.17126 8.75879 9.27209C9.56793 9.38655 10.3836 9.4432 11.2 9.44167C12.0537 9.44261 12.9063 9.37673 13.7507 9.24459C14.735 9.07501 15.2732 8.85959 15.3519 8.76334L15.4219 8.88709V8.88251ZM15.2294 8.51126C15.1244 8.60292 14.5907 8.80001 13.6544 8.95584C12.8459 9.07838 12.0301 9.13965 11.2132 9.13917C10.2507 9.13917 9.45879 9.06584 8.85941 8.97417C7.90566 8.84584 7.39816 8.60751 7.21441 8.54334L7.27129 8.44251C7.41566 8.52042 7.90129 8.72667 8.86816 8.86876C9.64541 8.97782 10.429 9.0299 11.2132 9.02459C12.0242 9.02485 12.8343 8.96358 13.6369 8.84126C14.5775 8.70376 15.085 8.45626 15.1638 8.39209L15.2294 8.51126ZM6.57566 11.275C7.44191 11.7654 9.37129 12.0083 11.1957 12.0267C12.8582 12.0313 15.0194 11.7608 15.8288 11.3117L15.8069 10.8213C15.5532 11.2338 13.2344 11.6325 11.1782 11.6188C9.12191 11.6004 7.21004 11.2704 6.57129 10.8396V11.275" fill="#FFFF00"/>
<path d="M6.57566 11.275C7.44191 11.7654 9.37129 12.0083 11.1957 12.0267C12.8582 12.0313 15.0194 11.7608 15.8288 11.3117L15.8069 10.8213C15.5532 11.2338 13.2344 11.6325 11.1782 11.6188C9.12191 11.6004 7.21004 11.2704 6.57129 10.8396V11.275M15.4219 8.88251C15.3869 8.94209 14.7307 9.17584 13.7682 9.35001C12.9197 9.4847 12.0626 9.55059 11.2044 9.54709C10.3822 9.55032 9.56075 9.4952 8.74566 9.38209C7.73504 9.21709 7.21441 8.98792 7.01754 8.90542L7.06566 8.80459C7.62129 9.03376 8.14629 9.17126 8.75879 9.27209C9.56793 9.38655 10.3836 9.4432 11.2 9.44167C12.0537 9.44261 12.9063 9.37673 13.7507 9.24459C14.735 9.07501 15.2732 8.85959 15.3519 8.76334L15.4219 8.88709V8.88251ZM15.2294 8.51126C15.1244 8.60292 14.5907 8.80001 13.6544 8.95584C12.8459 9.07838 12.0301 9.13965 11.2132 9.13917C10.2507 9.13917 9.45879 9.06584 8.85941 8.97417C7.90566 8.84584 7.39816 8.60751 7.21441 8.54334L7.27129 8.44251C7.41566 8.52042 7.90129 8.72667 8.86816 8.86876C9.64541 8.97782 10.429 9.0299 11.2132 9.02459C12.0242 9.02485 12.8343 8.96358 13.6369 8.84126C14.5775 8.70376 15.085 8.45626 15.1638 8.39209L15.2294 8.51126Z" stroke="black" stroke-width="0.075" stroke-linecap="round" stroke-linejoin="round"/>
<path fill-rule="evenodd" clip-rule="evenodd" d="M15.8723 11.2062V11.3208C15.7498 11.4766 14.9886 11.7058 14.0348 11.8708C13.0873 12.0135 12.1308 12.0809 11.1736 12.0725C10.2659 12.0806 9.35897 12.0147 8.46105 11.8754C7.79105 11.7943 7.13634 11.6089 6.51855 11.3254V11.1925C6.94293 11.4858 8.08918 11.7058 8.47418 11.77C9.16543 11.88 10.0536 11.9625 11.1736 11.9625C12.3504 11.9625 13.2911 11.8754 14.0173 11.7608C14.7042 11.6554 15.6798 11.385 15.8723 11.2062ZM15.8723 10.7937V10.9083C15.7498 11.0596 14.9886 11.2887 14.0348 11.4537C13.0874 11.5979 12.1309 11.6669 11.1736 11.66C10.266 11.6656 9.35923 11.5997 8.46105 11.4629C7.79105 11.3818 7.13634 11.1964 6.51855 10.9129V10.7754C6.94293 11.0733 8.09355 11.2887 8.47418 11.3529C9.36792 11.49 10.2703 11.5559 11.1736 11.55C12.3504 11.55 13.2954 11.4583 14.0173 11.3437C14.7042 11.2429 15.6798 10.9725 15.8723 10.7937ZM11.1911 13.9471C9.19605 13.9379 7.48543 13.3787 7.1223 13.2871L7.3848 13.7179C8.61195 14.1732 9.90688 14.3952 11.2086 14.3733C12.7267 14.3275 14.0523 14.2037 14.9842 13.7271L15.2554 13.2779C14.6211 13.5941 12.4554 13.9471 11.1867 13.9471" fill="#FFFF00"/>
<path d="M11.1911 13.9471C9.19605 13.9379 7.48543 13.3787 7.1223 13.2871L7.3848 13.7179C8.61195 14.1732 9.90688 14.3952 11.2086 14.3733C12.7267 14.3275 14.0523 14.2037 14.9842 13.7271L15.2554 13.2779C14.6211 13.5941 12.4554 13.9471 11.1867 13.9471M15.8723 11.2062V11.3208C15.7498 11.4766 14.9886 11.7058 14.0348 11.8708C13.0873 12.0135 12.1308 12.0809 11.1736 12.0725C10.2659 12.0806 9.35897 12.0147 8.46105 11.8754C7.79105 11.7943 7.13634 11.6089 6.51855 11.3254V11.1925C6.94293 11.4858 8.08918 11.7058 8.47418 11.77C9.16543 11.88 10.0536 11.9625 11.1736 11.9625C12.3504 11.9625 13.2911 11.8754 14.0173 11.7608C14.7042 11.6554 15.6798 11.385 15.8723 11.2062ZM15.8723 10.7937V10.9083C15.7498 11.0596 14.9886 11.2887 14.0348 11.4537C13.0874 11.5979 12.1309 11.6669 11.1736 11.66C10.266 11.6656 9.35923 11.5997 8.46105 11.4629C7.79105 11.3818 7.13634 11.1964 6.51855 10.9129V10.7754C6.94293 11.0733 8.09355 11.2887 8.47418 11.3529C9.36792 11.49 10.2703 11.5559 11.1736 11.55C12.3504 11.55 13.2954 11.4583 14.0173 11.3437C14.7042 11.2429 15.6798 10.9725 15.8723 10.7937Z" stroke="black" stroke-width="0.075" stroke-linecap="round" stroke-linejoin="round"/>
<path fill-rule="evenodd" clip-rule="evenodd" d="M15.0896 13.6262C15.0497 13.6881 15.0089 13.7492 14.9671 13.8096C14.5296 13.9746 13.8296 14.1487 13.5408 14.1946C12.766 14.3458 11.9796 14.4225 11.1914 14.4237C9.42395 14.3962 7.97582 14.0342 7.2977 13.7225L7.24082 13.6262L7.24957 13.6079L7.34145 13.6492C8.58658 14.0808 9.88868 14.3051 11.2002 14.3137C12.0227 14.3137 12.8408 14.2175 13.5014 14.0937C14.5164 13.8783 14.9277 13.7179 15.0546 13.6446L15.0852 13.6262H15.0896ZM15.3214 13.2229C15.2926 13.2766 15.2635 13.3301 15.2339 13.3833C14.9977 13.475 14.3589 13.6675 13.4271 13.805C12.8146 13.8921 12.4339 13.9792 11.2133 14.0021C9.81797 13.9874 8.43119 13.7715 7.09207 13.3604L7.04395 13.2458C8.4045 13.6398 9.80647 13.8553 11.2177 13.8875C12.3333 13.8646 12.8102 13.7775 13.4183 13.6904C14.5033 13.5162 15.0502 13.3237 15.2121 13.2733C15.2122 13.2703 15.2122 13.2672 15.2121 13.2642L15.3258 13.2183L15.3214 13.2229Z" fill="#FFFF00" stroke="black" stroke-width="0.075" stroke-linecap="round" stroke-linejoin="round"/>
<path fill-rule="evenodd" clip-rule="evenodd" d="M15.3475 10.89C15.3519 12.265 14.6782 13.5025 14.14 14.0433C13.3453 14.8554 12.2839 15.3179 11.1738 15.3358C9.84817 15.3587 8.6013 14.4558 8.26442 14.0571C7.5108 13.2198 7.08187 12.1185 7.0613 10.9679C7.14005 9.46458 7.70442 8.41958 8.51817 7.7C9.30867 7.01826 10.3031 6.64991 11.3269 6.65958C11.9246 6.68994 12.5096 6.85076 13.0445 7.13174C13.5794 7.41272 14.0524 7.80765 14.4332 8.29125C14.98 8.98792 15.2207 9.74417 15.3475 10.89ZM11.1825 6.1875C12.4064 6.18746 13.5807 6.69429 14.4494 7.59748C15.3181 8.50068 15.8108 9.72702 15.82 11.0092C15.82 11.6454 15.7004 12.2753 15.468 12.8631C15.2356 13.4509 14.895 13.9849 14.4656 14.4348C14.0362 14.8847 13.5264 15.2415 12.9653 15.485C12.4043 15.7284 11.803 15.8537 11.1957 15.8537C10.5884 15.8537 9.98705 15.7284 9.426 15.485C8.86494 15.2415 8.35516 14.8847 7.92574 14.4348C7.49633 13.9849 7.1557 13.4509 6.92331 12.8631C6.69091 12.2753 6.5713 11.6454 6.5713 11.0092C6.56692 8.35083 8.64067 6.1875 11.1825 6.1875Z" fill="#FFFF00" stroke="black" stroke-width="0.075" stroke-linecap="round" stroke-linejoin="round"/>
<path fill-rule="evenodd" clip-rule="evenodd" d="M11.1957 6.16461C13.742 6.16461 15.8157 8.33711 15.8157 11.0046C15.8157 13.6721 13.742 15.8446 11.2001 15.8446C8.6582 15.8446 6.58008 13.6721 6.58008 11.0046C6.58008 8.33711 8.65383 6.16461 11.2001 6.16461H11.1957ZM6.67633 11C6.67633 13.6034 8.71945 15.7346 11.1957 15.7346C13.672 15.7346 15.7151 13.6034 15.7151 11C15.7151 8.3967 13.672 6.26545 11.1957 6.26545C8.71945 6.26545 6.67633 8.3967 6.67633 11Z" fill="#FFFF00" stroke="black" stroke-width="0.075" stroke-linecap="round" stroke-linejoin="round"/>
<path fill-rule="evenodd" clip-rule="evenodd" d="M11.1994 6.56793C12.3203 6.57156 13.3944 7.03967 14.1871 7.87006C14.9797 8.70046 15.4265 9.82567 15.43 11C15.4265 12.1748 14.9798 13.3005 14.1873 14.1316C13.3948 14.9627 12.3207 15.4318 11.1994 15.4367C8.88062 15.4367 6.96875 13.4383 6.96875 11C6.97336 9.82604 7.42056 8.70152 8.21296 7.87139C9.00536 7.04126 10.0788 6.57276 11.1994 6.56793ZM7.06938 11C7.06938 13.3833 8.93312 15.3267 11.1994 15.3267C13.4656 15.3267 15.3294 13.3788 15.3294 11C15.3294 8.61668 13.4656 6.67335 11.1994 6.67335C10.1054 6.67817 9.05764 7.13557 8.28411 7.94593C7.51058 8.75629 7.07398 9.854 7.06938 11Z" fill="#FFFF00" stroke="black" stroke-width="0.075" stroke-linecap="round" stroke-linejoin="round"/>
<path fill-rule="evenodd" clip-rule="evenodd" d="M11.3884 6.14166H10.9902V15.8721H11.384L11.3884 6.14166Z" fill="#FFFF00" stroke="black" stroke-width="0.075" stroke-linecap="round" stroke-linejoin="round"/>
<path fill-rule="evenodd" clip-rule="evenodd" d="M11.3439 6.08667H11.4446V15.9271H11.3483V6.08667H11.3439ZM10.9502 6.08667H11.0552V15.9271H10.9546V6.08667H10.9502Z" fill="#FFFF00" stroke="black" stroke-width="0.075" stroke-linecap="round" stroke-linejoin="round"/>
<path fill-rule="evenodd" clip-rule="evenodd" d="M15.8195 11.1925V10.835L15.5395 10.56L13.9514 10.12L11.6676 9.87708L8.91137 10.0237L6.95137 10.5096L6.55762 10.8167V11.1787L7.55949 10.7067L9.93949 10.3171H12.2276L13.9076 10.5096L15.0714 10.8029L15.8195 11.1925Z" fill="#FFFF00" stroke="black" stroke-width="0.075" stroke-linecap="round" stroke-linejoin="round"/>
<path fill-rule="evenodd" clip-rule="evenodd" d="M11.1998 10.2575C12.2892 10.2575 13.3436 10.3629 14.1879 10.5325C15.0542 10.7158 15.6623 10.945 15.8723 11.1971V11.3254C15.6186 11.0046 14.8004 10.7754 14.1661 10.6379C13.3348 10.4729 12.2848 10.3629 11.1954 10.3629C10.0536 10.3629 8.98605 10.4821 8.16355 10.6471C7.5073 10.7846 6.62793 11.0596 6.51855 11.3254V11.1925C6.57543 11.0091 7.23168 10.7341 8.15043 10.5371C8.9773 10.3675 10.0448 10.2575 11.1954 10.2575H11.1998ZM11.1998 9.84039C12.2017 9.83829 13.2017 9.93032 14.1879 10.1154C15.0542 10.2987 15.6623 10.5279 15.8723 10.7846V10.9083C15.6186 10.5921 14.8004 10.3583 14.1661 10.2254C13.3348 10.0558 12.2848 9.95039 11.1954 9.95039C10.1801 9.94702 9.16656 10.0422 8.16793 10.2346C7.53355 10.3583 6.61918 10.6425 6.51855 10.9083V10.78C6.5798 10.5966 7.2448 10.3079 8.15043 10.1246C8.98168 9.95497 10.0448 9.84039 11.1998 9.84039ZM11.1736 7.72289C12.8929 7.71372 14.3936 7.97497 15.0804 8.34164L15.3298 8.79997C14.7348 8.46081 13.1161 8.11247 11.1779 8.15831C9.59855 8.17206 7.9098 8.34164 7.06543 8.81831L7.36293 8.29581C8.05855 7.91539 9.6948 7.72289 11.1736 7.72289Z" fill="#FFFF00" stroke="black" stroke-width="0.075" stroke-linecap="round" stroke-linejoin="round"/>
<path fill-rule="evenodd" clip-rule="evenodd" d="M11.2002 8.09878C12.0979 8.08291 12.9952 8.14885 13.882 8.29586C14.582 8.43336 15.2514 8.63503 15.3477 8.74503L15.422 8.88253C15.1902 8.7267 14.6083 8.54795 13.8645 8.40128C13.1208 8.25461 12.1714 8.2042 11.1958 8.20878C10.0889 8.2042 9.22703 8.26378 8.49203 8.40128C7.98536 8.47567 7.49344 8.63507 7.03516 8.87336L7.10953 8.73128C7.37203 8.59378 7.77891 8.4242 8.47016 8.29128C9.23578 8.14461 10.1064 8.10336 11.2002 8.09878ZM11.2002 7.68628C12.1364 7.67711 13.0639 7.73211 13.7858 7.86961C14.2535 7.94236 14.7061 8.09731 15.1245 8.32795L15.2339 8.51128C15.0502 8.29586 14.3589 8.08961 13.742 7.97961C13.0245 7.8467 12.1364 7.79628 11.2002 7.78711C10.3286 7.77897 9.45794 7.84643 8.59703 7.98878C8.14688 8.05449 7.70968 8.1953 7.30203 8.40586L7.39828 8.25461C7.65203 8.11711 8.06328 7.98878 8.57953 7.88336C9.44612 7.73914 10.3228 7.67168 11.2002 7.6817V7.68628ZM13.4927 13.0167C12.7343 12.8792 11.9652 12.8178 11.1958 12.8334C8.33016 12.87 7.40703 13.4521 7.29328 13.6263L7.07453 13.2596C7.80953 12.7096 9.36703 12.3979 11.2133 12.4254C12.1714 12.4438 12.9983 12.5125 13.6895 12.6546L13.4927 13.0213" fill="#FFFF00"/>
<path d="M13.4927 13.0167C12.7343 12.8792 11.9652 12.8178 11.1958 12.8334C8.33016 12.87 7.40703 13.4521 7.29328 13.6263L7.07453 13.2596C7.80953 12.7096 9.36703 12.3979 11.2133 12.4254C12.1714 12.4438 12.9983 12.5125 13.6895 12.6546L13.4927 13.0213M11.2002 8.09878C12.0979 8.08291 12.9952 8.14885 13.882 8.29586C14.582 8.43336 15.2514 8.63503 15.3477 8.74503L15.422 8.88253C15.1902 8.7267 14.6083 8.54795 13.8645 8.40128C13.1208 8.25461 12.1714 8.2042 11.1958 8.20878C10.0889 8.2042 9.22703 8.26378 8.49203 8.40128C7.98536 8.47567 7.49344 8.63507 7.03516 8.87336L7.10953 8.73128C7.37203 8.59378 7.77891 8.4242 8.47016 8.29128C9.23578 8.14461 10.1064 8.10336 11.2002 8.09878ZM11.2002 7.68628C12.1364 7.67711 13.0639 7.73211 13.7858 7.86961C14.2535 7.94236 14.7061 8.09731 15.1245 8.32795L15.2339 8.51128C15.0502 8.29586 14.3589 8.08961 13.742 7.97961C13.0245 7.8467 12.1364 7.79628 11.2002 7.78711C10.3286 7.77897 9.45794 7.84643 8.59703 7.98878C8.14688 8.05449 7.70968 8.1953 7.30203 8.40586L7.39828 8.25461C7.65203 8.11711 8.06328 7.98878 8.57953 7.88336C9.44612 7.73914 10.3228 7.67168 11.2002 7.6817V7.68628Z" stroke="black" stroke-width="0.075" stroke-linecap="round" stroke-linejoin="round"/>
<path fill-rule="evenodd" clip-rule="evenodd" d="M11.1822 12.7829C11.9784 12.7967 12.7572 12.8288 13.5141 12.9754L13.4616 13.0763C12.7616 12.9388 12.0091 12.8929 11.1866 12.8929C10.1234 12.8838 9.05594 12.9892 8.12406 13.2688C7.83094 13.3559 7.34531 13.5529 7.29281 13.7179L7.24031 13.6263C7.25781 13.5254 7.54656 13.3238 8.09781 13.1679C9.16531 12.8471 10.1628 12.7875 11.1822 12.7829ZM11.2172 12.3613C12.0576 12.3604 12.8965 12.4371 13.7241 12.5904L13.6672 12.6959C12.8591 12.5406 12.0388 12.4654 11.2172 12.4713C10.1584 12.4713 9.03406 12.5538 8.01031 12.8654C7.68219 12.9663 7.10906 13.1863 7.09156 13.3559L7.03906 13.255C7.04781 13.0992 7.54219 12.8929 7.98844 12.76C9.01656 12.4438 10.1453 12.3659 11.2172 12.3613Z" fill="#FFFF00" stroke="black" stroke-width="0.075" stroke-linecap="round" stroke-linejoin="round"/>
<path fill-rule="evenodd" clip-rule="evenodd" d="M15.2862 13.3146L14.945 13.8783L13.9518 12.9571L11.3881 11.1466L8.49184 9.4829L6.99121 8.94665L7.31059 8.32332L7.41996 8.26373L8.35184 8.50665L11.4318 10.1704L13.2081 11.3437L14.7 12.4666L15.3081 13.2L15.2862 13.3146Z" fill="#FFFF00" stroke="black" stroke-width="0.075" stroke-linecap="round" stroke-linejoin="round"/>
<path fill-rule="evenodd" clip-rule="evenodd" d="M6.93871 8.96043C7.20121 8.7771 9.13496 9.67543 11.165 10.9588C13.1818 12.2421 15.1156 13.6904 14.9406 13.9608L14.8837 14.0571L14.8575 14.08C14.8618 14.0754 14.8925 14.0342 14.8575 13.9379C14.77 13.64 13.3962 12.4942 11.1256 11.055C8.90746 9.67543 7.06121 8.84127 6.88184 9.0796L6.93871 8.96043ZM15.3562 13.31C15.5225 12.9617 13.7287 11.5454 11.5018 10.1658C9.22684 8.81377 7.58184 8.01627 7.27996 8.2546L7.21871 8.38752C7.21871 8.3921 7.21871 8.37835 7.23621 8.3646C7.28871 8.31877 7.38059 8.31877 7.41996 8.31877C7.93621 8.32793 9.41059 9.03835 11.48 10.2804C12.39 10.8304 15.3125 12.8013 15.2993 13.3513C15.2993 13.3971 15.3037 13.4063 15.2862 13.4338L15.3606 13.3146L15.3562 13.31Z" fill="#FFFF00" stroke="black" stroke-width="0.075" stroke-linecap="round" stroke-linejoin="round"/>
<path d="M8.42773 11.5393C8.42843 11.9188 8.50096 12.2944 8.64114 12.6444C8.78133 12.9943 8.98637 13.3116 9.2444 13.578C9.49929 13.8491 9.80288 14.0647 10.1377 14.2124C10.4725 14.3601 10.8318 14.4369 11.1951 14.4384C11.9302 14.4384 12.6353 14.1324 13.1551 13.5878C13.4122 13.3199 13.6163 13.0015 13.7556 12.6508C13.895 12.3001 13.9668 11.9241 13.9671 11.5442V7.67219L8.42773 7.66241V11.5393Z" fill="white" stroke="black" stroke-width="0.0933336"/>
<path d="M8.53027 11.5442C8.53126 11.9083 8.60105 12.2685 8.73561 12.6041C8.87017 12.9398 9.06684 13.2442 9.31428 13.4998C9.81112 14.023 10.4858 14.3184 11.1903 14.3211C11.8935 14.3215 12.5682 14.0297 13.0663 13.5096C13.3129 13.2536 13.5087 12.949 13.6424 12.6134C13.7762 12.2777 13.8452 11.9177 13.8456 11.554V7.78955H8.53961V11.5442M12.7863 8.91889V11.3096L12.7816 11.5589C12.7832 11.7773 12.7427 11.9938 12.6625 12.1954C12.5823 12.397 12.4641 12.5796 12.315 12.7322C12.0182 13.0442 11.6154 13.22 11.1949 13.2211C10.7563 13.2211 10.3689 13.0256 10.0796 12.7225C9.78182 12.4116 9.61397 11.9896 9.61294 11.5491V8.90911L12.7863 8.91889Z" fill="#FF0000"/>
<path d="M8.53027 11.5442C8.53126 11.9083 8.60105 12.2685 8.73561 12.6041C8.87017 12.9398 9.06684 13.2442 9.31428 13.4998C9.81112 14.023 10.4858 14.3184 11.1903 14.3211C11.8935 14.3215 12.5682 14.0297 13.0663 13.5096C13.3129 13.2536 13.5087 12.949 13.6424 12.6134C13.7762 12.2777 13.8452 11.9177 13.8456 11.554V7.78955H8.53961V11.5442M12.7863 8.91889V11.3096L12.7816 11.5589C12.7832 11.7773 12.7427 11.9938 12.6625 12.1954C12.5823 12.397 12.4641 12.5796 12.315 12.7322C12.0182 13.0442 11.6154 13.22 11.1949 13.2211C10.7563 13.2211 10.3689 13.0256 10.0796 12.7225C9.78182 12.4116 9.61397 11.9896 9.61294 11.5491V8.90911L12.7863 8.91889Z" stroke="black" stroke-width="0.0666669"/>
<path d="M8.87598 8.7722C8.88064 8.50331 9.06264 8.43976 9.06264 8.43976C9.06731 8.43976 9.26331 8.5082 9.26331 8.77709H8.87598" fill="#FFFF00"/>
<path d="M8.71725 8.44465L8.68458 8.75265H8.88058C8.88058 8.49842 9.06725 8.45931 9.06725 8.45931C9.07191 8.45931 9.25391 8.51309 9.25858 8.75265H9.45458L9.41725 8.43976H8.71725V8.44465ZM8.67058 8.75754H9.46391C9.47791 8.75754 9.49191 8.7722 9.49191 8.79176C9.49191 8.8162 9.47791 8.83087 9.46391 8.83087H8.67058C8.65658 8.83087 8.64258 8.8162 8.64258 8.79176C8.64258 8.7722 8.65658 8.75754 8.67524 8.75754H8.67058Z" fill="#FFFF00" stroke="black" stroke-width="0.0666669"/>
<path d="M8.9598 8.75263C8.9598 8.5913 9.06713 8.5473 9.06713 8.5473C9.06713 8.5473 9.17447 8.59619 9.17447 8.75263H8.9598ZM8.68913 8.31263H9.4498C9.4638 8.31263 9.4778 8.33219 9.4778 8.35174C9.4778 8.36641 9.4638 8.38108 9.4498 8.38108H8.68913C8.67513 8.38108 8.66113 8.36641 8.66113 8.34686C8.66113 8.33219 8.67513 8.31752 8.68913 8.31752V8.31263ZM8.7078 8.38597H9.42647C9.44047 8.38597 9.45447 8.40063 9.45447 8.42019C9.45447 8.43974 9.44047 8.45441 9.42647 8.45441H8.70313C8.68447 8.45441 8.67513 8.43974 8.67513 8.42019C8.67513 8.40063 8.68447 8.38597 8.70313 8.38597H8.7078ZM8.94113 7.86774H8.99713V7.90685H9.03913V7.86774H9.0998V7.91174H9.1418V7.86285H9.1978V7.96063C9.1978 7.98019 9.18847 7.98997 9.17447 7.98997H8.96913C8.95513 7.98997 8.94113 7.98019 8.94113 7.96552V7.86774ZM9.1558 7.99974L9.1698 8.31263H8.96913L8.98313 7.99485H9.1558" fill="#FFFF00"/>
<path d="M9.1558 7.99974L9.1698 8.31263H8.96913L8.98313 7.99485H9.1558M8.9598 8.75263C8.9598 8.5913 9.06713 8.5473 9.06713 8.5473C9.06713 8.5473 9.17447 8.59619 9.17447 8.75263H8.9598ZM8.68913 8.31263H9.4498C9.4638 8.31263 9.4778 8.33219 9.4778 8.35174C9.4778 8.36641 9.4638 8.38108 9.4498 8.38108H8.68913C8.67513 8.38108 8.66113 8.36641 8.66113 8.34686C8.66113 8.33219 8.67513 8.31752 8.68913 8.31752V8.31263ZM8.7078 8.38597H9.42647C9.44047 8.38597 9.45447 8.40063 9.45447 8.42019C9.45447 8.43974 9.44047 8.45441 9.42647 8.45441H8.70313C8.68447 8.45441 8.67513 8.43974 8.67513 8.42019C8.67513 8.40063 8.68447 8.38597 8.70313 8.38597H8.7078ZM8.94113 7.86774H8.99713V7.90685H9.03913V7.86774H9.0998V7.91174H9.1418V7.86285H9.1978V7.96063C9.1978 7.98019 9.18847 7.98997 9.17447 7.98997H8.96913C8.95513 7.98997 8.94113 7.98019 8.94113 7.96552V7.86774Z" stroke="black" stroke-width="0.0666669"/>
<path d="M8.91323 8.14642V8.31265H8.72656V8.14642H8.91323Z" fill="#FFFF00" stroke="black" stroke-width="0.0666669"/>
<path d="M9.40835 8.14642V8.31265H9.22168V8.14642H9.40835Z" fill="#FFFF00" stroke="black" stroke-width="0.0666669"/>
<path d="M8.69434 8.01929H8.75034V8.06818H8.79234V8.01929H8.84834V8.06818H8.89034V8.01929H8.94634V8.11707C8.94634 8.13662 8.937 8.1464 8.923 8.1464H8.72234C8.71491 8.1464 8.70779 8.14331 8.70254 8.13781C8.69729 8.13231 8.69434 8.12484 8.69434 8.11707V8.01929Z" fill="#FFFF00" stroke="black" stroke-width="0.0666669"/>
<path d="M9.18848 8.01929H9.24448V8.06818H9.28648V8.01929H9.34248V8.06818H9.38448V8.01929H9.44048V8.11707C9.44048 8.13662 9.43114 8.1464 9.41714 8.1464H9.21648C9.20905 8.1464 9.20193 8.14331 9.19668 8.13781C9.19143 8.13231 9.18848 8.12484 9.18848 8.11707V8.01929Z" fill="#FFFF00" stroke="black" stroke-width="0.0666669"/>
<path d="M9.04883 8.0975C9.04883 8.06817 9.09083 8.06817 9.09083 8.0975V8.17572H9.04883V8.0975Z" fill="black"/>
<path d="M8.80078 8.20511C8.80078 8.17577 8.83811 8.17577 8.83811 8.20511V8.26377H8.80078V8.20511Z" fill="black"/>
<path d="M9.2959 8.20511C9.2959 8.17577 9.33323 8.17577 9.33323 8.20511V8.26377H9.2959V8.20511Z" fill="black"/>
<path d="M8.87598 11.0358C8.88064 10.7669 9.06264 10.7033 9.06264 10.7033C9.06731 10.7033 9.26331 10.7718 9.26331 11.0406H8.87598" fill="#FFFF00"/>
<path d="M8.71725 10.7082L8.68458 11.0162H8.88058C8.88058 10.762 9.06725 10.7229 9.06725 10.7229C9.07191 10.7229 9.25391 10.7766 9.25858 11.0162H9.45458L9.41725 10.7033H8.71725V10.7082ZM8.67058 11.0211H9.46391C9.47791 11.0211 9.49191 11.0358 9.49191 11.0553C9.49191 11.0798 9.47791 11.0944 9.46391 11.0944H8.67058C8.65658 11.0944 8.64258 11.0798 8.64258 11.0553C8.64258 11.0358 8.65658 11.0211 8.67524 11.0211H8.67058Z" fill="#FFFF00" stroke="black" stroke-width="0.0666669"/>
<path d="M8.9598 11.0162C8.9598 10.8549 9.06713 10.8109 9.06713 10.8109C9.06713 10.8109 9.17447 10.8597 9.17447 11.0162H8.9598ZM8.68913 10.5762H9.4498C9.4638 10.5762 9.4778 10.5957 9.4778 10.6153C9.4778 10.63 9.4638 10.6446 9.4498 10.6446H8.68913C8.67513 10.6446 8.66113 10.63 8.66113 10.6104C8.66113 10.5957 8.67513 10.5811 8.68913 10.5811V10.5762ZM8.7078 10.6495H9.42647C9.44047 10.6495 9.45447 10.6642 9.45447 10.6837C9.45447 10.7033 9.44047 10.718 9.42647 10.718H8.70313C8.68447 10.718 8.67513 10.7033 8.67513 10.6837C8.67513 10.6642 8.68447 10.6495 8.70313 10.6495H8.7078ZM8.94113 10.1313H8.99713V10.1704H9.03913V10.1313H9.0998V10.1753H9.1418V10.1264H9.1978V10.2242C9.1978 10.2437 9.18847 10.2535 9.17447 10.2535H8.96913C8.95513 10.2535 8.94113 10.2437 8.94113 10.2291V10.1313ZM9.1558 10.2633L9.1698 10.5762H8.96913L8.98313 10.2584H9.1558" fill="#FFFF00"/>
<path d="M9.1558 10.2633L9.1698 10.5762H8.96913L8.98313 10.2584H9.1558M8.9598 11.0162C8.9598 10.8549 9.06713 10.8109 9.06713 10.8109C9.06713 10.8109 9.17447 10.8597 9.17447 11.0162H8.9598ZM8.68913 10.5762H9.4498C9.4638 10.5762 9.4778 10.5957 9.4778 10.6153C9.4778 10.63 9.4638 10.6446 9.4498 10.6446H8.68913C8.67513 10.6446 8.66113 10.63 8.66113 10.6104C8.66113 10.5957 8.67513 10.5811 8.68913 10.5811V10.5762ZM8.7078 10.6495H9.42647C9.44047 10.6495 9.45447 10.6642 9.45447 10.6837C9.45447 10.7033 9.44047 10.718 9.42647 10.718H8.70313C8.68447 10.718 8.67513 10.7033 8.67513 10.6837C8.67513 10.6642 8.68447 10.6495 8.70313 10.6495H8.7078ZM8.94113 10.1313H8.99713V10.1704H9.03913V10.1313H9.0998V10.1753H9.1418V10.1264H9.1978V10.2242C9.1978 10.2437 9.18847 10.2535 9.17447 10.2535H8.96913C8.95513 10.2535 8.94113 10.2437 8.94113 10.2291V10.1313Z" stroke="black" stroke-width="0.0666669"/>
<path d="M8.91323 10.41V10.5762H8.72656V10.41H8.91323Z" fill="#FFFF00" stroke="black" stroke-width="0.0666669"/>
<path d="M9.40835 10.41V10.5762H9.22168V10.41H9.40835Z" fill="#FFFF00" stroke="black" stroke-width="0.0666669"/>
<path d="M8.69434 10.2828H8.75034V10.3317H8.79234V10.2828H8.84834V10.3317H8.89034V10.2828H8.94634V10.3806C8.94634 10.4002 8.937 10.4099 8.923 10.4099H8.72234C8.71491 10.4099 8.70779 10.4069 8.70254 10.4014C8.69729 10.3959 8.69434 10.3884 8.69434 10.3806V10.2828Z" fill="#FFFF00" stroke="black" stroke-width="0.0666669"/>
<path d="M9.18848 10.2828H9.24448V10.3317H9.28648V10.2828H9.34248V10.3317H9.38448V10.2828H9.44048V10.3806C9.44048 10.4002 9.43114 10.4099 9.41714 10.4099H9.21648C9.20905 10.4099 9.20193 10.4069 9.19668 10.4014C9.19143 10.3959 9.18848 10.3884 9.18848 10.3806V10.2828Z" fill="#FFFF00" stroke="black" stroke-width="0.0666669"/>
<path d="M9.04883 10.3611C9.04883 10.3317 9.09083 10.3317 9.09083 10.3611V10.4393H9.04883V10.3611Z" fill="black"/>
<path d="M8.80078 10.4687C8.80078 10.4393 8.83811 10.4393 8.83811 10.4687V10.5273H8.80078V10.4687Z" fill="black"/>
<path d="M9.2959 10.4687C9.2959 10.4393 9.33323 10.4393 9.33323 10.4687V10.5273H9.2959V10.4687Z" fill="black"/>
<path d="M9.7174 13.3949C9.53853 13.2019 9.6237 13.0218 9.6237 13.0218C9.62699 13.0184 9.81144 12.9209 9.9936 13.1104L9.72071 13.3983" fill="#FFFF00"/>
<path d="M9.38404 13.2819L9.56969 13.5233L9.70779 13.3776C9.53556 13.1984 9.64058 13.0321 9.64058 13.0321C9.64387 13.0286 9.80853 12.9313 9.97411 13.0966L10.1122 12.951L9.87393 12.7582L9.38073 13.2785L9.38404 13.2819ZM9.56314 13.5371L10.1221 12.9475C10.132 12.9371 10.1518 12.937 10.165 12.9508C10.1816 12.968 10.1816 12.9887 10.1718 12.9991L9.61282 13.5888C9.60296 13.5992 9.58316 13.5993 9.5666 13.5821C9.55335 13.5683 9.55327 13.5475 9.56643 13.5337L9.56314 13.5371Z" fill="#FFFF00" stroke="black" stroke-width="0.0666669"/>
<path d="M9.76337 13.3187C9.65408 13.205 9.69989 13.0942 9.69989 13.0942C9.69989 13.0942 9.80863 13.0489 9.91461 13.1591L9.76337 13.3187ZM9.27461 13.2097L9.81052 12.6444C9.82038 12.634 9.84349 12.6374 9.85674 12.6511C9.86667 12.6615 9.86675 12.6822 9.85688 12.6926L9.32098 13.258C9.31112 13.2684 9.29132 13.2685 9.27807 13.2547C9.26813 13.2443 9.26806 13.2236 9.27793 13.2132L9.27461 13.2097ZM9.33744 13.2476L9.84376 12.7134C9.85362 12.703 9.87342 12.7029 9.88667 12.7167C9.89991 12.7305 9.89999 12.7512 9.89012 12.7616L9.38052 13.2993C9.36737 13.3131 9.35086 13.3097 9.33761 13.2959C9.32436 13.2822 9.321 13.2649 9.33415 13.251L9.33744 13.2476ZM9.15077 12.7089L9.19023 12.6673L9.21672 12.6949L9.24631 12.6636L9.21981 12.6361L9.26256 12.591L9.29236 12.622L9.32195 12.5908L9.28883 12.5563L9.32829 12.5147L9.39452 12.5836C9.40777 12.5974 9.40782 12.6112 9.39796 12.6216L9.2533 12.7742C9.24343 12.7846 9.22695 12.7882 9.21701 12.7778L9.15077 12.7089ZM9.39143 12.6424L9.61325 12.8525L9.47188 13.0016L9.26647 12.7673L9.38812 12.6389" fill="#FFFF00"/>
<path d="M9.39143 12.6424L9.61325 12.8525L9.47188 13.0016L9.26647 12.7673L9.38812 12.6389M9.76337 13.3187C9.65408 13.205 9.69989 13.0942 9.69989 13.0942C9.69989 13.0942 9.80863 13.0489 9.91461 13.1591L9.76337 13.3187ZM9.27461 13.2097L9.81052 12.6444C9.82038 12.634 9.84349 12.6374 9.85674 12.6511C9.86667 12.6615 9.86675 12.6822 9.85688 12.6926L9.32098 13.258C9.31112 13.2684 9.29132 13.2685 9.27807 13.2547C9.26813 13.2443 9.26806 13.2236 9.27793 13.2132L9.27461 13.2097ZM9.33744 13.2476L9.84376 12.7134C9.85362 12.703 9.87342 12.7029 9.88667 12.7167C9.89991 12.7305 9.89999 12.7512 9.89012 12.7616L9.38052 13.2993C9.36737 13.3131 9.35086 13.3097 9.33761 13.2959C9.32436 13.2822 9.321 13.2649 9.33415 13.251L9.33744 13.2476ZM9.15077 12.7089L9.19023 12.6673L9.21672 12.6949L9.24631 12.6636L9.21981 12.6361L9.26256 12.591L9.29236 12.622L9.32195 12.5908L9.28883 12.5563L9.32829 12.5147L9.39452 12.5836C9.40777 12.5974 9.40782 12.6112 9.39796 12.6216L9.2533 12.7742C9.24343 12.7846 9.22695 12.7882 9.21701 12.7778L9.15077 12.7089Z" stroke="black" stroke-width="0.0666669"/>
<path d="M9.31999 12.9262L9.43259 13.0433L9.30108 13.1821L9.18848 13.0649L9.31999 12.9262Z" fill="#FFFF00" stroke="black" stroke-width="0.0666669"/>
<path d="M9.66862 12.5585L9.78123 12.6756L9.64971 12.8144L9.53711 12.6972L9.66862 12.5585Z" fill="#FFFF00" stroke="black" stroke-width="0.0666669"/>
<path d="M9.08008 12.9996L9.11953 12.958L9.15265 12.9925L9.18225 12.9612L9.14912 12.9268L9.18858 12.8852L9.2217 12.9196L9.25129 12.8884L9.21817 12.854L9.25763 12.8123L9.32387 12.8812C9.33712 12.895 9.33717 12.9089 9.3273 12.9193L9.18592 13.0684C9.18069 13.0739 9.17358 13.077 9.16615 13.0771C9.15872 13.0771 9.15159 13.074 9.14632 13.0685L9.08008 12.9996Z" fill="#FFFF00" stroke="black" stroke-width="0.0666669"/>
<path d="M9.42773 12.6319L9.46719 12.5903L9.50031 12.6247L9.5299 12.5935L9.49678 12.5591L9.53624 12.5174L9.56936 12.5519L9.59895 12.5207L9.56583 12.4862L9.60528 12.4446L9.67153 12.5135C9.68477 12.5273 9.68482 12.5411 9.67496 12.5515L9.53358 12.7007C9.52834 12.7062 9.52123 12.7093 9.51381 12.7093C9.50638 12.7094 9.49925 12.7063 9.49398 12.7008L9.42773 12.6319Z" fill="#FFFF00" stroke="black" stroke-width="0.0666669"/>
<path d="M9.38209 12.7911C9.36222 12.7705 9.39181 12.7393 9.41168 12.7599L9.46466 12.815L9.43508 12.8463L9.38209 12.7911Z" fill="black"/>
<path d="M9.2815 13.0508C9.26163 13.0301 9.28793 13.0024 9.3078 13.023L9.34754 13.0644L9.32124 13.0921L9.2815 13.0508Z" fill="black"/>
<path d="M9.63014 12.683C9.61027 12.6624 9.63657 12.6346 9.65644 12.6553L9.69618 12.6966L9.66988 12.7244L9.63014 12.683Z" fill="black"/>
<path d="M11.0088 8.7722C11.0135 8.50331 11.1955 8.43976 11.1955 8.43976C11.2001 8.43976 11.3961 8.5082 11.3961 8.77709H11.0088" fill="#FFFF00"/>
<path d="M10.8501 8.44465L10.8174 8.75265H11.0134C11.0134 8.49842 11.2001 8.45931 11.2001 8.45931C11.2047 8.45931 11.3867 8.51309 11.3914 8.75265H11.5874L11.5501 8.43976H10.8501V8.44465ZM10.8034 8.75754H11.5967C11.6107 8.75754 11.6247 8.7722 11.6247 8.79176C11.6247 8.8162 11.6107 8.83087 11.5967 8.83087H10.8034C10.7894 8.83087 10.7754 8.8162 10.7754 8.79176C10.7754 8.7722 10.7894 8.75754 10.8081 8.75754H10.8034Z" fill="#FFFF00" stroke="black" stroke-width="0.0666669"/>
<path d="M11.0926 8.75263C11.0926 8.5913 11.1999 8.5473 11.1999 8.5473C11.1999 8.5473 11.3073 8.59619 11.3073 8.75263H11.0926ZM10.8219 8.31263H11.5826C11.5966 8.31263 11.6106 8.33219 11.6106 8.35174C11.6106 8.36641 11.5966 8.38108 11.5826 8.38108H10.8219C10.8079 8.38108 10.7939 8.36641 10.7939 8.34686C10.7939 8.33219 10.8079 8.31752 10.8219 8.31752V8.31263ZM10.8406 8.38597H11.5593C11.5733 8.38597 11.5873 8.40063 11.5873 8.42019C11.5873 8.43974 11.5733 8.45441 11.5593 8.45441H10.8359C10.8173 8.45441 10.8079 8.43974 10.8079 8.42019C10.8079 8.40063 10.8173 8.38597 10.8359 8.38597H10.8406ZM11.0739 7.86774H11.1299V7.90685H11.1719V7.86774H11.2326V7.91174H11.2746V7.86285H11.3306V7.96063C11.3306 7.98019 11.3213 7.98997 11.3073 7.98997H11.1019C11.0879 7.98997 11.0739 7.98019 11.0739 7.96552V7.86774ZM11.2886 7.99974L11.3026 8.31263H11.1019L11.1159 7.99485H11.2886" fill="#FFFF00"/>
<path d="M11.2886 7.99974L11.3026 8.31263H11.1019L11.1159 7.99485H11.2886M11.0926 8.75263C11.0926 8.5913 11.1999 8.5473 11.1999 8.5473C11.1999 8.5473 11.3073 8.59619 11.3073 8.75263H11.0926ZM10.8219 8.31263H11.5826C11.5966 8.31263 11.6106 8.33219 11.6106 8.35174C11.6106 8.36641 11.5966 8.38108 11.5826 8.38108H10.8219C10.8079 8.38108 10.7939 8.36641 10.7939 8.34686C10.7939 8.33219 10.8079 8.31752 10.8219 8.31752V8.31263ZM10.8406 8.38597H11.5593C11.5733 8.38597 11.5873 8.40063 11.5873 8.42019C11.5873 8.43974 11.5733 8.45441 11.5593 8.45441H10.8359C10.8173 8.45441 10.8079 8.43974 10.8079 8.42019C10.8079 8.40063 10.8173 8.38597 10.8359 8.38597H10.8406ZM11.0739 7.86774H11.1299V7.90685H11.1719V7.86774H11.2326V7.91174H11.2746V7.86285H11.3306V7.96063C11.3306 7.98019 11.3213 7.98997 11.3073 7.98997H11.1019C11.0879 7.98997 11.0739 7.98019 11.0739 7.96552V7.86774Z" stroke="black" stroke-width="0.0666669"/>
<path d="M11.046 8.14642V8.31265H10.8594V8.14642H11.046Z" fill="#FFFF00" stroke="black" stroke-width="0.0666669"/>
<path d="M11.5412 8.14642V8.31265H11.3545V8.14642H11.5412Z" fill="#FFFF00" stroke="black" stroke-width="0.0666669"/>
<path d="M10.8271 8.01929H10.8831V8.06818H10.9251V8.01929H10.9811V8.06818H11.0231V8.01929H11.0791V8.11707C11.0791 8.13662 11.0698 8.1464 11.0558 8.1464H10.8551C10.8477 8.1464 10.8406 8.14331 10.8353 8.13781C10.8301 8.13231 10.8271 8.12484 10.8271 8.11707V8.01929Z" fill="#FFFF00" stroke="black" stroke-width="0.0666669"/>
<path d="M11.3213 8.01929H11.3773V8.06818H11.4193V8.01929H11.4753V8.06818H11.5173V8.01929H11.5733V8.11707C11.5733 8.13662 11.564 8.1464 11.55 8.1464H11.3493C11.3419 8.1464 11.3347 8.14331 11.3295 8.13781C11.3242 8.13231 11.3213 8.12484 11.3213 8.11707V8.01929Z" fill="#FFFF00" stroke="black" stroke-width="0.0666669"/>
<path d="M11.1816 8.0975C11.1816 8.06817 11.2236 8.06817 11.2236 8.0975V8.17572H11.1816V8.0975Z" fill="black"/>
<path d="M10.9336 8.20511C10.9336 8.17577 10.9709 8.17577 10.9709 8.20511V8.26377H10.9336V8.20511Z" fill="black"/>
<path d="M11.4287 8.20511C11.4287 8.17577 11.466 8.17577 11.466 8.20511V8.26377H11.4287V8.20511Z" fill="black"/>
<path d="M13.5146 8.7722C13.51 8.50331 13.328 8.43976 13.328 8.43976C13.3233 8.43976 13.1273 8.5082 13.1273 8.77709H13.5146" fill="#FFFF00"/>
<path d="M13.6734 8.44465L13.706 8.75265H13.51C13.51 8.49842 13.3234 8.45931 13.3234 8.45931C13.3187 8.45931 13.1367 8.51309 13.132 8.75265H12.936L12.9734 8.43976H13.6734V8.44465ZM13.72 8.75754H12.9267C12.9127 8.75754 12.8987 8.7722 12.8987 8.79176C12.8987 8.8162 12.9127 8.83087 12.9267 8.83087H13.72C13.734 8.83087 13.748 8.8162 13.748 8.79176C13.748 8.7722 13.734 8.75754 13.7154 8.75754H13.72Z" fill="#FFFF00" stroke="black" stroke-width="0.0666669"/>
<path d="M13.4308 8.75263C13.4308 8.5913 13.3235 8.5473 13.3235 8.5473C13.3235 8.5473 13.2162 8.59619 13.2162 8.75263H13.4308ZM13.7015 8.31263H12.9408C12.9268 8.31263 12.9128 8.33219 12.9128 8.35174C12.9128 8.36641 12.9268 8.38108 12.9408 8.38108H13.7015C13.7155 8.38108 13.7295 8.36641 13.7295 8.34686C13.7295 8.33219 13.7155 8.31752 13.7015 8.31752V8.31263ZM13.6828 8.38597H12.9642C12.9502 8.38597 12.9362 8.40063 12.9362 8.42019C12.9362 8.43974 12.9502 8.45441 12.9642 8.45441H13.6875C13.7062 8.45441 13.7155 8.43974 13.7155 8.42019C13.7155 8.40063 13.7062 8.38597 13.6875 8.38597H13.6828ZM13.4495 7.86774H13.3935V7.90685H13.3515V7.86774H13.2908V7.91174H13.2488V7.86285H13.1928V7.96063C13.1928 7.98019 13.2022 7.98997 13.2162 7.98997H13.4215C13.4355 7.98997 13.4495 7.98019 13.4495 7.96552V7.86774ZM13.2348 7.99974L13.2208 8.31263H13.4215L13.4075 7.99485H13.2348" fill="#FFFF00"/>
<path d="M13.2348 7.99974L13.2208 8.31263H13.4215L13.4075 7.99485H13.2348M13.4308 8.75263C13.4308 8.5913 13.3235 8.5473 13.3235 8.5473C13.3235 8.5473 13.2162 8.59619 13.2162 8.75263H13.4308ZM13.7015 8.31263H12.9408C12.9268 8.31263 12.9128 8.33219 12.9128 8.35174C12.9128 8.36641 12.9268 8.38108 12.9408 8.38108H13.7015C13.7155 8.38108 13.7295 8.36641 13.7295 8.34686C13.7295 8.33219 13.7155 8.31752 13.7015 8.31752V8.31263ZM13.6828 8.38597H12.9642C12.9502 8.38597 12.9362 8.40063 12.9362 8.42019C12.9362 8.43974 12.9502 8.45441 12.9642 8.45441H13.6875C13.7062 8.45441 13.7155 8.43974 13.7155 8.42019C13.7155 8.40063 13.7062 8.38597 13.6875 8.38597H13.6828ZM13.4495 7.86774H13.3935V7.90685H13.3515V7.86774H13.2908V7.91174H13.2488V7.86285H13.1928V7.96063C13.1928 7.98019 13.2022 7.98997 13.2162 7.98997H13.4215C13.4355 7.98997 13.4495 7.98019 13.4495 7.96552V7.86774Z" stroke="black" stroke-width="0.0666669"/>
<path d="M13.4774 8.14642V8.31265H13.6641V8.14642H13.4774Z" fill="#FFFF00" stroke="black" stroke-width="0.0666669"/>
<path d="M12.9823 8.14642V8.31265H13.1689V8.14642H12.9823Z" fill="#FFFF00" stroke="black" stroke-width="0.0666669"/>
<path d="M13.6963 8.01929H13.6403V8.06818H13.5983V8.01929H13.5423V8.06818H13.5003V8.01929H13.4443V8.11707C13.4443 8.13662 13.4536 8.1464 13.4676 8.1464H13.6683C13.6757 8.1464 13.6828 8.14331 13.6881 8.13781C13.6933 8.13231 13.6963 8.12484 13.6963 8.11707V8.01929Z" fill="#FFFF00" stroke="black" stroke-width="0.0666669"/>
<path d="M13.2021 8.01929H13.1461V8.06818H13.1041V8.01929H13.0481V8.06818H13.0061V8.01929H12.9501V8.11707C12.9501 8.13662 12.9595 8.1464 12.9735 8.1464H13.1741C13.1816 8.1464 13.1887 8.14331 13.1939 8.13781C13.1992 8.13231 13.2021 8.12484 13.2021 8.11707V8.01929Z" fill="#FFFF00" stroke="black" stroke-width="0.0666669"/>
<path d="M13.3418 8.0975C13.3418 8.06817 13.2998 8.06817 13.2998 8.0975V8.17572H13.3418V8.0975Z" fill="black"/>
<path d="M13.5898 8.20511C13.5898 8.17577 13.5525 8.17577 13.5525 8.20511V8.26377H13.5898V8.20511Z" fill="black"/>
<path d="M13.0947 8.20511C13.0947 8.17577 13.0574 8.17577 13.0574 8.20511V8.26377H13.0947V8.20511Z" fill="black"/>
<path d="M13.5146 11.0358C13.51 10.7669 13.328 10.7033 13.328 10.7033C13.3233 10.7033 13.1273 10.7718 13.1273 11.0406H13.5146" fill="#FFFF00"/>
<path d="M13.6734 10.7082L13.706 11.0162H13.51C13.51 10.762 13.3234 10.7229 13.3234 10.7229C13.3187 10.7229 13.1367 10.7766 13.132 11.0162H12.936L12.9734 10.7033H13.6734V10.7082ZM13.72 11.0211H12.9267C12.9127 11.0211 12.8987 11.0358 12.8987 11.0553C12.8987 11.0798 12.9127 11.0944 12.9267 11.0944H13.72C13.734 11.0944 13.748 11.0798 13.748 11.0553C13.748 11.0358 13.734 11.0211 13.7154 11.0211H13.72Z" fill="#FFFF00" stroke="black" stroke-width="0.0666669"/>
<path d="M13.4308 11.0162C13.4308 10.8549 13.3235 10.8109 13.3235 10.8109C13.3235 10.8109 13.2162 10.8597 13.2162 11.0162H13.4308ZM13.7015 10.5762H12.9408C12.9268 10.5762 12.9128 10.5957 12.9128 10.6153C12.9128 10.63 12.9268 10.6446 12.9408 10.6446H13.7015C13.7155 10.6446 13.7295 10.63 13.7295 10.6104C13.7295 10.5957 13.7155 10.5811 13.7015 10.5811V10.5762ZM13.6828 10.6495H12.9642C12.9502 10.6495 12.9362 10.6642 12.9362 10.6837C12.9362 10.7033 12.9502 10.718 12.9642 10.718H13.6875C13.7062 10.718 13.7155 10.7033 13.7155 10.6837C13.7155 10.6642 13.7062 10.6495 13.6875 10.6495H13.6828ZM13.4495 10.1313H13.3935V10.1704H13.3515V10.1313H13.2908V10.1753H13.2488V10.1264H13.1928V10.2242C13.1928 10.2437 13.2022 10.2535 13.2162 10.2535H13.4215C13.4355 10.2535 13.4495 10.2437 13.4495 10.2291V10.1313ZM13.2348 10.2633L13.2208 10.5762H13.4215L13.4075 10.2584H13.2348" fill="#FFFF00"/>
<path d="M13.2348 10.2633L13.2208 10.5762H13.4215L13.4075 10.2584H13.2348M13.4308 11.0162C13.4308 10.8549 13.3235 10.8109 13.3235 10.8109C13.3235 10.8109 13.2162 10.8597 13.2162 11.0162H13.4308ZM13.7015 10.5762H12.9408C12.9268 10.5762 12.9128 10.5957 12.9128 10.6153C12.9128 10.63 12.9268 10.6446 12.9408 10.6446H13.7015C13.7155 10.6446 13.7295 10.63 13.7295 10.6104C13.7295 10.5957 13.7155 10.5811 13.7015 10.5811V10.5762ZM13.6828 10.6495H12.9642C12.9502 10.6495 12.9362 10.6642 12.9362 10.6837C12.9362 10.7033 12.9502 10.718 12.9642 10.718H13.6875C13.7062 10.718 13.7155 10.7033 13.7155 10.6837C13.7155 10.6642 13.7062 10.6495 13.6875 10.6495H13.6828ZM13.4495 10.1313H13.3935V10.1704H13.3515V10.1313H13.2908V10.1753H13.2488V10.1264H13.1928V10.2242C13.1928 10.2437 13.2022 10.2535 13.2162 10.2535H13.4215C13.4355 10.2535 13.4495 10.2437 13.4495 10.2291V10.1313Z" stroke="black" stroke-width="0.0666669"/>
<path d="M13.4774 10.41V10.5762H13.6641V10.41H13.4774Z" fill="#FFFF00" stroke="black" stroke-width="0.0666669"/>
<path d="M12.9823 10.41V10.5762H13.1689V10.41H12.9823Z" fill="#FFFF00" stroke="black" stroke-width="0.0666669"/>
<path d="M13.6963 10.2828H13.6403V10.3317H13.5983V10.2828H13.5423V10.3317H13.5003V10.2828H13.4443V10.3806C13.4443 10.4002 13.4536 10.4099 13.4676 10.4099H13.6683C13.6757 10.4099 13.6828 10.4069 13.6881 10.4014C13.6933 10.3959 13.6963 10.3884 13.6963 10.3806V10.2828Z" fill="#FFFF00" stroke="black" stroke-width="0.0666669"/>
<path d="M13.2021 10.2828H13.1461V10.3317H13.1041V10.2828H13.0481V10.3317H13.0061V10.2828H12.9501V10.3806C12.9501 10.4002 12.9595 10.4099 12.9735 10.4099H13.1741C13.1816 10.4099 13.1887 10.4069 13.1939 10.4014C13.1992 10.3959 13.2021 10.3884 13.2021 10.3806V10.2828Z" fill="#FFFF00" stroke="black" stroke-width="0.0666669"/>
<path d="M13.3418 10.3611C13.3418 10.3317 13.2998 10.3317 13.2998 10.3611V10.4393H13.3418V10.3611Z" fill="black"/>
<path d="M13.5898 10.4687C13.5898 10.4393 13.5525 10.4393 13.5525 10.4687V10.5273H13.5898V10.4687Z" fill="black"/>
<path d="M13.0947 10.4687C13.0947 10.4393 13.0574 10.4393 13.0574 10.4687V10.5273H13.0947V10.4687Z" fill="black"/>
<path d="M12.6732 13.3949C12.8521 13.2019 12.7669 13.0218 12.7669 13.0218C12.7636 13.0184 12.5792 12.9209 12.397 13.1104L12.6699 13.3983" fill="#FFFF00"/>
<path d="M13.0066 13.2819L12.8209 13.5233L12.6828 13.3776C12.8551 13.1984 12.75 13.0321 12.75 13.0321C12.7468 13.0286 12.5821 12.9313 12.4165 13.0966L12.2784 12.951L12.5167 12.7582L13.0099 13.2785L13.0066 13.2819ZM12.8275 13.5371L12.2685 12.9475C12.2587 12.9371 12.2389 12.937 12.2256 12.9508C12.2091 12.968 12.209 12.9887 12.2188 12.9991L12.7778 13.5888C12.7877 13.5992 12.8075 13.5993 12.824 13.5821C12.8373 13.5683 12.8374 13.5475 12.8242 13.5337L12.8275 13.5371Z" fill="#FFFF00" stroke="black" stroke-width="0.0666669"/>
<path d="M12.6273 13.3187C12.7365 13.205 12.6907 13.0942 12.6907 13.0942C12.6907 13.0942 12.582 13.0489 12.476 13.1591L12.6273 13.3187ZM13.116 13.2097L12.5801 12.6444C12.5702 12.634 12.5471 12.6374 12.5339 12.6511C12.524 12.6615 12.5239 12.6822 12.5337 12.6926L13.0696 13.258C13.0795 13.2684 13.0993 13.2685 13.1126 13.2547C13.1225 13.2443 13.1226 13.2236 13.1127 13.2132L13.116 13.2097ZM13.0532 13.2476L12.5469 12.7134C12.537 12.703 12.5172 12.7029 12.504 12.7167C12.4907 12.7305 12.4906 12.7512 12.5005 12.7616L13.0101 13.2993C13.0233 13.3131 13.0398 13.3097 13.053 13.2959C13.0663 13.2822 13.0696 13.2649 13.0565 13.251L13.0532 13.2476ZM13.2399 12.7089L13.2004 12.6673L13.1739 12.6949L13.1443 12.6636L13.1708 12.6361L13.1281 12.591L13.0983 12.622L13.0687 12.5908L13.1018 12.5563L13.0623 12.5147L12.9961 12.5836C12.9829 12.5974 12.9828 12.6112 12.9927 12.6216L13.1373 12.7742C13.1472 12.7846 13.1637 12.7882 13.1736 12.7778L13.2399 12.7089ZM12.9992 12.6424L12.7774 12.8525L12.9187 13.0016L13.1242 12.7673L13.0025 12.6389" fill="#FFFF00"/>
<path d="M12.9992 12.6424L12.7774 12.8525L12.9187 13.0016L13.1242 12.7673L13.0025 12.6389M12.6273 13.3187C12.7365 13.205 12.6907 13.0942 12.6907 13.0942C12.6907 13.0942 12.582 13.0489 12.476 13.1591L12.6273 13.3187ZM13.116 13.2097L12.5801 12.6444C12.5702 12.634 12.5471 12.6374 12.5339 12.6511C12.524 12.6615 12.5239 12.6822 12.5337 12.6926L13.0696 13.258C13.0795 13.2684 13.0993 13.2685 13.1126 13.2547C13.1225 13.2443 13.1226 13.2236 13.1127 13.2132L13.116 13.2097ZM13.0532 13.2476L12.5469 12.7134C12.537 12.703 12.5172 12.7029 12.504 12.7167C12.4907 12.7305 12.4906 12.7512 12.5005 12.7616L13.0101 13.2993C13.0233 13.3131 13.0398 13.3097 13.053 13.2959C13.0663 13.2822 13.0696 13.2649 13.0565 13.251L13.0532 13.2476ZM13.2399 12.7089L13.2004 12.6673L13.1739 12.6949L13.1443 12.6636L13.1708 12.6361L13.1281 12.591L13.0983 12.622L13.0687 12.5908L13.1018 12.5563L13.0623 12.5147L12.9961 12.5836C12.9829 12.5974 12.9828 12.6112 12.9927 12.6216L13.1373 12.7742C13.1472 12.7846 13.1637 12.7882 13.1736 12.7778L13.2399 12.7089Z" stroke="black" stroke-width="0.0666669"/>
<path d="M13.0706 12.9262L12.958 13.0433L13.0895 13.1821L13.2021 13.0649L13.0706 12.9262Z" fill="#FFFF00" stroke="black" stroke-width="0.0666669"/>
<path d="M12.722 12.5585L12.6094 12.6756L12.7409 12.8144L12.8535 12.6972L12.722 12.5585Z" fill="#FFFF00" stroke="black" stroke-width="0.0666669"/>
<path d="M13.3105 12.9996L13.2711 12.958L13.238 12.9925L13.2084 12.9612L13.2415 12.9268L13.202 12.8852L13.1689 12.9196L13.1393 12.8884L13.1725 12.854L13.133 12.8123L13.0668 12.8812C13.0535 12.895 13.0535 12.9089 13.0633 12.9193L13.2047 13.0684C13.2099 13.0739 13.217 13.077 13.2245 13.0771C13.2319 13.0771 13.239 13.074 13.2443 13.0685L13.3105 12.9996Z" fill="#FFFF00" stroke="black" stroke-width="0.0666669"/>
<path d="M12.9629 12.6319L12.9234 12.5903L12.8903 12.6247L12.8607 12.5935L12.8938 12.5591L12.8544 12.5174L12.8213 12.5519L12.7917 12.5207L12.8248 12.4862L12.7853 12.4446L12.7191 12.5135C12.7059 12.5273 12.7058 12.5411 12.7157 12.5515L12.857 12.7007C12.8623 12.7062 12.8694 12.7093 12.8768 12.7093C12.8842 12.7094 12.8914 12.7063 12.8966 12.7008L12.9629 12.6319Z" fill="#FFFF00" stroke="black" stroke-width="0.0666669"/>
<path d="M13.0085 12.7911C13.0284 12.7705 12.9988 12.7393 12.9789 12.7599L12.926 12.815L12.9555 12.8463L13.0085 12.7911Z" fill="black"/>
<path d="M13.1091 13.0508C13.129 13.0301 13.1027 13.0024 13.0828 13.023L13.0431 13.0644L13.0694 13.0921L13.1091 13.0508Z" fill="black"/>
<path d="M12.7605 12.683C12.7804 12.6624 12.7541 12.6346 12.7342 12.6553L12.6944 12.6966L12.7207 12.7244L12.7605 12.683Z" fill="black"/>
<path d="M10.8545 11.1189C10.8537 11.2221 10.8904 11.3217 10.9572 11.3976C10.9883 11.4341 11.0264 11.4634 11.069 11.4836C11.1116 11.5038 11.1578 11.5144 11.2045 11.5149C11.3025 11.5149 11.3912 11.466 11.4518 11.3976C11.5186 11.3217 11.5554 11.2221 11.5545 11.1189V10.5909H10.8545V11.1189Z" fill="#003399"/>
<path d="M11.0182 10.8647C11.0569 10.8647 11.0882 10.8319 11.0882 10.7914C11.0882 10.7509 11.0569 10.718 11.0182 10.718C10.9796 10.718 10.9482 10.7509 10.9482 10.7914C10.9482 10.8319 10.9796 10.8647 11.0182 10.8647Z" fill="white"/>
<path d="M11.405 10.8647C11.4436 10.8647 11.475 10.8319 11.475 10.7914C11.475 10.7509 11.4436 10.718 11.405 10.718C11.3663 10.718 11.335 10.7509 11.335 10.7914C11.335 10.8319 11.3663 10.8647 11.405 10.8647Z" fill="white"/>
<path d="M11.2096 11.0602C11.2483 11.0602 11.2796 11.0274 11.2796 10.9869C11.2796 10.9464 11.2483 10.9136 11.2096 10.9136C11.171 10.9136 11.1396 10.9464 11.1396 10.9869C11.1396 11.0274 11.171 11.0602 11.2096 11.0602Z" fill="white"/>
<path d="M11.0182 11.2656C11.0569 11.2656 11.0882 11.2327 11.0882 11.1922C11.0882 11.1517 11.0569 11.1189 11.0182 11.1189C10.9796 11.1189 10.9482 11.1517 10.9482 11.1922C10.9482 11.2327 10.9796 11.2656 11.0182 11.2656Z" fill="white"/>
<path d="M11.405 11.2656C11.4436 11.2656 11.475 11.2327 11.475 11.1922C11.475 11.1517 11.4436 11.1189 11.405 11.1189C11.3663 11.1189 11.335 11.1517 11.335 11.1922C11.335 11.2327 11.3663 11.2656 11.405 11.2656Z" fill="white"/>
<path d="M10.8545 9.84776C10.8537 9.95095 10.8904 10.0506 10.9572 10.1264C10.9883 10.1629 11.0264 10.1922 11.069 10.2124C11.1116 10.2326 11.1578 10.2433 11.2045 10.2438C11.3025 10.2438 11.3912 10.1949 11.4518 10.1264C11.5186 10.0506 11.5554 9.95095 11.5545 9.84776V9.31976H10.8545V9.84776Z" fill="#003399"/>
<path d="M11.0182 9.59357C11.0569 9.59357 11.0882 9.56073 11.0882 9.52023C11.0882 9.47973 11.0569 9.4469 11.0182 9.4469C10.9796 9.4469 10.9482 9.47973 10.9482 9.52023C10.9482 9.56073 10.9796 9.59357 11.0182 9.59357Z" fill="white"/>
<path d="M11.405 9.59357C11.4436 9.59357 11.475 9.56073 11.475 9.52023C11.475 9.47973 11.4436 9.4469 11.405 9.4469C11.3663 9.4469 11.335 9.47973 11.335 9.52023C11.335 9.56073 11.3663 9.59357 11.405 9.59357Z" fill="white"/>
<path d="M11.2096 9.78912C11.2483 9.78912 11.2796 9.75629 11.2796 9.71579C11.2796 9.67529 11.2483 9.64246 11.2096 9.64246C11.171 9.64246 11.1396 9.67529 11.1396 9.71579C11.1396 9.75629 11.171 9.78912 11.2096 9.78912Z" fill="white"/>
<path d="M11.0182 9.99445C11.0569 9.99445 11.0882 9.96161 11.0882 9.92111C11.0882 9.88061 11.0569 9.84778 11.0182 9.84778C10.9796 9.84778 10.9482 9.88061 10.9482 9.92111C10.9482 9.96161 10.9796 9.99445 11.0182 9.99445Z" fill="white"/>
<path d="M11.405 9.99445C11.4436 9.99445 11.475 9.96161 11.475 9.92111C11.475 9.88061 11.4436 9.84778 11.405 9.84778C11.3663 9.84778 11.335 9.88061 11.335 9.92111C11.335 9.96161 11.3663 9.99445 11.405 9.99445Z" fill="white"/>
<path d="M9.8838 11.1189C9.88296 11.2221 9.91967 11.3217 9.98647 11.3976C10.0176 11.4341 10.0557 11.4634 10.0983 11.4836C10.1409 11.5038 10.1871 11.5144 10.2338 11.5149C10.3318 11.5149 10.4205 11.466 10.4811 11.3976C10.5479 11.3217 10.5847 11.2221 10.5838 11.1189V10.5909H9.8838V11.1189Z" fill="#003399"/>
<path d="M10.0475 10.8647C10.0862 10.8647 10.1175 10.8319 10.1175 10.7914C10.1175 10.7509 10.0862 10.718 10.0475 10.718C10.0089 10.718 9.97754 10.7509 9.97754 10.7914C9.97754 10.8319 10.0089 10.8647 10.0475 10.8647Z" fill="white"/>
<path d="M10.4343 10.8647C10.4729 10.8647 10.5043 10.8319 10.5043 10.7914C10.5043 10.7509 10.4729 10.718 10.4343 10.718C10.3956 10.718 10.3643 10.7509 10.3643 10.7914C10.3643 10.8319 10.3956 10.8647 10.4343 10.8647Z" fill="white"/>
<path d="M10.2389 11.0602C10.2776 11.0602 10.3089 11.0274 10.3089 10.9869C10.3089 10.9464 10.2776 10.9136 10.2389 10.9136C10.2003 10.9136 10.1689 10.9464 10.1689 10.9869C10.1689 11.0274 10.2003 11.0602 10.2389 11.0602Z" fill="white"/>
<path d="M10.0475 11.2656C10.0862 11.2656 10.1175 11.2327 10.1175 11.1922C10.1175 11.1517 10.0862 11.1189 10.0475 11.1189C10.0089 11.1189 9.97754 11.1517 9.97754 11.1922C9.97754 11.2327 10.0089 11.2656 10.0475 11.2656Z" fill="white"/>
<path d="M10.4343 11.2656C10.4729 11.2656 10.5043 11.2327 10.5043 11.1922C10.5043 11.1517 10.4729 11.1189 10.4343 11.1189C10.3956 11.1189 10.3643 11.1517 10.3643 11.1922C10.3643 11.2327 10.3956 11.2656 10.4343 11.2656Z" fill="white"/>
<path d="M11.8252 11.1189C11.8244 11.2221 11.8611 11.3217 11.9279 11.3976C11.959 11.4341 11.9971 11.4634 12.0397 11.4836C12.0823 11.5038 12.1285 11.5144 12.1752 11.5149C12.2732 11.5149 12.3619 11.466 12.4225 11.3976C12.4893 11.3217 12.5261 11.2221 12.5252 11.1189V10.5909H11.8252V11.1189Z" fill="#003399"/>
<path d="M11.9889 10.8647C12.0276 10.8647 12.0589 10.8319 12.0589 10.7914C12.0589 10.7509 12.0276 10.718 11.9889 10.718C11.9503 10.718 11.9189 10.7509 11.9189 10.7914C11.9189 10.8319 11.9503 10.8647 11.9889 10.8647Z" fill="white"/>
<path d="M12.3757 10.8647C12.4143 10.8647 12.4457 10.8319 12.4457 10.7914C12.4457 10.7509 12.4143 10.718 12.3757 10.718C12.337 10.718 12.3057 10.7509 12.3057 10.7914C12.3057 10.8319 12.337 10.8647 12.3757 10.8647Z" fill="white"/>
<path d="M12.1804 11.0602C12.219 11.0602 12.2504 11.0274 12.2504 10.9869C12.2504 10.9464 12.219 10.9136 12.1804 10.9136C12.1417 10.9136 12.1104 10.9464 12.1104 10.9869C12.1104 11.0274 12.1417 11.0602 12.1804 11.0602Z" fill="white"/>
<path d="M11.9889 11.2656C12.0276 11.2656 12.0589 11.2327 12.0589 11.1922C12.0589 11.1517 12.0276 11.1189 11.9889 11.1189C11.9503 11.1189 11.9189 11.1517 11.9189 11.1922C11.9189 11.2327 11.9503 11.2656 11.9889 11.2656Z" fill="white"/>
<path d="M12.3757 11.2656C12.4143 11.2656 12.4457 11.2327 12.4457 11.1922C12.4457 11.1517 12.4143 11.1189 12.3757 11.1189C12.337 11.1189 12.3057 11.1517 12.3057 11.1922C12.3057 11.2327 12.337 11.2656 12.3757 11.2656Z" fill="white"/>
<path d="M10.8545 12.3802C10.8537 12.4834 10.8904 12.5831 10.9572 12.6589C10.9883 12.6954 11.0264 12.7247 11.069 12.7449C11.1116 12.7651 11.1578 12.7758 11.2045 12.7762C11.3025 12.7762 11.3912 12.7273 11.4518 12.6589C11.5186 12.5831 11.5554 12.4834 11.5545 12.3802V11.8522H10.8545V12.3802Z" fill="#003399"/>
<path d="M11.0182 12.126C11.0569 12.126 11.0882 12.0932 11.0882 12.0527C11.0882 12.0122 11.0569 11.9794 11.0182 11.9794C10.9796 11.9794 10.9482 12.0122 10.9482 12.0527C10.9482 12.0932 10.9796 12.126 11.0182 12.126Z" fill="white"/>
<path d="M11.405 12.126C11.4436 12.126 11.475 12.0932 11.475 12.0527C11.475 12.0122 11.4436 11.9794 11.405 11.9794C11.3663 11.9794 11.335 12.0122 11.335 12.0527C11.335 12.0932 11.3663 12.126 11.405 12.126Z" fill="white"/>
<path d="M11.2096 12.3216C11.2483 12.3216 11.2796 12.2888 11.2796 12.2483C11.2796 12.2078 11.2483 12.1749 11.2096 12.1749C11.171 12.1749 11.1396 12.2078 11.1396 12.2483C11.1396 12.2888 11.171 12.3216 11.2096 12.3216Z" fill="white"/>
<path d="M11.0182 12.5269C11.0569 12.5269 11.0882 12.4941 11.0882 12.4536C11.0882 12.4131 11.0569 12.3802 11.0182 12.3802C10.9796 12.3802 10.9482 12.4131 10.9482 12.4536C10.9482 12.4941 10.9796 12.5269 11.0182 12.5269Z" fill="white"/>
<path d="M11.405 12.5269C11.4436 12.5269 11.475 12.4941 11.475 12.4536C11.475 12.4131 11.4436 12.3802 11.405 12.3802C11.3663 12.3802 11.335 12.4131 11.335 12.4536C11.335 12.4941 11.3663 12.5269 11.405 12.5269Z" fill="white"/>
</g>
<defs>
<clipPath id="clip0_3576_1258">
<rect width="28" height="22" rx="3" fill="white"/>
</clipPath>
</defs>
</svg>
