<svg width="28" height="22" viewBox="0 0 28 22" fill="none" xmlns="http://www.w3.org/2000/svg">
<g clip-path="url(#clip0_3488_1370)">
<mask id="mask0_3488_1370" style="mask-type:luminance" maskUnits="userSpaceOnUse" x="0" y="0" width="28" height="22">
<path d="M0.000976562 0H27.9982V22H0.000976562V0Z" fill="white"/>
</mask>
<g mask="url(#mask0_3488_1370)">
<path fill-rule="evenodd" clip-rule="evenodd" d="M-1.75 0H29.75V22H-1.75V0Z" fill="#165D31"/>
<path fill-rule="evenodd" clip-rule="evenodd" d="M6.18681 6.23478C6.154 6.7504 6.10478 7.65275 6.52724 7.74728C7.03173 7.79884 6.75282 6.85353 6.93739 6.68165C6.97021 6.59572 7.03173 6.59572 7.03583 6.70314V7.50665C7.03583 7.76446 7.19989 7.84181 7.32294 7.89337C7.45419 7.88478 7.54442 7.89337 7.59364 8.02228L7.65927 9.41017C7.65927 9.41017 7.96278 9.5047 7.97919 8.63243C7.99149 8.11681 7.88075 7.69142 7.94638 7.59259C7.94638 7.49376 8.06942 7.48946 8.15146 7.53673C8.28271 7.63126 8.34013 7.75157 8.54521 7.70861C8.85692 7.61407 9.0456 7.45509 9.0497 7.20587C9.04354 6.96096 8.9949 6.71926 8.90614 6.49259C8.92255 6.44962 8.84872 6.33361 8.86513 6.29064C8.91845 6.38517 9.00458 6.37657 9.02099 6.29064C8.96767 6.11017 8.88564 5.934 8.75439 5.86095C8.64364 5.75782 8.47958 5.77501 8.42626 5.98986C8.39345 6.23478 8.50829 6.52267 8.67646 6.76329C8.71337 6.85353 8.76259 7.00822 8.74208 7.14572C8.65185 7.20157 8.56161 7.17579 8.48368 7.09415C8.48368 7.09415 8.23759 6.90079 8.23759 6.85353C8.30321 6.41525 8.24989 6.36368 8.21298 6.23907C8.18837 6.0715 8.11044 6.01564 8.04892 5.90392C7.98739 5.83517 7.90536 5.83517 7.86435 5.90392C7.7536 6.10157 7.80692 6.52696 7.88485 6.72032C7.94228 6.8965 8.02841 7.00822 7.98739 7.00822C7.95458 7.10704 7.88485 7.08126 7.83153 6.96525C7.77151 6.72109 7.74255 6.4697 7.7454 6.21759C7.72489 6.01993 7.70028 5.59884 7.57314 5.48712C7.49931 5.384 7.38857 5.43556 7.34755 5.53009C7.33672 5.72205 7.34083 5.91461 7.35985 6.10587C7.44189 6.42384 7.4706 6.70743 7.51161 7.0297C7.52392 7.46368 7.27372 7.21876 7.28603 6.99962C7.33983 6.72412 7.33563 6.43965 7.27372 6.16603C7.23271 6.05431 7.18759 6.02853 7.08505 6.04571C7.00712 6.04571 6.80614 6.27345 6.74872 6.66017C6.74872 6.66017 6.6995 6.85782 6.679 7.034C6.65028 7.23165 6.52724 7.37775 6.437 7.00822C6.36317 6.73751 6.31396 6.08009 6.19091 6.23478H6.18681Z" fill="white"/>
<path fill-rule="evenodd" clip-rule="evenodd" d="M7.56055 8.34451L6.24805 9.00623C6.26035 8.69255 6.86738 8.12966 7.28574 8.12537C7.55234 8.12966 7.48672 8.23279 7.55645 8.34451H7.56055Z" fill="white"/>
<path fill-rule="evenodd" clip-rule="evenodd" d="M7.32687 8.77421C6.6378 10.6434 8.94698 10.9055 9.20538 8.85156C9.22999 8.76562 9.32843 8.68398 9.34484 8.82148C9.29151 10.682 7.55655 10.8066 7.26124 10.2223C7.19177 10.0212 7.15705 9.80875 7.1587 9.59492C7.11769 9.22968 6.93312 9.37148 6.90441 9.73242C6.87569 9.93437 6.8839 9.99023 6.8839 10.1836C6.97413 11.6531 9.20948 11.0215 9.57452 9.80976C9.7673 9.13945 9.54171 8.64531 9.64425 8.64531C9.86573 8.89452 10.1775 8.67968 10.2472 8.59374C10.2759 8.55077 10.3497 8.5207 10.3989 8.57656C10.5712 8.70546 10.8747 8.64531 10.9403 8.41757C10.9773 8.18984 11.006 7.95781 11.0142 7.72148C10.8706 7.76445 10.7681 7.79452 10.7558 7.85898L10.7271 8.05663C10.7148 8.12109 10.5958 8.12109 10.5876 8.03945C10.5343 7.78163 10.3128 7.75156 10.1775 8.14687C10.0913 8.22421 9.92726 8.2414 9.91085 8.12538C9.93136 7.85898 9.82882 7.8246 9.62374 7.94921L9.42687 6.39374C9.5089 6.39374 9.59093 6.4582 9.66886 6.35507C9.58683 6.07577 9.40226 5.50859 9.29972 5.46562C9.2546 5.40546 9.21358 5.44413 9.14796 5.46132C9.04132 5.4957 8.94288 5.59023 8.97569 5.77929C9.09874 6.5871 9.18077 7.20156 9.30792 8.01367C9.32843 8.1039 9.2546 8.22851 9.15616 8.21562C8.9921 8.0996 8.95109 7.86327 8.66398 7.87187C8.4589 7.87187 8.22921 8.1082 8.2005 8.33163C8.16358 8.5121 8.15128 8.70546 8.2005 8.86015C8.34405 9.04062 8.51632 9.02343 8.66808 8.98476C8.79112 8.9289 8.89366 8.79999 8.93878 8.83007C8.96749 8.86874 8.94288 9.29843 8.35226 9.62499C7.99542 9.79687 7.70831 9.83124 7.55655 9.52617C7.46222 9.33281 7.56476 8.60663 7.32687 8.77421Z" fill="white"/>
<path fill-rule="evenodd" clip-rule="evenodd" d="M10.2671 6.875C10.4025 6.82344 11.0587 6.03281 11.0587 6.03281L10.9603 5.94687C10.9234 5.9168 10.9275 5.88242 10.9603 5.85234C11.1244 5.74922 11.071 5.53437 10.989 5.43125C10.9333 5.40281 10.8721 5.38839 10.8101 5.38913C10.7482 5.38988 10.6872 5.40577 10.6322 5.43555C10.5173 5.55156 10.4927 5.73633 10.583 5.84805C10.6691 5.89102 10.7552 5.98555 10.6978 6.03711C10.4271 6.33789 9.69291 6.85781 9.77905 6.875C9.79545 6.90078 10.2507 6.90078 10.263 6.875H10.2671ZM6.28862 9.66797C6.04252 10.0805 6.02202 10.6949 6.15737 10.8797C6.23119 10.9656 6.35014 11.0043 6.43627 10.9742C6.59213 10.9055 6.66186 10.5746 6.62494 10.4586C6.57162 10.3727 6.53061 10.3598 6.47729 10.4285C6.37065 10.6605 6.32553 10.5016 6.31323 10.3727C6.30147 10.1543 6.31247 9.93534 6.34604 9.71953C6.37475 9.53906 6.34604 9.59062 6.28862 9.66797ZM16.8337 9.01055C16.5958 8.46914 16.2636 7.93633 16.1611 7.73437C15.8414 7.20502 15.5021 6.689 15.1439 6.1875C14.8896 5.86953 15.5622 6.3207 15.0619 5.68476L14.6968 5.3625C14.6148 5.30234 14.4179 5.19062 14.3851 5.37109C14.3687 5.53437 14.3769 5.62031 14.4015 5.75351C14.422 5.83945 14.5451 5.98984 14.6066 6.07578C15.4475 7.24258 16.186 8.48657 16.8132 9.79258C16.9199 9.73672 16.8953 9.10078 16.8337 9.01055Z" fill="white"/>
<path fill-rule="evenodd" clip-rule="evenodd" d="M15.7881 10.8067C15.7389 10.8625 15.9029 11.0988 16.1162 11.0988C16.4689 11.0559 16.7807 10.8496 17.0678 10.2996C17.1844 10.1167 17.2589 9.90777 17.2852 9.68947C17.3199 8.64637 17.2401 7.60254 17.0473 6.57853C17.035 6.4926 17.0473 6.38947 17.0555 6.36369C17.0801 6.33361 17.158 6.36369 17.199 6.29064C17.2605 6.22619 17.035 5.68908 16.9119 5.48713C16.8709 5.39259 16.8504 5.33244 16.7766 5.49572C16.6875 5.67589 16.645 5.87738 16.6535 6.08009C16.8217 7.3047 16.875 8.37463 16.9816 9.59924C16.9939 9.71955 16.9775 9.89142 16.8996 9.96017C16.5901 10.3212 16.2113 10.6096 15.7881 10.8067ZM20.5664 10.8024C20.3121 10.957 20.3121 11.1332 20.5172 11.1375C20.8699 11.0945 21.2883 11.0645 21.5754 10.609C21.6768 10.3945 21.7354 10.1605 21.7477 9.9215C21.7993 8.89446 21.7346 7.86462 21.5549 6.85353C21.5467 6.76759 21.5098 6.56564 21.5221 6.53986C21.5467 6.4797 21.6615 6.54416 21.7025 6.47541C21.76 6.41095 21.4031 5.9297 21.276 5.72345C21.235 5.62892 21.2186 5.56877 21.1406 5.73205C21.058 5.91387 21.0322 6.11834 21.0668 6.31642C21.2555 7.64845 21.3949 8.64533 21.4236 9.82267C21.4072 9.93439 21.4031 9.99455 21.3539 10.1363C21.2432 10.2824 21.1201 10.4715 21.0053 10.5617C20.8904 10.6477 20.6443 10.7336 20.5664 10.8024Z" fill="white"/>
<path fill-rule="evenodd" clip-rule="evenodd" d="M20.7549 9.61213C20.7549 9.29846 20.759 9.03205 20.7508 8.79572C20.7481 8.59557 20.7062 8.39813 20.6277 8.21564C20.5539 8.03947 20.599 7.89767 20.5621 7.70861C20.5293 7.51955 20.5375 7.23596 20.4883 7.01682C20.4719 6.93088 20.4309 6.65158 20.4432 6.6215C20.4637 6.56135 20.5416 6.6215 20.5826 6.55275C20.64 6.4883 20.3775 5.77932 20.2463 5.57736C20.2012 5.48713 20.1109 5.51721 20.0084 5.6633C19.9059 5.76213 19.9428 5.98127 19.9838 6.19182C20.234 7.57971 20.4268 8.83869 20.3857 10.1578C20.3693 10.2695 20.7549 9.82267 20.7549 9.61213ZM18.8805 7.89338C18.7205 7.88478 18.3883 7.56252 18.2898 7.37775C18.2737 7.3326 18.2669 7.28439 18.2697 7.23628C18.2725 7.18816 18.285 7.1412 18.3062 7.09846C18.3678 7.05549 18.458 7.01252 18.5277 7.05549C18.5277 7.05549 18.5975 7.15861 18.5851 7.1715C18.6672 7.21447 18.7082 7.19299 18.7164 7.15432C18.7205 7.08986 18.6918 7.05119 18.6918 6.98244C18.7287 6.78478 18.9379 6.75471 19.0199 6.87932C19.0773 6.95666 19.1019 7.11564 19.106 7.22307C19.106 7.27893 19.024 7.21447 18.9707 7.22307C18.9256 7.24025 18.9133 7.30041 18.9092 7.35197C18.901 7.49377 18.8846 7.7215 18.8805 7.88908V7.89338ZM15.9355 9.95588C15.9766 9.53478 15.9191 8.78283 15.915 8.53361C15.8931 7.89267 15.8425 7.25317 15.7633 6.61721C15.7141 6.25627 15.9027 6.65588 15.8781 6.44533C15.8166 6.08869 15.6279 5.84377 15.4023 5.5215C15.3326 5.41408 15.3326 5.3926 15.2219 5.54728C15.0988 5.83518 15.2055 6.03713 15.2383 6.26486C15.3982 7.00393 15.4926 7.68283 15.5377 8.35744C15.5849 9.05822 15.5904 9.76141 15.5541 10.4629C15.6771 10.4672 15.8658 10.261 15.9355 9.95588Z" fill="white"/>
<path fill-rule="evenodd" clip-rule="evenodd" d="M21.3003 9.28123C21.0173 8.7828 20.5948 8.24998 20.48 8.04803C20.0997 7.49162 19.7002 6.94986 19.2823 6.42381C18.9337 6.03709 19.4464 6.35936 19.2167 6.05858C19.0239 5.83944 18.9706 5.76639 18.8024 5.63319C18.7204 5.57733 18.6712 5.46991 18.6384 5.65467C18.6253 5.81471 18.6226 5.97549 18.6302 6.13592C18.6302 6.20897 18.704 6.35077 18.7696 6.4367C19.6187 7.53241 20.5497 8.64959 21.2962 10.0547C21.4028 9.99881 21.3659 9.36717 21.2962 9.28123H21.3003Z" fill="white"/>
<path fill-rule="evenodd" clip-rule="evenodd" d="M8.52833 8.36603C8.50782 8.4047 8.4627 8.45197 8.47911 8.49923C8.50782 8.5422 8.53653 8.55509 8.58575 8.55509C8.63086 8.55509 8.69649 8.56798 8.70879 8.5422C8.7334 8.51212 8.74981 8.45626 8.7334 8.4004C8.68418 8.2715 8.55293 8.32306 8.52833 8.36603Z" fill="#165D31"/>
<path fill-rule="evenodd" clip-rule="evenodd" d="M18.0279 15.5762C18.4053 15.5934 18.6514 15.5977 18.9836 15.6364L19.3773 15.5934C19.8121 15.5504 19.8285 16.2422 19.8285 16.2422C19.8285 16.6504 19.6768 16.6719 19.484 16.7149C19.3732 16.7321 19.3199 16.6461 19.2584 16.5602C19.1656 16.5913 19.0668 16.5972 18.9713 16.5774C18.8113 16.5688 18.6555 16.5688 18.4996 16.5559C18.3355 16.543 18.2453 16.5774 18.0771 16.5602C18.0443 16.616 17.9951 16.6934 17.8967 16.6719C17.8146 16.659 17.7121 16.4141 17.7408 16.2207C17.8023 16.0832 17.7818 16.1305 17.7818 16.0703C16.2396 16.0274 14.6852 15.9543 13.1758 15.9758C11.9945 15.9801 10.8297 16.0317 9.66074 16.0832C9.0373 16.0746 8.56152 15.9715 8.2334 15.4688C8.26621 15.4688 9.8248 15.559 10.2801 15.5289C11.1209 15.5203 11.892 15.4473 12.7492 15.4215C14.4391 15.4516 16.1166 15.4516 17.8064 15.5762C17.6424 15.4602 17.6424 15.1895 17.8885 15.1207C17.909 15.1035 17.9213 15.2539 17.9582 15.2496C18.1592 15.2367 18.0689 15.5203 18.0279 15.5762ZM11.2357 5.8137C10.9814 6.57855 11.3834 7.42073 11.6623 7.33909C11.8674 7.42503 11.9904 7.02112 12.0725 6.58284C12.134 6.45823 12.175 6.44534 12.2037 6.5098C12.1955 7.09417 12.2447 7.22737 12.3883 7.40355C12.7082 7.66136 12.9748 7.43792 12.9953 7.41644L13.2414 7.15433C13.2988 7.08987 13.3727 7.08987 13.4506 7.14144C13.5285 7.21448 13.5162 7.33909 13.6803 7.42503C13.8197 7.48519 14.1109 7.44222 14.1807 7.31761C14.2709 7.15003 14.2955 7.09417 14.3365 7.03401C14.4021 6.94378 14.5129 6.98245 14.5129 7.01253C14.5006 7.06409 14.435 7.11136 14.4801 7.20589C14.5621 7.26605 14.5785 7.22737 14.6236 7.21448C14.7877 7.12855 14.9107 6.75901 14.9107 6.75901C14.9148 6.62151 14.841 6.63011 14.7918 6.66448L14.6646 6.75472C14.5826 6.76761 14.4309 6.82347 14.3529 6.69886C14.275 6.55276 14.275 6.34222 14.2176 6.19183C14.2176 6.18323 14.1109 5.9555 14.2094 5.94261C14.2586 5.9512 14.3611 5.98128 14.3775 5.89105C14.4268 5.80081 14.2709 5.5473 14.1602 5.41839C14.0658 5.31097 13.9346 5.29808 13.8074 5.4098C13.7172 5.49573 13.7295 5.59026 13.7131 5.6805C13.6975 5.74516 13.6969 5.81277 13.7111 5.87777C13.7254 5.94276 13.7542 6.00327 13.7951 6.05433C13.8854 6.2348 14.0453 6.47112 13.992 6.80628C13.992 6.80628 13.8977 6.96097 13.7336 6.93948C13.6639 6.92659 13.5531 6.89651 13.4957 6.43245C13.4506 6.0887 13.5039 5.59886 13.3645 5.37112C13.3111 5.22933 13.2742 5.09612 13.1512 5.33245C13.1184 5.42698 12.9748 5.56878 13.0773 5.85667C13.1744 6.1161 13.2027 6.39817 13.1594 6.67308C13.0979 6.76761 13.0855 6.79769 13.0076 6.88792C12.901 7.01683 12.782 6.98245 12.6918 6.93519C12.6098 6.87933 12.5441 6.84925 12.5031 6.65589C12.5113 6.35511 12.5277 5.86097 12.4744 5.75784C12.3965 5.59456 12.2693 5.65472 12.216 5.70628C11.972 5.99024 11.8087 6.33998 11.7443 6.71605C11.6705 6.96526 11.5926 6.89222 11.5393 6.79339C11.408 6.66448 11.3957 5.64612 11.2357 5.8137Z" fill="white"/>
<path fill-rule="evenodd" clip-rule="evenodd" d="M12.0066 7.48083C12.1255 7.39489 12.0722 7.33474 12.2445 7.51521C12.4668 7.92736 12.5959 8.38748 12.6218 8.86013C12.6136 8.97185 12.6874 9.0406 12.7244 9.01482C12.7408 8.757 13.3437 8.39607 13.8974 8.3445C13.9794 8.32302 13.9384 8.15544 13.9507 8.0695C13.9179 7.74724 14.123 7.45505 14.4101 7.43357C14.8039 7.49372 14.9351 7.71286 14.9433 8.04372C14.8982 8.68825 14.2583 8.79567 13.9015 8.84724C13.8482 8.86872 13.8236 8.8945 13.9015 8.92458L15.4027 8.93317L15.4806 8.97614C15.4888 9.01911 15.456 8.98474 15.3986 9.08786C15.316 9.23985 15.2643 9.40809 15.2468 9.582C14.7998 9.73669 14.3363 9.79685 13.8687 9.8613C13.7046 9.94724 13.6226 10.0633 13.6554 10.1922C13.7128 10.334 14.0738 10.48 14.0738 10.4843C14.1435 10.5273 14.2214 10.6347 14.0533 10.8539C13.3232 10.8195 12.7531 10.4929 12.5562 10.0332C12.4988 9.98591 12.4332 10.0332 12.3921 10.0933C12.105 10.48 11.8261 10.8238 11.338 11.0129C11.0509 11.0902 10.7515 10.9656 10.6121 10.7679C10.5177 10.6519 10.5218 10.5273 10.489 10.5015C10.3291 10.5746 8.97554 11.1761 9.1478 10.8925C9.47593 10.5273 10.0501 10.2523 10.5505 9.89138C10.5875 9.76677 10.6531 9.35427 10.85 9.22107C10.8623 9.22107 10.8212 9.46169 10.8253 9.56482C10.8253 9.65075 10.8171 9.68083 10.8335 9.65935C10.8705 9.63786 11.4775 9.13513 11.5308 8.98044C11.5882 8.8945 11.5431 8.67107 11.5431 8.66247C11.4283 8.3531 11.2683 8.32732 11.2109 8.17263C11.1576 7.97067 11.1822 7.73864 11.2929 7.66989C11.3914 7.57966 11.5062 7.58825 11.6169 7.69138C11.74 7.80739 11.8466 8.03513 11.8794 8.20271C11.8589 8.26716 11.7154 8.15974 11.6744 8.18982C11.7533 8.28486 11.8058 8.4008 11.8261 8.52497C11.9082 8.87732 11.8835 9.01482 11.8015 9.24255C11.5308 9.83982 11.1863 10.016 10.8828 10.2394C10.8746 10.2394 10.8705 10.3898 10.9812 10.4715C11.0222 10.5144 11.1822 10.5359 11.3667 10.4715C11.7611 10.242 12.0799 9.89304 12.2814 9.47028C12.3162 9.1486 12.2826 8.82283 12.183 8.51638C12.064 8.22849 11.9246 7.82028 11.9246 7.81169C11.9205 7.63122 11.9328 7.57107 12.0066 7.48083ZM8.07729 5.82224C8.24956 5.90817 8.57768 5.8695 8.56128 5.57732L8.55308 5.44411C8.52026 5.35817 8.42183 5.37966 8.40132 5.4656C8.39311 5.49567 8.41362 5.54294 8.38901 5.55583C8.37261 5.57302 8.31929 5.56442 8.31929 5.48278C8.31929 5.457 8.30288 5.43122 8.29058 5.41403C8.28237 5.40544 8.27417 5.40544 8.25366 5.40544C8.22905 5.40544 8.22905 5.40974 8.21675 5.43122C8.21265 5.45271 8.20444 5.47419 8.20444 5.49997C8.20444 5.53005 8.18804 5.53864 8.17163 5.54294C8.14702 5.54294 8.15112 5.54294 8.13061 5.53435C8.12241 5.52146 8.11011 5.51716 8.11011 5.49138L8.0978 5.42263C8.0896 5.40974 8.07319 5.40114 8.05679 5.39685C7.96245 5.39685 7.95425 5.51286 7.96245 5.55583C7.95425 5.56442 7.95015 5.76638 8.07729 5.82224Z" fill="white"/>
<path fill-rule="evenodd" clip-rule="evenodd" d="M13.1428 8.06526C13.3151 8.1512 13.7294 8.10393 13.6268 7.82463L13.6186 7.68713C13.5817 7.6012 13.4874 7.62268 13.4669 7.71291C13.4587 7.7387 13.4792 7.78596 13.4505 7.79885C13.4381 7.81604 13.3807 7.80745 13.3848 7.7301C13.3848 7.70432 13.3684 7.67424 13.3561 7.65706C13.3438 7.65276 13.3397 7.64846 13.3151 7.64846C13.2946 7.64846 13.2946 7.65706 13.2823 7.67854C13.2741 7.70002 13.27 7.72151 13.27 7.74729C13.2659 7.77307 13.2536 7.78167 13.2331 7.79026C13.2126 7.79026 13.2167 7.79026 13.2003 7.77737C13.188 7.76448 13.1756 7.76018 13.1756 7.7387L13.1633 7.66995C13.1551 7.65706 13.1387 7.64846 13.1223 7.64416C13.028 7.64416 13.0198 7.75588 13.0239 7.79885C13.0198 7.80745 13.0157 8.0137 13.1469 8.06526H13.1428ZM16.096 7.13713C16.2682 7.22307 16.5922 7.1844 16.5799 6.89651L16.5717 6.75901C16.5348 6.67307 16.4405 6.69456 16.42 6.78049C16.4118 6.81057 16.4323 6.85784 16.4036 6.87502C16.3913 6.88791 16.3338 6.87932 16.338 6.79768C16.338 6.7719 16.3215 6.74612 16.3092 6.72893C16.2969 6.72034 16.2928 6.72034 16.2682 6.72034C16.2477 6.72034 16.2477 6.72893 16.2354 6.75042L16.2231 6.81487C16.219 6.84495 16.2067 6.85784 16.1862 6.85784C16.1657 6.85784 16.1698 6.85784 16.1534 6.84924C16.1411 6.83635 16.1288 6.83206 16.1288 6.81057C16.1288 6.78909 16.1247 6.75471 16.1165 6.73752C16.1083 6.72463 16.0919 6.72034 16.0755 6.71604C15.9811 6.71604 15.9729 6.82776 15.977 6.87073C15.9729 6.87932 15.9688 7.08127 16.1001 7.13713H16.096ZM17.6258 9.47034C17.3264 9.82698 17.4577 10.4156 17.5274 10.5446C17.6258 10.7508 17.7038 10.884 17.8965 10.9871C18.0729 11.1203 18.2124 11.0387 18.2862 10.9442C18.4626 10.7508 18.4667 10.2567 18.5487 10.1621C18.6061 9.98167 18.7538 10.0117 18.8235 10.0934C18.8887 10.1904 18.9762 10.2687 19.0778 10.3211C19.2419 10.4715 19.4387 10.5016 19.6356 10.3641C19.7669 10.2824 19.853 10.1836 19.9309 9.98167C20.013 9.74104 19.9719 8.62385 19.9514 7.96213L19.7792 7.03831C19.7792 7.02971 19.7587 6.60002 19.7381 6.5012C19.7381 6.45823 19.7258 6.44534 19.7669 6.44963C19.812 6.4926 19.8161 6.4926 19.8489 6.50549C19.8899 6.51409 19.9309 6.43245 19.9022 6.3637L19.4921 5.56448C19.4592 5.5301 19.4141 5.49573 19.3608 5.57307C19.3293 5.60291 19.3043 5.63941 19.2873 5.68015C19.2704 5.72089 19.2619 5.76495 19.2624 5.8094C19.2747 5.99846 19.3034 6.19182 19.3157 6.38088L19.4797 7.35198C19.5331 8.03948 19.5454 8.60666 19.5987 9.29846C19.5905 9.59065 19.5044 9.84416 19.4223 9.88284C19.4223 9.88284 19.2993 9.95588 19.2172 9.87424C19.1557 9.84846 18.9137 9.44885 18.9137 9.44885C18.7907 9.33284 18.7087 9.36291 18.6225 9.44885C18.3764 9.69807 18.2698 10.1535 18.1016 10.4715C18.0606 10.5446 17.9376 10.6004 17.8063 10.4672C17.47 9.98167 17.6669 9.29416 17.6258 9.47034ZM16.1739 5.44416C16.3297 5.50862 16.4364 5.83948 16.4036 6.00276C16.3708 6.19612 16.2887 6.41096 16.2313 6.38518C16.1657 6.3594 16.2723 6.18752 16.2108 6.00706C16.178 5.88674 15.9647 5.6719 15.9893 5.61174C15.9483 5.47854 16.0796 5.41838 16.1739 5.43987V5.44416Z" fill="white"/>
<path fill-rule="evenodd" clip-rule="evenodd" d="M18.1263 9.66796C18.155 9.27265 18.1016 9.03203 18.0934 8.79999C18.0852 8.56796 17.8432 6.79765 17.794 6.62578C17.7325 6.29062 18.0278 6.58281 17.995 6.38515C17.8925 6.14453 17.6423 5.78789 17.5643 5.57734C17.5151 5.4914 17.5356 5.40546 17.429 5.55585C17.3372 5.81953 17.3049 6.10191 17.3347 6.38085C17.5889 7.76874 17.8473 8.92031 17.8063 10.2394C17.9294 10.2394 18.0647 9.95156 18.1263 9.66796ZM20.7677 6.00273C20.9112 6.07578 20.9932 6.48828 20.9768 6.60429C20.9481 6.81913 20.8743 7.05117 20.821 7.02109C20.7595 6.99531 20.8333 6.70312 20.8046 6.61288C20.7718 6.48398 20.579 6.25195 20.5995 6.1832C20.5585 6.0371 20.6815 5.97695 20.7677 6.00273ZM10.28 8.92031C10.4153 8.97617 10.4973 9.27695 10.485 9.36288C10.4522 9.52187 10.3825 9.69374 10.3292 9.66796C10.2759 9.65078 10.3415 9.43593 10.3169 9.36718C10.3046 9.2082 10.1159 9.12226 10.12 9.05351C10.0872 8.9246 10.202 8.90312 10.2841 8.92031H10.28Z" fill="white"/>
<path fill-rule="evenodd" clip-rule="evenodd" d="M13.5443 9.37581C13.7166 9.3844 13.8027 9.53049 13.6427 9.59065C13.4787 9.64651 13.3269 9.69377 13.3228 9.9344C13.3844 10.2781 13.2408 10.1578 13.1588 10.1149C13.0603 10.0375 12.7814 9.85706 12.7404 9.47034C12.7363 9.3801 12.806 9.29846 12.9168 9.29846C13.0808 9.34573 13.3269 9.35002 13.5443 9.37581Z" fill="#165D31"/>
<path fill-rule="evenodd" clip-rule="evenodd" d="M6.6747 5.3453C6.87158 5.40545 6.88388 5.71483 6.87158 5.80506C6.84286 5.96834 6.77314 6.14451 6.72392 6.12303C6.6665 6.10155 6.72392 5.87811 6.69521 5.80936C6.6665 5.71483 6.49833 5.53436 6.51474 5.48279C6.47783 5.37537 6.59677 5.32381 6.6747 5.3453ZM10.6081 6.78904C10.4522 6.87498 10.3948 7.1328 10.4892 7.28748C10.5794 7.41639 10.7188 7.36912 10.7352 7.36912C10.887 7.38631 10.9772 7.07264 10.9772 7.07264C10.9772 7.07264 10.9813 6.9867 10.805 7.15428C10.727 7.16717 10.7229 7.13709 10.7024 7.09412C10.6837 7.01232 10.6909 6.92633 10.7229 6.8492C10.7517 6.77186 10.6942 6.73748 10.6081 6.78904ZM11.7565 5.22498C11.6745 5.28084 11.5227 5.44842 11.5186 5.63748C11.5145 5.7449 11.494 5.7449 11.5597 5.80936C11.613 5.8867 11.6581 5.8824 11.7565 5.82655C11.7811 5.81037 11.8021 5.78903 11.8184 5.76388C11.8346 5.73873 11.8457 5.71032 11.8509 5.68045C11.8755 5.56014 11.7278 5.74061 11.7114 5.60311C11.6786 5.4742 11.7729 5.42264 11.8632 5.30233C11.8632 5.21639 11.8632 5.16053 11.7524 5.22498H11.7565ZM12.6753 5.39686C12.6391 5.55332 12.6172 5.71302 12.6097 5.87381C12.5851 5.99412 12.7327 6.04569 12.7942 5.891C12.8927 5.6117 12.8927 5.49139 12.9009 5.37537C12.8722 5.19061 12.7532 5.1949 12.6753 5.39686ZM18.4995 8.5035C18.5159 8.48201 19.3198 7.88475 19.3198 7.88475C19.4018 7.85467 19.3813 8.19412 19.3444 8.18983C19.0951 8.44154 18.8084 8.64907 18.4954 8.80428C18.4544 8.83436 18.4175 8.57654 18.4954 8.5035H18.4995ZM19.2255 8.4949C19.369 8.56795 19.4265 9.00194 19.4101 9.11795C19.4101 9.34998 19.2747 9.53045 19.2173 9.50467C19.1599 9.47459 19.2255 9.21678 19.1968 9.12654C19.164 8.99764 19.045 8.76131 19.0655 8.69256C19.0245 8.54647 19.1393 8.46912 19.2296 8.4949H19.2255ZM14.4677 10.3597C14.5342 10.2784 14.6116 10.2075 14.6974 10.1492C14.7794 10.1062 14.8532 10.1836 14.8491 10.1793C14.8614 10.2652 14.7999 10.3383 14.8204 10.45C14.8368 10.493 14.8491 10.5445 14.927 10.5273C15.0542 10.4199 15.1731 10.4113 15.2962 10.407C15.3987 10.4113 15.4028 10.5875 15.3372 10.5875C15.1034 10.639 15.0009 10.7078 14.8327 10.7722C14.7507 10.8238 14.6851 10.7594 14.6851 10.7551C14.6851 10.7508 14.6399 10.7078 14.6686 10.5961C14.6768 10.5101 14.644 10.4586 14.5702 10.4672C14.521 10.5015 14.4718 10.5187 14.4472 10.4543C14.4349 10.4113 14.4308 10.3855 14.4677 10.3597ZM20.0704 10.5918C20.1032 10.6347 20.1278 10.6777 20.0663 10.7551L19.9145 10.8926C19.8899 10.9355 19.8735 11.0129 19.9556 11.0344C20.1032 11.0773 20.4477 10.841 20.4477 10.8367C20.5052 10.7937 20.4888 10.7078 20.4806 10.7078C20.4477 10.6691 20.3739 10.6949 20.3247 10.6863C20.3001 10.6863 20.2222 10.6777 20.2591 10.6004C20.2866 10.5624 20.3087 10.5204 20.3247 10.4758C20.3452 10.4242 20.3247 10.3898 20.2427 10.3597C20.1565 10.3426 20.1196 10.3512 20.0253 10.3597C19.9761 10.3683 19.9597 10.3941 19.9474 10.4586C19.9515 10.5574 20.0089 10.5531 20.0704 10.5875V10.5918Z" fill="white"/>
<path fill-rule="evenodd" clip-rule="evenodd" d="M14.496 8.15117C14.4755 8.19414 14.4017 8.19414 14.332 8.15117C14.2622 8.1082 14.2212 8.03945 14.2458 8.00078C14.2704 7.9621 14.3402 7.9621 14.4099 8.00078C14.4796 8.03945 14.5165 8.11249 14.496 8.15117ZM10.8456 5.84804C10.8046 5.86093 10.7472 5.82226 10.7226 5.7621C10.698 5.70195 10.7103 5.65039 10.7513 5.63749C10.7923 5.6246 10.8456 5.66757 10.8743 5.72343C10.9031 5.77929 10.8866 5.83945 10.8415 5.85234L10.8456 5.84804ZM18.0685 16.1133C18.454 16.1305 18.815 16.1133 19.1964 16.1348C19.2661 16.1992 19.2169 16.3496 19.1718 16.341L18.8519 16.3281C18.8478 16.1992 18.5361 16.2207 18.5443 16.3324C18.3761 16.3539 18.2243 16.3281 18.0521 16.3195C18.0029 16.2551 18.0111 16.1391 18.0685 16.1133Z" fill="#165D31"/>
</g>
</g>
<defs>
<clipPath id="clip0_3488_1370">
<rect width="28" height="22" rx="3" fill="white"/>
</clipPath>
</defs>
</svg>
