<svg width="28" height="22" viewBox="0 0 28 22" fill="none" xmlns="http://www.w3.org/2000/svg">
<g clip-path="url(#clip0_3495_1699)">
<mask id="mask0_3495_1699" style="mask-type:luminance" maskUnits="userSpaceOnUse" x="0" y="0" width="28" height="22">
<path d="M0 0H28V22H0V0Z" fill="white"/>
</mask>
<g mask="url(#mask0_3495_1699)">
<path fill-rule="evenodd" clip-rule="evenodd" d="M-0.875 0H30.625V22H-0.875V0Z" fill="white"/>
<path fill-rule="evenodd" clip-rule="evenodd" d="M-0.875 0H30.625V11H-0.875V0Z" fill="#DF0000"/>
<path fill-rule="evenodd" clip-rule="evenodd" d="M6.38728 1.84248C5.55857 2.02905 4.81637 2.50864 4.28527 3.20071C3.75418 3.89279 3.46654 4.75521 3.47065 5.6432C3.47475 6.53118 3.77035 7.39065 4.30782 8.0773C4.84528 8.76396 5.59189 9.23599 6.42228 9.41414C5.94658 9.55835 5.44837 9.60276 4.95625 9.54482C4.46412 9.48687 3.98776 9.32772 3.55447 9.07649C3.12118 8.82526 2.7395 8.48689 2.43131 8.08079C2.12313 7.67469 1.8945 7.20885 1.75853 6.70998C1.4885 5.70719 1.60844 4.63317 2.09214 3.72277C2.57585 2.81236 3.38395 2.13962 4.33978 1.85164C5.03978 1.64081 5.68728 1.63623 6.39166 1.84248H6.38728Z" fill="white"/>
<path fill-rule="evenodd" clip-rule="evenodd" d="M5.81855 5.04168L6.03293 5.72918L5.46418 5.30751L4.90418 5.73835L5.1098 5.04168L4.5498 4.61543L5.24543 4.60626L5.46418 3.91876L5.68293 4.60626H6.37418L5.81855 5.04168ZM6.58418 7.42501L6.80293 8.1171L6.23418 7.69543L5.6698 8.12168L5.8798 7.4296L5.3198 6.99876L6.01543 6.99418L6.2298 6.3021L6.44855 6.9896H7.14855L6.58418 7.42501ZM9.14355 7.40668L9.35793 8.10335L8.78918 7.6771L8.22918 8.10335L8.4348 7.41126L7.8748 6.98501L8.57043 6.97585L8.78918 6.28835L9.00793 6.97585H9.69918L9.14355 7.40668ZM9.9048 5.04168L10.1192 5.73376L9.55043 5.3121L8.99043 5.73835L9.20043 5.04626L8.63605 4.61543L9.33605 4.61085L9.54605 3.91876L9.7648 4.60626H10.4648L9.9048 5.04168ZM7.87918 3.4696L8.09793 4.16626L7.52918 3.74001L6.9648 4.17085L7.1748 3.47418L6.6148 3.04335L7.30605 3.03876L7.5248 2.34668L7.74355 3.03418H8.44355L7.87918 3.4696Z" fill="white"/>
</g>
</g>
<defs>
<clipPath id="clip0_3495_1699">
<rect width="28" height="22" rx="3" fill="white"/>
</clipPath>
</defs>
</svg>
