<svg width="28" height="28" viewBox="0 0 28 28" fill="none" xmlns="http://www.w3.org/2000/svg">
<path id="Subtract" fill-rule="evenodd" clip-rule="evenodd" d="M27.9836 21.6373C27.9929 21.3806 27.9975 21.0481 27.9975 20.8947L27.9997 7.10726C27.9997 6.95468 27.9953 6.62216 27.9861 6.36511C27.9639 5.74083 27.915 4.93579 27.8411 4.57018C27.7282 4.0118 27.5573 3.48458 27.3339 3.04597C27.0714 2.53079 26.7364 2.06893 26.3382 1.67024C25.9393 1.27073 25.4771 0.934382 24.9611 0.670775C24.525 0.447913 24.0008 0.277006 23.4457 0.163797C23.076 0.0883246 22.2652 0.03883 21.6368 0.0161336C21.38 0.00683627 21.0478 0.00218761 20.8944 0.00218761L7.10726 0C6.95495 0 6.62243 0.00437521 6.36512 0.0136725C5.74083 0.0358221 4.93579 0.0847698 4.57018 0.158601C4.01207 0.271263 3.48458 0.442443 3.04597 0.665853C2.53079 0.928366 2.0692 1.26334 1.67024 1.66149C1.271 2.06045 0.934382 2.52258 0.670775 3.03859C0.448186 3.47474 0.277006 3.99894 0.163797 4.55405C0.0885981 4.92348 0.03883 5.73454 0.0161336 6.36293C0.00683627 6.6197 0.00218761 6.95221 0.00218761 7.10562L0 20.8925C0 21.0453 0.00464866 21.3778 0.0136725 21.6349C0.0358221 22.2592 0.0847698 23.0642 0.158601 23.4298C0.271537 23.9882 0.442443 24.5157 0.665853 24.954C0.928366 25.4695 1.26334 25.9311 1.66149 26.33C2.06073 26.7293 2.52286 27.0656 3.03886 27.3295C3.47474 27.5524 3.99895 27.7233 4.55432 27.8365C4.92376 27.9117 5.73454 27.9614 6.36293 27.9841C6.6197 27.9934 6.95194 27.9981 7.10535 27.9981L20.8925 28.0003C21.0448 28.0003 21.3776 27.9956 21.6346 27.9863C22.2589 27.9639 23.0639 27.9152 23.4295 27.8414C23.9879 27.7287 24.5151 27.5578 24.9538 27.3344C25.4689 27.0716 25.9308 26.7367 26.3295 26.3385C26.729 25.9395 27.0653 25.4774 27.329 24.9614C27.5515 24.5253 27.7227 24.0011 27.8359 23.4459C27.9114 23.0765 27.9609 22.2657 27.9836 21.6373ZM7.57447 5C6.47629 5 5.58594 5.89008 5.58594 6.98853C5.58594 8.08644 6.47629 8.9768 7.57447 8.9768C8.67265 8.9768 9.56273 8.08671 9.56273 6.98853C9.56273 5.89036 8.67265 5 7.57447 5ZM5.58984 10.7969H9.56984V23.0969H5.58984V10.7969ZM23.3435 13.3452C23.089 12.8063 22.8122 12.291 22.3285 11.9095C21.8574 11.5376 21.3067 11.1894 20.7234 11.0145C20.0619 10.8163 19.5715 10.7767 18.8812 10.8051C17.5121 10.8608 15.9957 11.628 15.2252 12.7279V10.8H11.8008V22.7969H15.4359V16.4735C15.4359 16.4069 15.4532 15.3383 16.2575 14.6291C17.2558 13.7502 20.1568 13.7005 20.1568 16.3876L20.1477 22.7969H23.8008V15.1913C23.8008 14.5605 23.6118 13.9131 23.3435 13.3452Z" fill="#868E96"/>
</svg>
