<svg width="28" height="22" viewBox="0 0 28 22" fill="none" xmlns="http://www.w3.org/2000/svg">
<g clip-path="url(#clip0_3488_1258)">
<mask id="mask0_3488_1258" style="mask-type:luminance" maskUnits="userSpaceOnUse" x="-1" y="0" width="29" height="22">
<path d="M-0.000976562 0H28.0004V22H-0.000976562V0Z" fill="white"/>
</mask>
<g mask="url(#mask0_3488_1258)">
<path fill-rule="evenodd" clip-rule="evenodd" d="M-3.5 0H28V22H-3.5V0Z" fill="#198A00"/>
<path fill-rule="evenodd" clip-rule="evenodd" d="M24.3047 7.90625H28.0002V22H24.3047V7.90625Z" fill="#EF7D00"/>
<path fill-rule="evenodd" clip-rule="evenodd" d="M20.6133 7.89766H24.3047V21.9914H20.6133V7.89766Z" fill="black"/>
<path fill-rule="evenodd" clip-rule="evenodd" d="M16.8439 7.90625H20.6133V22H16.8398L16.8439 7.90625Z" fill="#DE2010"/>
<path fill-rule="evenodd" clip-rule="evenodd" d="M25.5229 2.81876C25.5229 2.81876 26.9174 2.19571 27.0487 2.0668C27.1102 2.14415 26.4908 2.92618 25.2891 3.21407C26.3801 2.94766 27.3112 2.09688 27.5039 2.12266C27.5573 2.13555 27.5449 2.95196 25.043 3.66094C26.7739 3.18829 27.7787 2.31172 27.7664 2.40626C27.7787 2.42774 27.5942 3.09376 26.0807 3.61368C26.5032 3.51055 27.6516 2.78008 27.6393 2.92188C27.6762 2.97774 26.5319 4.52032 24.4565 4.01758C26.1135 4.46876 27.184 3.38165 27.3358 3.40313C27.3686 3.40743 27.0323 4.34844 24.9487 4.4086C25.9453 4.30118 25.6582 4.4043 25.6582 4.4043C25.6582 4.4043 25.0717 4.88555 24.358 4.55899C24.9158 4.71797 24.9774 4.72657 24.9897 4.77383C24.9528 4.84258 24.4975 4.93712 24.0504 4.6879C24.4073 4.84258 24.7272 4.86837 24.7313 4.92422C24.7272 4.94141 24.5016 5.07891 24.2965 4.98008C24.0955 4.88555 22.2334 3.68673 22.2334 3.68673L25.408 2.77149L25.5229 2.81446V2.81876ZM21.7905 6.06719C21.5115 6.06719 21.5033 6.32501 21.5033 6.32501C21.5033 6.32501 21.4828 6.34649 21.4951 6.4711L21.5649 6.35938C21.5977 6.36368 21.7248 6.40235 21.9258 6.23907C21.7412 6.44102 21.852 6.51407 21.852 6.51407C21.852 6.51407 21.811 6.67305 21.9504 6.70313C21.9094 6.63868 21.934 6.58282 21.934 6.58282C21.934 6.58282 22.1309 6.56133 22.1186 6.31212C22.1227 6.53985 22.2416 6.59571 22.2416 6.59571C22.2416 6.59571 22.2416 6.72032 22.3688 6.73321C22.3032 6.66876 22.3155 6.56993 22.3155 6.56993C22.3155 6.56993 22.4795 6.44102 22.3442 6.22618C22.4262 6.17462 22.4959 6.03282 22.4959 6.03282C22.4959 6.03282 22.3811 5.98126 22.3278 5.93829C22.3032 5.88243 22.3278 5.57305 22.3278 5.57305L22.2539 5.17344L22.0571 5.79649C22.0653 5.71055 22.0694 6.06719 21.7905 6.06719Z" fill="#EF7D00" stroke="black" stroke-width="0.117188" stroke-linejoin="round"/>
<path fill-rule="evenodd" clip-rule="evenodd" d="M23.1684 5.16914C23.1766 5.17344 23.3775 5.40977 23.5744 5.39687C23.6482 5.33242 23.4227 5.19492 23.4227 5.16055C23.5047 5.23789 23.8369 5.53867 24.0543 5.43125C24.1363 5.30234 23.8984 5.32383 23.6359 4.97578C23.8205 5.10469 24.2799 5.38398 24.4973 5.27656C24.5834 5.17344 24.0174 4.85117 23.8246 4.60195L23.3324 4.33984L22.668 4.91133L23.1725 5.16914H23.1684Z" fill="#EF7D00" stroke="black" stroke-width="0.117188" stroke-linejoin="round"/>
<path fill-rule="evenodd" clip-rule="evenodd" d="M22.418 3.21407C22.418 3.21407 22.6436 3.07657 23.55 3.14532C23.6484 3.15821 24.1652 2.96055 24.3334 2.90039C24.5959 2.84883 25.4408 2.65977 25.6623 2.4793C25.8264 2.45782 25.6213 2.78438 25.4162 2.86602C25.2029 2.96485 24.4277 3.24844 24.1488 3.20977C24.4811 3.21407 24.2965 3.49766 23.7469 3.36446C24.0094 3.51914 23.9109 3.54492 23.9109 3.54492C23.9109 3.54492 23.4475 3.57071 23.3244 3.45899C23.6361 3.5836 23.5049 3.63086 23.5049 3.63086C23.5049 3.63086 23.1891 3.66094 23.0414 3.58789C23.267 3.66094 23.1521 3.70391 23.1521 3.70391C23.1521 3.70391 22.9676 3.73828 22.8158 3.67813C22.66 3.62227 22.4303 3.21836 22.418 3.21836V3.21407Z" fill="#EF7D00" stroke="black" stroke-width="0.117188" stroke-linecap="round" stroke-linejoin="round"/>
<path fill-rule="evenodd" clip-rule="evenodd" d="M22.7792 5.30235L22.812 5.92969L22.7792 5.98125C22.7669 5.99844 22.3567 5.9125 22.4101 6.23906C22.4101 6.37656 22.4101 6.41094 22.5003 6.48399C22.4798 6.39805 22.4839 6.33359 22.4839 6.33359C22.4839 6.33359 22.6028 6.40664 22.7136 6.20469C22.6356 6.40234 22.689 6.47539 22.7095 6.47969C22.7259 6.51406 22.6767 6.67305 22.8325 6.66875C22.771 6.6086 22.7997 6.52266 22.7997 6.52266C22.7997 6.52266 22.9638 6.49688 22.9063 6.1918C22.9638 6.13164 22.9884 6.1918 22.9884 6.1918C22.9884 6.1918 23.0048 6.37227 23.1483 6.33359C23.2099 6.37227 23.136 6.4711 23.136 6.4711C23.136 6.4711 23.2386 6.4711 23.2714 6.38516C23.3001 6.29063 23.337 6.12735 23.1688 6.0586C23.1483 5.99414 23.2345 5.98984 23.2345 5.98984C23.2345 5.98984 23.3411 6.02852 23.3739 6.08438C23.4067 6.14024 23.3944 5.93828 23.2591 5.9125C23.095 5.9125 23.0868 5.87383 23.0868 5.86953L23.0458 5.28086L22.7792 5.30235Z" fill="#EF7D00" stroke="black" stroke-width="0.117188" stroke-linejoin="round"/>
<path fill-rule="evenodd" clip-rule="evenodd" d="M23.349 5.83516C23.349 5.80508 23.0701 5.40977 23.144 5.3625C23.2137 5.37539 23.3285 5.55586 23.427 5.49571C23.3983 5.42696 23.3121 5.46563 23.2178 5.28516C23.1194 5.07891 23.1071 4.77383 22.7666 4.44297C22.9881 4.79532 23.4803 5.00157 23.5049 4.89844C23.5295 4.79532 23.066 4.4086 23.0906 4.31407C23.1809 4.50313 23.6403 4.93282 23.9766 4.89844C24.0012 4.8125 23.7018 4.64922 23.6238 4.49453C23.4065 4.33985 22.8281 3.81993 22.8199 3.69961C22.7182 3.51838 22.5795 3.36287 22.4139 3.24414C22.3986 3.22219 22.3875 3.1974 22.3811 3.1711C22.2498 2.84883 22.4221 2.74141 22.5246 2.72852C22.6067 2.71563 22.6313 2.72852 22.6887 2.69844L22.4795 2.6125C22.5738 2.68555 22.8076 2.6211 22.7584 2.82735C22.861 2.78438 23.0824 2.50938 22.5082 2.44922C22.3196 2.22578 21.5526 2.09688 21.3598 3.07657C21.3762 3.08946 21.3844 3.10235 21.4336 3.13672C21.1875 3.01641 20.5354 2.92188 20.3016 2.87891C19.6617 2.68985 19.0014 2.22578 18.9399 2.28164C18.8578 2.32461 19.3254 2.78008 19.3008 2.78868C18.936 2.57106 18.5594 2.37593 18.1729 2.2043C17.9268 2.10977 17.6848 1.88633 17.6602 1.9293C17.5699 2.12266 18.0498 2.6125 18.1401 2.66836C18.2303 2.72422 18.9317 3.06797 18.9194 3.07227C17.8612 2.56953 17.6889 2.475 17.6315 2.41914C17.5371 2.39766 17.3115 2.07539 17.25 2.09688C17.2131 2.13125 17.2828 2.63828 17.7873 2.87032C17.8694 2.93047 18.8701 3.3043 18.8619 3.33438C18.8619 3.34297 17.7135 2.84024 17.6725 2.81875C17.451 2.73282 17.1803 2.41485 17.1311 2.44922C17.0819 2.4836 17.2541 2.82735 17.4756 2.93477C17.5946 2.98633 18.0416 3.21836 18.4436 3.36446C18.4682 3.37735 17.7176 3.06797 17.3567 2.91328C17.1926 2.81875 17.1188 2.69844 17.0942 2.72422C17.0531 2.75 17.1516 3.25703 18.3123 3.54063C18.341 3.55782 18.7225 3.45039 18.702 3.46328C18.4889 3.51938 18.2724 3.55959 18.0539 3.5836C18.0416 3.61797 18.1278 3.79844 18.7266 3.76407C18.8004 3.75977 19.2188 3.60508 19.1819 3.63516C18.9826 3.71481 18.7801 3.78506 18.5748 3.84571C18.5379 3.84571 18.3451 3.87149 18.3369 3.88868C18.3287 3.92305 18.4805 4.05196 18.8004 4.06914C19.0875 4.08633 19.6289 3.88868 19.6207 3.90157C19.6043 3.91446 19.0957 4.09922 19.0834 4.10782C19.0629 4.12071 18.8783 4.1293 18.8701 4.14649C18.8537 4.18516 19.1408 4.46446 19.9817 4.16368C19.8996 4.28399 19.4895 4.36563 19.4895 4.38711C19.4895 4.4043 19.5797 4.49453 19.7233 4.52891C19.793 4.5461 19.8914 4.5418 19.9817 4.52891C20.1457 4.49453 20.3098 4.43008 20.5272 4.21953C20.5518 4.28399 19.9899 4.58477 20.0145 4.61055C20.1375 4.73086 20.5436 4.59766 20.5682 4.58047C20.5969 4.56758 21.3475 4.12071 21.3475 4.06485C21.3598 4.1336 20.3754 4.69649 20.3877 4.71797C20.4492 4.8211 20.7856 4.71368 20.7979 4.70078L21.2408 4.45157C21.2531 4.44727 20.7569 4.75235 20.7979 4.80391C20.7774 5.00586 21.5772 4.66641 21.6387 4.62344C21.6674 4.60196 21.2531 4.8125 21.2531 4.91133C21.3885 5.14766 21.8151 5.07461 21.8807 5.02305C21.9135 4.99727 21.8397 5.19493 21.8643 5.17774C21.9147 5.12366 21.9563 5.06123 21.9873 4.99297C21.9791 5.06172 21.9299 5.16485 21.9053 5.28516C21.8766 5.40118 21.8684 5.53868 21.8315 5.68047C21.8233 5.74063 22.094 5.55586 22.0529 5.11329C22.0776 5.34532 21.9709 5.775 21.9996 5.80079C22.0529 5.84375 22.2129 5.58594 22.2293 5.40977C22.2744 5.49571 22.3729 5.68047 22.459 5.72344C22.4508 5.59024 22.459 5.59453 22.418 5.46563C22.4426 5.28946 22.4467 5.04883 22.4508 4.77383C22.6805 5.2336 22.7748 5.43125 22.7092 5.7836C22.7789 5.81368 22.8856 5.53438 22.8774 5.39688C22.903 5.51209 22.9622 5.61613 23.0466 5.69464C23.1311 5.77314 23.2368 5.82224 23.349 5.83516Z" fill="#EF7D00" stroke="black" stroke-width="0.128906" stroke-linecap="round" stroke-linejoin="round"/>
<path fill-rule="evenodd" clip-rule="evenodd" d="M19.5266 2.90899C19.5266 2.90899 19.3666 3.0336 19.1738 3.025C19.223 3.23125 19.625 3.07227 19.625 3.07227C19.625 3.07227 19.4322 3.3 19.2928 3.33438C19.3748 3.40743 19.7275 3.38165 19.785 3.34727C19.8424 3.3086 19.949 3.1668 19.949 3.1668C19.949 3.1668 19.5881 3.60508 19.5389 3.60079C19.5266 3.65235 19.9121 3.63516 19.99 3.55782C20.0721 3.48047 20.2771 3.36875 20.2771 3.36875C20.2771 3.36875 19.7439 3.75547 19.7234 3.75547C19.9203 3.80704 20.3182 3.68672 20.5725 3.52344C20.1951 3.78555 20.1623 3.83282 19.9695 3.92305C20.1418 3.96172 20.2279 4.08204 20.8021 3.81993C21.1303 3.65665 21.3189 3.35586 21.3189 3.35586C21.0685 3.66537 20.7688 3.92706 20.433 4.1293C20.4125 4.17227 20.8186 4.35274 21.3313 3.78985" fill="#EF7D00"/>
<path d="M19.5266 2.90899C19.5266 2.90899 19.3666 3.0336 19.1738 3.025C19.223 3.23125 19.625 3.07227 19.625 3.07227C19.625 3.07227 19.4322 3.3 19.2928 3.33438C19.3748 3.40743 19.7275 3.38165 19.785 3.34727C19.8424 3.3086 19.949 3.1668 19.949 3.1668C19.949 3.1668 19.5881 3.60508 19.5389 3.60079C19.5266 3.65235 19.9121 3.63516 19.99 3.55782C20.0721 3.48047 20.2771 3.36875 20.2771 3.36875C20.2771 3.36875 19.7439 3.75547 19.7234 3.75547C19.9203 3.80704 20.3182 3.68672 20.5725 3.52344C20.1951 3.78555 20.1623 3.83282 19.9695 3.92305C20.1418 3.96172 20.2279 4.08204 20.8021 3.81993C21.1303 3.65665 21.3189 3.35586 21.3189 3.35586C21.0685 3.66537 20.7688 3.92706 20.433 4.1293C20.4125 4.17227 20.8186 4.35274 21.3313 3.78985" stroke="black" stroke-width="0.128906" stroke-linecap="round" stroke-linejoin="round"/>
<path fill-rule="evenodd" clip-rule="evenodd" d="M22.3156 4.125C22.3156 4.125 22.3525 4.29688 22.492 4.42578C22.6314 4.55469 22.6396 4.68359 22.6396 4.68359M22.25 3.00781C22.25 3.00781 22.2951 3.1668 22.4387 3.26562C22.5863 3.36016 22.8078 3.66953 22.8201 3.72539C22.8365 3.78984 22.9227 4.2668 22.9145 4.31836M21.3641 3.24414C21.3723 3.30859 21.159 3.60078 21.4543 3.94883C21.1836 4.29258 21.1836 4.33555 21.1836 4.33555C21.1836 4.33555 21.3354 4.42148 21.602 4.18086C22.0449 4.74805 21.8973 5.00586 21.8973 5.00586" fill="#EF7D00"/>
<path d="M22.3156 4.125C22.3156 4.125 22.3525 4.29688 22.492 4.42578C22.6314 4.55469 22.6396 4.68359 22.6396 4.68359M22.25 3.00781C22.25 3.00781 22.2951 3.1668 22.4387 3.26562C22.5863 3.36016 22.8078 3.66953 22.8201 3.72539C22.8365 3.78984 22.9227 4.2668 22.9145 4.31836M21.3641 3.24414C21.3723 3.30859 21.159 3.60078 21.4543 3.94883C21.1836 4.29258 21.1836 4.33555 21.1836 4.33555C21.1836 4.33555 21.3354 4.42148 21.602 4.18086C22.0449 4.74805 21.8973 5.00586 21.8973 5.00586" stroke="black" stroke-width="0.128906" stroke-linecap="round"/>
<path fill-rule="evenodd" clip-rule="evenodd" d="M21.86 4.60625C21.86 4.60625 21.819 4.54609 21.8928 4.31836C21.9584 4.4043 22.0323 4.41719 22.061 4.44727C22.0938 4.48594 22.4301 4.5332 22.4465 4.76953" fill="#EF7D00"/>
<path d="M21.86 4.60625C21.86 4.60625 21.819 4.54609 21.8928 4.31836C21.9584 4.4043 22.0323 4.41719 22.061 4.44727C22.0938 4.48594 22.4301 4.5332 22.4465 4.76953" stroke="black" stroke-width="0.128906" stroke-linecap="round" stroke-linejoin="round"/>
<path fill-rule="evenodd" clip-rule="evenodd" d="M22.2535 2.47071C22.2535 2.45352 22.1838 2.29883 21.9336 2.4879C22.0689 2.49649 22.2002 2.57813 22.2535 2.47071Z" fill="#EF7D00" stroke="black" stroke-width="0.128906"/>
<path fill-rule="evenodd" clip-rule="evenodd" d="M24.6414 3.1582C24.6537 3.1668 25.3879 3.33008 25.634 3.24844C25.3223 3.68672 24.6947 3.39023 24.6947 3.39023C25.0024 3.48477 25.0147 3.47617 25.1131 3.5707C25.1459 3.65664 24.5471 3.61367 24.3543 3.49766C24.8998 3.67813 24.9121 3.66953 24.9285 3.73398C24.9531 3.83281 24.0344 3.7082 23.9565 3.58359C24.2025 3.78125 24.3338 3.81992 24.4691 3.91016C24.3051 3.9875 23.9975 4.06484 23.4356 3.64805C24.1738 4.35273 24.8424 4.30977 24.949 4.43437C24.6906 4.83398 23.6899 4.19805 23.2305 3.87578C22.7711 3.55352 24.2354 4.65352 24.3707 4.63633C24.3051 4.74375 23.8211 4.64922 23.7883 4.59336" fill="#EF7D00"/>
<path d="M24.6414 3.1582C24.6537 3.1668 25.3879 3.33008 25.634 3.24844C25.3223 3.68672 24.6947 3.39023 24.6947 3.39023C25.0024 3.48477 25.0147 3.47617 25.1131 3.5707C25.1459 3.65664 24.5471 3.61367 24.3543 3.49766C24.8998 3.67813 24.9121 3.66953 24.9285 3.73398C24.9531 3.83281 24.0344 3.7082 23.9565 3.58359C24.2025 3.78125 24.3338 3.81992 24.4691 3.91016C24.3051 3.9875 23.9975 4.06484 23.4356 3.64805C24.1738 4.35273 24.8424 4.30977 24.949 4.43437C24.6906 4.83398 23.6899 4.19805 23.2305 3.87578C22.7711 3.55352 24.2354 4.65352 24.3707 4.63633C24.3051 4.74375 23.8211 4.64922 23.7883 4.59336" stroke="black" stroke-width="0.128906" stroke-linejoin="round"/>
<path fill-rule="evenodd" clip-rule="evenodd" d="M24.8295 3.89727C24.7475 3.91016 24.4891 3.91016 24.4521 3.90157L24.8295 3.89727Z" fill="#EF7D00"/>
<path d="M24.8295 3.89727C24.7475 3.91016 24.4891 3.91016 24.4521 3.90157" stroke="black" stroke-width="0.128906" stroke-linecap="round"/>
<path fill-rule="evenodd" clip-rule="evenodd" d="M19.3086 2.79297C19.3086 2.79297 19.8664 3.10234 20.1043 3.08086C20.0589 3.12099 20.0057 3.15031 19.9484 3.1668C20.0059 3.19258 20.1699 3.28281 20.416 3.22695L20.2807 3.35586C20.2807 3.35586 20.4939 3.4418 20.7318 3.31289C20.691 3.36385 20.6527 3.41691 20.617 3.47188L20.7852 3.48477" fill="#EF7D00"/>
<path d="M19.3086 2.79297C19.3086 2.79297 19.8664 3.10234 20.1043 3.08086C20.0589 3.12099 20.0057 3.15031 19.9484 3.1668C20.0059 3.19258 20.1699 3.28281 20.416 3.22695L20.2807 3.35586C20.2807 3.35586 20.4939 3.4418 20.7318 3.31289C20.691 3.36385 20.6527 3.41691 20.617 3.47188L20.7852 3.48477" stroke="black" stroke-width="0.128906" stroke-linecap="round" stroke-linejoin="round"/>
</g>
</g>
<defs>
<clipPath id="clip0_3488_1258">
<rect width="28" height="22" rx="3" fill="white"/>
</clipPath>
</defs>
</svg>
